<svg width="71" height="71" viewBox="0 0 71 71" fill="none" xmlns="http://www.w3.org/2000/svg">
<path d="M45.1047 48.918C44.0253 48.918 43.01 48.4994 42.2515 47.7437C41.6856 47.1798 41.3063 46.4706 41.1605 45.7033C40.9971 44.9185 40.612 44.2093 40.046 43.6454L37.683 41.291C37.0236 41.5236 36.3293 41.6398 35.6233 41.6398C34.9173 41.6398 34.1996 41.5178 33.5287 41.2794L31.1539 43.6454C30.5938 44.2035 30.2087 44.9127 30.0453 45.6917C30.0395 45.7265 30.0337 45.7672 30.022 45.8021V45.8312L30.0045 45.8951C29.8236 46.6043 29.4735 47.2263 28.9542 47.7437C28.1957 48.4994 27.1805 48.918 26.1011 48.918C25.0217 48.918 24.0123 48.4994 23.2479 47.7437C22.4836 46.9822 22.0635 45.9707 22.0693 44.8952C22.0693 43.8198 22.4894 42.8141 23.2479 42.0584C23.8081 41.4945 24.5141 41.1225 25.2959 40.9713C26.0836 40.8085 26.7954 40.4249 27.3614 39.8668L29.7594 37.4776C29.3043 36.158 29.3043 34.7337 29.7711 33.4141L27.3614 31.0133C26.8071 30.461 26.1011 30.0773 25.3192 29.9087C25.2667 29.8971 25.22 29.8913 25.1909 29.8797H25.1675L25.1092 29.8622C24.3974 29.6878 23.7731 29.3332 23.2479 28.8159C21.6726 27.2463 21.6726 24.6943 23.2479 23.1305C24.0123 22.369 25.0217 21.9563 26.1011 21.9563C27.1805 21.9563 28.1957 22.3748 28.9542 23.1305C29.5202 23.6944 29.8936 24.3978 30.0453 25.1652C30.2087 25.9499 30.5938 26.665 31.1598 27.223L33.5753 29.6297C34.2347 29.403 34.929 29.2809 35.6291 29.2809C36.3293 29.2809 37.0003 29.3972 37.648 29.6181L40.046 27.2288C40.6061 26.6708 40.9854 25.9674 41.1546 25.1884C41.1604 25.1419 41.1721 25.1012 41.1779 25.078V25.0431L41.2013 24.9791C41.3763 24.2757 41.7322 23.6537 42.2515 23.1305C43.0159 22.369 44.0311 21.9504 45.1047 21.9504C46.1783 21.9504 47.1993 22.369 47.9578 23.1247C49.5332 24.6943 49.5332 27.2463 47.9578 28.81C47.3919 29.3739 46.6859 29.746 45.9099 29.8971C45.1222 30.0599 44.4104 30.4436 43.8444 31.0074L41.4697 33.3734C41.9539 34.7105 41.9598 36.1696 41.4814 37.5124L43.8386 39.8668C44.3987 40.4191 45.1047 40.8027 45.8807 40.9713C45.9332 40.9829 45.9799 40.9888 46.0091 41.0004H46.0324L46.0907 41.0178C46.8026 41.1922 47.4269 41.5468 47.9462 42.0642C48.7047 42.8199 49.1248 43.8314 49.1248 44.9011C49.1248 45.9765 48.7047 46.988 47.9404 47.7495C47.1819 48.5053 46.1666 48.9238 45.0872 48.9238L45.1047 48.918Z" stroke="#EF008F" stroke-width="0.267408" stroke-miterlimit="10"/>
<path d="M47.013 42.9996C46.6571 42.645 46.237 42.4183 45.7819 42.302C45.7352 42.2962 45.7002 42.2787 45.6535 42.2787C44.615 42.0636 43.6581 41.5579 42.9054 40.8022L39.8947 37.8026C40.7116 36.3318 40.7057 34.5413 39.8772 33.0764L42.9054 30.0593C43.6639 29.3036 44.615 28.7979 45.6535 28.5828C46.1553 28.4898 46.6279 28.2456 47.013 27.8619C48.0574 26.8214 48.0691 25.1181 47.013 24.0659C45.957 23.0137 44.2474 23.0195 43.203 24.0659C42.8471 24.4205 42.6195 24.8391 42.5028 25.2925C42.497 25.339 42.4853 25.3739 42.4795 25.4204C42.2636 26.4609 41.756 27.4085 40.9975 28.1584L37.9518 31.1929C36.4931 30.4081 34.731 30.4139 33.2723 31.2104L30.2091 28.1584C29.4506 27.4085 28.943 26.4551 28.7271 25.4204C28.6338 24.9204 28.3887 24.4554 28.0036 24.0659C26.9534 23.0195 25.2496 23.0137 24.1936 24.0659C23.1375 25.1181 23.1433 26.8156 24.1936 27.8619C24.5495 28.2165 24.9696 28.4433 25.4247 28.5537C25.4713 28.5595 25.5064 28.577 25.5531 28.577C26.5975 28.7921 27.5485 29.2978 28.3012 30.0535L31.3644 33.1055C30.5592 34.553 30.5592 36.3086 31.3469 37.7677L28.3012 40.8022C27.5485 41.5521 26.5916 42.0636 25.5531 42.2729C25.0513 42.3659 24.5786 42.6101 24.1936 42.9938C23.1491 44.0343 23.1375 45.7376 24.1936 46.7898C25.2496 47.842 26.9592 47.8304 28.0036 46.7898C28.3595 46.4352 28.5871 46.0166 28.7038 45.5632C28.7096 45.5167 28.7213 45.4818 28.7329 45.4353C28.9488 44.4006 29.4565 43.4472 30.2091 42.6973L33.2373 39.6802C34.7077 40.5057 36.5048 40.5115 37.9809 39.6977L40.9916 42.6973C41.7501 43.453 42.2578 44.4006 42.4737 45.4353C42.567 45.9353 42.8121 46.4003 43.1972 46.7898C44.2474 47.8362 45.9511 47.842 47.0072 46.7898C48.0633 45.7376 48.0574 44.0343 47.0072 42.9938L47.013 42.9996Z" fill="white"/>
<path d="M3.22943 48.8485C2.05082 46.0407 1.25146 43.0643 0.848862 40.0124L0.673828 38.687L10.5986 37.3906L10.7737 38.716C11.0654 40.9018 11.6372 43.0236 12.4774 45.0234L12.9967 46.2616L3.74288 50.0867L3.22943 48.8543V48.8485Z" stroke="#EF008F" stroke-width="0.267408" stroke-miterlimit="10"/>
<path d="M11.2406 45.5346L4.46657 48.3308C3.34631 45.6567 2.57031 42.8024 2.17938 39.8318L9.44939 38.8843C9.75863 41.2096 10.3654 43.4418 11.2465 45.5346H11.2406Z" fill="#EF008F"/>
<path d="M14.2986 63.1539C11.8656 61.2937 9.68341 59.1196 7.81047 56.6954L6.98779 55.6316L14.9346 49.5626L15.7515 50.6206C17.0876 52.353 18.6513 53.9051 20.3901 55.2363L21.452 56.0502L15.3606 63.9678L14.2928 63.1539H14.2986Z" stroke="#EF008F" stroke-width="0.267408" stroke-miterlimit="10"/>
<path d="M19.5729 56.2998L15.1152 62.0956C12.7755 60.3051 10.675 58.2124 8.87207 55.8812L14.6892 51.4399C16.1012 53.2653 17.7408 54.8988 19.5729 56.2998Z" fill="#EF008F"/>
<path d="M31.0492 70.0609C27.986 69.6656 25.0044 68.8692 22.1804 67.7007L20.9435 67.1892L24.7769 57.9752L26.0197 58.4868C28.0326 59.3181 30.1623 59.8878 32.3503 60.1726L33.6806 60.347L32.3795 70.2411L31.0492 70.0667V70.0609Z" stroke="#EF008F" stroke-width="0.267408" stroke-miterlimit="10"/>
<path d="M32.176 61.4974L31.225 68.7406C28.2435 68.3511 25.3845 67.5838 22.7005 66.4677L25.507 59.7185C27.6075 60.5905 29.848 61.1893 32.176 61.4974Z" fill="#EF008F"/>
<path d="M37.5199 60.347L38.8502 60.1726C41.0382 59.8878 43.162 59.3239 45.1809 58.4868L46.4236 57.9752L50.257 67.1892L49.0201 67.7007C46.2019 68.8692 43.2146 69.6656 40.1514 70.0609L38.8211 70.2353L37.5199 60.3412V60.347Z" stroke="#EF008F" stroke-width="0.267408" stroke-miterlimit="10"/>
<path d="M48.5071 66.4677C45.8231 67.578 42.9641 68.3511 39.9826 68.7348L39.0316 61.4915C41.3596 61.1892 43.6001 60.5847 45.7006 59.7185L48.5071 66.4677Z" fill="#EF008F"/>
<path d="M49.7502 56.0565L50.8121 55.2427C52.5509 53.9115 54.1146 52.3593 55.4566 50.627L56.2734 49.569L64.2144 55.638L63.3917 56.7018C61.5188 59.1259 59.3366 61.2943 56.8977 63.1603L55.8299 63.9741L49.7385 56.0565H49.7502Z" stroke="#EF008F" stroke-width="0.267408" stroke-miterlimit="10"/>
<path d="M62.3351 55.8881C60.5321 58.2192 58.4316 60.3061 56.0919 62.1024L51.6342 56.3066C53.4663 54.9056 55.1117 53.2721 56.5237 51.4468L62.3351 55.8881Z" fill="#EF008F"/>
<path d="M58.2107 46.2616L58.73 45.0234C59.5702 43.0178 60.142 40.896 60.4337 38.716L60.6087 37.3906L70.5394 38.687L70.3644 40.0124C69.9618 43.0701 69.1566 46.0465 67.978 48.8543L67.4645 50.0867L58.2165 46.2616H58.2107Z" stroke="#EF008F" stroke-width="0.267408" stroke-miterlimit="10"/>
<path d="M69.0338 39.8367C68.6371 42.8073 67.8611 45.6616 66.7408 48.3357L59.9667 45.5395C60.8478 43.4467 61.4546 41.2145 61.7638 38.8892L69.0338 39.8367Z" fill="#EF008F"/>
<path d="M60.4443 32.2232C60.1643 30.0374 59.5924 27.9098 58.7581 25.9042L58.2446 24.6718L67.4926 20.8467L68.0061 22.0791C69.1788 24.8927 69.9723 27.8691 70.3749 30.9326L70.5442 32.258L60.6135 33.5544L60.4443 32.2232Z" stroke="#EF008F" stroke-width="0.267408" stroke-miterlimit="10"/>
<path d="M69.0386 31.1005L61.7686 32.0481C61.4652 29.717 60.8642 27.4847 59.989 25.3861L66.7573 22.59C67.8717 25.2699 68.6477 28.1242 69.0328 31.1005H69.0386Z" fill="#EF008F"/>
<path d="M55.491 20.282C54.1549 18.5438 52.5912 16.9859 50.8466 15.6488L49.7847 14.835L55.8761 6.91736L56.9438 7.73702C59.3827 9.60888 61.5649 11.7888 63.4379 14.213L64.2547 15.2768L56.3137 21.3458L55.4968 20.2878L55.491 20.282Z" stroke="#EF008F" stroke-width="0.267408" stroke-miterlimit="10"/>
<path d="M62.3702 15.0266L56.5588 19.4679C55.1469 17.6367 53.5073 15.9974 51.6694 14.5906L56.1271 8.7948C58.4726 10.5911 60.5731 12.6897 62.3702 15.0266Z" fill="#EF008F"/>
<path d="M45.2098 12.3819C43.1969 11.5448 41.0614 10.9751 38.8617 10.6902L37.5314 10.5158L38.8325 0.621704L40.1628 0.796102C43.2319 1.19721 46.2251 1.99363 49.0491 3.1679L50.286 3.67946L46.4468 12.8934L45.204 12.376L45.2098 12.3819Z" stroke="#EF008F" stroke-width="0.267408" stroke-miterlimit="10"/>
<path d="M48.5363 4.40093L45.7239 11.1443C43.6176 10.2665 41.3713 9.6619 39.0316 9.35961L39.9826 2.11633C42.97 2.50582 45.8348 3.27898 48.5304 4.39512L48.5363 4.40093Z" fill="#EF008F"/>
<path d="M20.9147 3.68532L22.1516 3.17376C24.9756 1.99948 27.9688 1.20307 31.0379 0.80196L32.3682 0.627563L33.6693 10.5217L32.339 10.6961C30.1451 10.9809 28.0097 11.5506 25.9909 12.3877L24.7481 12.9051L20.9147 3.69113V3.68532Z" stroke="#EF008F" stroke-width="0.267408" stroke-miterlimit="10"/>
<path d="M32.1642 9.3643C29.8245 9.66658 27.5782 10.277 25.4718 11.149L22.6653 4.40562C25.3551 3.28948 28.22 2.51632 31.2073 2.12683L32.1584 9.37011L32.1642 9.3643Z" fill="#EF008F"/>
<path d="M6.95831 15.2768L7.77518 14.213C9.64229 11.783 11.8303 9.60307 14.2692 7.73702L15.337 6.91736L21.4284 14.835L20.3665 15.6488C18.6219 16.9859 17.0582 18.5438 15.7279 20.282L14.911 21.3458L6.96415 15.2768H6.95831Z" stroke="#EF008F" stroke-width="0.267408" stroke-miterlimit="10"/>
<path d="M19.5373 14.5906C17.7052 15.9974 16.0598 17.6367 14.6478 19.4679L8.83643 15.0266C10.6335 12.6897 12.734 10.5911 15.0796 8.7948L19.5373 14.5906Z" fill="#EF008F"/>
<path d="M0.668457 32.2522L0.83765 30.9268C1.23441 27.8691 2.02796 24.8927 3.20073 22.0791L3.71415 20.8467L12.9622 24.6718L12.4487 25.9042C11.6143 27.9156 11.0425 30.0374 10.7625 32.2232L10.5933 33.5544L0.668457 32.258V32.2522Z" stroke="#EF008F" stroke-width="0.267408" stroke-miterlimit="10"/>
<path d="M11.2178 25.3924C10.3426 27.4909 9.74158 29.7232 9.43818 32.0485L2.17401 31.1009C2.5591 28.1246 3.32926 25.2703 4.44952 22.5962L11.2178 25.3982V25.3924Z" fill="#EF008F"/>
</svg>
