<svg width="65" height="43" viewBox="0 0 65 43" fill="none" xmlns="http://www.w3.org/2000/svg">
<path d="M64.8396 14.0046C64.8396 10.7467 62.4569 8.09614 59.5287 8.09614C56.6004 8.09614 54.2177 10.7467 54.2177 14.0046C54.2177 16.0236 55.1327 17.8074 56.5262 18.8731L43.1143 23.4577L34.7079 11.8944C36.7022 11.0428 38.1249 8.89618 38.1249 6.3807C38.1249 3.12288 35.7422 0.47229 32.8139 0.47229C29.8857 0.47229 27.503 3.12288 27.503 6.3807C27.503 8.89466 28.9242 11.0412 30.9171 11.8929L22.5165 23.4562L9.10165 18.87C10.4938 17.8043 11.4073 16.0206 11.4073 14.003C11.4073 10.7452 9.02455 8.09462 6.09634 8.09462C3.16812 8.09462 0.7854 10.7467 0.7854 14.0046C0.7854 16.851 2.60517 19.2344 5.01699 19.79L7.21642 32.6877C7.23242 32.8517 7.28043 33.0035 7.35316 33.1416L7.35898 41.1177C7.35898 41.7947 7.88556 42.3428 8.53288 42.3428H9.73734C9.74752 42.3428 9.75625 42.3458 9.76643 42.3458H56.4564C56.4753 42.3458 56.4942 42.3412 56.5132 42.3397H57.3947C57.7074 42.3397 58.0056 42.2107 58.2253 41.9799C58.4449 41.7492 58.5686 41.438 58.5686 41.1131L58.5613 32.5602C58.5613 32.4266 58.5351 32.2991 58.4973 32.1791L60.6109 19.7885C63.0213 19.2298 64.8381 16.8495 64.8381 14.003L64.8396 14.0046ZM59.5301 10.5463C61.1622 10.5463 62.4918 12.0978 62.4918 14.003C62.4918 15.9082 61.1622 17.4612 59.5301 17.4612C57.898 17.4612 56.5684 15.9098 56.5684 14.003C56.5684 12.0963 57.8965 10.5463 59.5301 10.5463ZM32.8125 2.92401C34.4461 2.92401 35.7742 4.4755 35.7742 6.3807C35.7742 8.2859 34.4461 9.83891 32.8125 9.83891C31.1789 9.83891 29.8508 8.28742 29.8508 6.3807C29.8508 4.47398 31.1789 2.92401 32.8125 2.92401ZM22.5805 26.0597C23.0547 26.2221 23.5784 26.0521 23.8824 25.6346L32.8125 13.3427L41.7513 25.6362C42.0539 26.0536 42.579 26.2221 43.0518 26.0597L58.0318 20.9392L56.2586 31.3366L9.37513 31.3396L7.60045 20.9392L22.5805 26.0597ZM56.215 33.7868L56.2193 39.888L9.70824 39.891L9.70388 33.7898L56.215 33.7868ZM3.13467 14.0046C3.13467 12.0978 4.46276 10.5479 6.09634 10.5479C7.72991 10.5479 9.05801 12.0993 9.05801 14.0046C9.05801 15.9098 7.72991 17.4628 6.09634 17.4628C4.46276 17.4628 3.13467 15.9113 3.13467 14.0046Z" fill="#DDE404"/>
</svg>
