<svg width="50" height="51" viewBox="0 0 50 51" fill="none" xmlns="http://www.w3.org/2000/svg">
<rect x="0.0391846" y="0.467773" width="49.5541" height="49.5541" rx="9.52964" fill="#EF008F"/>
<path d="M34.7002 16.3874C32.9192 15.5693 30.9355 14.9708 28.8049 14.5967L28.0651 16.1107C26.9076 15.9459 25.8013 15.8797 24.8161 15.8797C23.8309 15.8797 22.7239 15.9453 21.567 16.1107L20.8272 14.5967C18.6967 14.9708 16.7123 15.5693 14.9319 16.3874C11.4777 21.3113 10.227 26.6612 10.7221 32.3484C13.003 33.9599 15.3923 35.1617 17.907 35.8937C18.4958 35.1515 19.0054 34.3268 19.4542 33.4396C18.6291 33.1238 17.8242 32.7478 17.0387 32.3148L17.6366 31.8486C17.6366 31.8486 20.591 33.4281 24.8161 33.4281C29.0412 33.4281 31.9955 31.8486 31.9955 31.8486L32.5935 32.3148C31.808 32.7478 31.003 33.1238 30.178 33.4396C30.6261 34.3274 31.1364 35.1515 31.7252 35.8937C34.2399 35.1617 36.6298 33.9599 38.9101 32.3484C39.4051 26.6612 38.1545 21.3113 34.7002 16.3874ZM20.0978 29.1526C18.6833 29.1526 17.5368 27.8816 17.5368 26.3135C17.5368 24.7454 18.6833 23.4744 20.0978 23.4744C21.5122 23.4744 22.6588 24.7454 22.6588 26.3135C22.6588 27.8816 21.5122 29.1526 20.0978 29.1526ZM29.5338 29.1526C28.1193 29.1526 26.9728 27.8816 26.9728 26.3135C26.9728 24.7454 28.1193 23.4744 29.5338 23.4744C30.9482 23.4744 32.0948 24.7454 32.0948 26.3135C32.0948 27.8816 30.9482 29.1526 29.5338 29.1526Z" fill="white"/>
</svg>
