<svg width="268" height="270" viewBox="0 0 268 270" fill="none" xmlns="http://www.w3.org/2000/svg">
<mask id="mask0_14_24007" style="mask-type:alpha" maskUnits="userSpaceOnUse" x="0" y="0" width="268" height="270">
<rect x="0.155396" y="0.878906" width="267.787" height="268.747" rx="20.7429" fill="#EF008F"/>
</mask>
<g mask="url(#mask0_14_24007)">
<path d="M32.7607 136.018L27.493 141.7C35.6204 149.235 36.1005 161.937 28.5649 170.065L82.6355 220.197C84.3704 218.474 87.1765 218.412 88.9878 220.092C90.799 221.771 90.9497 224.574 89.3619 226.434L281.749 404.81C289.285 396.683 301.987 396.203 310.114 403.738L315.382 398.057C311.934 394.86 311.73 389.474 314.927 386.026C318.124 382.578 323.51 382.374 326.958 385.571L332.035 380.095C328.587 376.898 328.384 371.513 331.581 368.065C334.778 364.616 340.163 364.413 343.611 367.61L348.689 362.134C345.24 358.936 345.037 353.551 348.234 350.103C351.431 346.655 356.816 346.451 360.265 349.648L365.342 344.172C361.894 340.975 361.69 335.59 364.888 332.141C368.085 328.693 373.47 328.489 376.918 331.687L381.996 326.21C378.547 323.013 378.344 317.628 381.541 314.18C384.738 310.731 390.123 310.528 393.572 313.725L398.649 308.249C395.201 305.052 394.997 299.666 398.195 296.218C401.392 292.77 406.777 292.566 410.225 295.763L415.493 290.082C407.365 282.547 406.882 269.849 414.421 261.717L222.03 83.3375C220.291 85.0651 217.485 85.1263 215.674 83.4469C213.862 81.7676 213.712 78.9649 215.303 77.1009L161.233 26.9683C153.697 35.0957 140.995 35.5757 132.868 28.0402L127.6 33.7217C131.049 36.9189 131.252 42.3039 128.055 45.7523C124.858 49.2006 119.473 49.4041 116.024 46.2069L110.947 51.6833C114.395 54.8805 114.599 60.2655 111.401 63.7139C108.204 67.1622 102.819 67.3657 99.3707 64.1685L94.2932 69.6449C97.7416 72.8421 97.9451 78.2271 94.7478 81.6755C91.5506 85.1238 86.1656 85.3273 82.7172 82.1301L77.6397 87.6065C81.0881 90.8037 81.2916 96.1887 78.0944 99.6371C74.8972 103.085 69.5121 103.289 66.0638 100.092L60.9863 105.568C64.4346 108.765 64.6381 114.15 61.4409 117.599C58.2437 121.047 52.8586 121.251 49.4103 118.053L44.3328 123.53C47.7811 126.727 47.9846 132.112 44.7874 135.56C41.5902 139.009 36.2052 139.212 32.7568 136.015L32.7607 136.018ZM210.837 88.6714C212.695 90.3938 212.808 93.2988 211.082 95.1604C209.356 97.0219 206.455 97.1316 204.593 95.4056C202.732 93.6796 202.622 90.7782 204.348 88.9167C206.074 87.0551 208.975 86.9454 210.837 88.6714ZM199.76 100.619C201.617 102.341 201.731 105.246 200.005 107.108C198.279 108.969 195.378 109.079 193.516 107.353C191.654 105.627 191.545 102.726 193.271 100.864C194.997 99.0024 197.898 98.8928 199.76 100.619ZM188.683 112.566C190.54 114.288 190.654 117.193 188.928 119.055C187.202 120.917 184.3 121.026 182.439 119.3C180.577 117.574 180.468 114.673 182.194 112.811C183.92 110.95 186.821 110.84 188.683 112.566ZM177.609 124.509C179.467 126.232 179.58 129.137 177.854 130.998C176.128 132.86 173.227 132.97 171.365 131.244C169.504 129.518 169.394 126.616 171.12 124.755C172.846 122.893 175.747 122.783 177.609 124.509ZM166.532 136.457C168.389 138.179 168.503 141.084 166.777 142.946C165.051 144.807 162.15 144.917 160.288 143.191C158.426 141.465 158.317 138.564 160.043 136.702C161.769 134.84 164.67 134.731 166.532 136.457ZM155.455 148.404C157.312 150.126 157.426 153.031 155.7 154.893C153.974 156.755 151.072 156.864 149.211 155.138C147.349 153.412 147.24 150.511 148.966 148.649C150.692 146.788 153.593 146.678 155.455 148.404ZM144.377 160.351C146.235 162.074 146.349 164.979 144.623 166.84C142.897 168.702 139.995 168.812 138.134 167.086C136.272 165.36 136.162 162.458 137.888 160.597C139.614 158.735 142.516 158.625 144.377 160.351ZM133.3 172.299C135.158 174.021 135.271 176.926 133.545 178.788C131.819 180.649 128.918 180.759 127.056 179.033C125.195 177.307 125.085 174.405 126.811 172.544C128.537 170.682 131.439 170.573 133.3 172.299ZM122.223 184.246C124.081 185.968 124.194 188.873 122.468 190.735C120.742 192.596 117.841 192.706 115.979 190.98C114.118 189.254 114.008 186.353 115.734 184.491C117.46 182.63 120.361 182.52 122.223 184.246ZM111.146 196.193C113.003 197.916 113.117 200.821 111.391 202.682C109.665 204.544 106.764 204.653 104.902 202.927C103.04 201.201 102.931 198.3 104.657 196.439C106.383 194.577 109.284 194.467 111.146 196.193ZM100.069 208.141C101.926 209.863 102.04 212.768 100.314 214.63C98.5878 216.491 95.6864 216.601 93.8248 214.875C91.9633 213.149 91.8536 210.247 93.5796 208.386C95.3056 206.524 98.207 206.415 100.069 208.141Z" stroke="white" stroke-opacity="0.1" stroke-width="3.83924" stroke-miterlimit="10"/>
</g>
</svg>
