<svg width="39" height="31" viewBox="0 0 39 31" fill="none" xmlns="http://www.w3.org/2000/svg">
<path d="M5.86985 26.3406C3.48098 26.3406 2.19912 24.4507 0.370984 21.3395C0.204789 21.0569 0.207669 20.7137 0.378199 20.4242C0.548729 20.1347 0.853662 19.9541 1.19328 19.9417C1.9809 19.9141 2.59364 19.9017 3.11968 19.9017C6.77886 19.9017 8.64892 20.5372 9.37728 24.1529C9.51746 24.8504 9.09836 25.5631 8.40034 25.8126C7.39162 26.1724 6.58665 26.3406 5.8684 26.3406H5.86985ZM1.62683 21.0941C3.41162 24.0992 4.35531 25.1771 5.86985 25.1771C6.42913 25.1771 7.11704 25.0283 7.97403 24.7236C8.11276 24.674 8.20813 24.5141 8.17923 24.3749C7.63729 21.6869 6.69215 21.0679 3.11968 21.0679C2.69769 21.0679 2.21646 21.0762 1.62683 21.0941Z" fill="#000"/>
<path d="M13.5644 30.3873C12.112 30.3873 10.544 29.6029 7.97887 28.0577C7.69128 27.884 7.52219 27.5821 7.52798 27.2499C7.53231 26.9177 7.7115 26.6199 8.00342 26.4545C10.5614 25.014 12.1207 24.282 13.5471 24.282C14.8824 24.282 16.0068 24.9258 17.3031 26.4352C17.7757 26.9838 17.7627 27.8027 17.2742 28.3375C15.9649 29.7725 14.855 30.3859 13.5644 30.3859V30.3873ZM8.96013 27.2692C11.0874 28.5374 12.4733 29.2211 13.5644 29.2225C14.4763 29.2225 15.2842 28.7455 16.3522 27.5738C16.4505 27.4663 16.4533 27.283 16.358 27.1741C15.3044 25.9472 14.4893 25.4469 13.5457 25.4469C12.4632 25.4469 11.0816 26.0851 8.95868 27.2692H8.96013Z" fill="#000"/>
<path d="M4.99164 19.6846C4.91938 19.6846 4.84713 19.6805 4.77487 19.6695C0.482708 19.0712 0.0404803 16.9994 1.54872e-05 12.0576C-0.00142968 11.8108 0.0983005 11.5765 0.284728 11.3987C0.579543 11.1147 1.05933 11.0347 1.42785 11.2112C6.05528 13.4319 7.80683 14.7277 6.47005 18.6646C6.26628 19.2656 5.65931 19.6846 4.99309 19.6846H4.99164ZM1.22409 12.4201C1.28045 16.936 1.6952 18.0636 4.95117 18.5185C5.10581 18.5364 5.26188 18.4413 5.30813 18.3075C6.32264 15.3218 5.44686 14.4671 1.22552 12.4215L1.22409 12.4201Z" fill="#000"/>
<path d="M6.81866 13.503C6.50217 13.503 6.19868 13.4134 5.94433 13.2452C2.3762 10.8935 2.94271 8.84923 5.2044 4.40367C5.3677 4.0811 5.70877 3.88123 6.09318 3.88123C6.40679 3.88123 6.69149 4.01494 6.87647 4.24928C9.99082 8.19722 10.9591 10.0995 7.92999 13.0618C7.64385 13.3417 7.23921 13.503 6.81866 13.503ZM6.13221 5.24591C4.08151 9.31791 3.93121 10.5034 6.63802 12.2871C6.7016 12.3299 6.77097 12.3381 6.81866 12.3381C6.91115 12.3381 6.99786 12.3051 7.05567 12.2485C9.35349 10.0016 8.96474 8.86578 6.13365 5.24453L6.13221 5.24591Z" fill="#000"/>
<path d="M10.7581 8.27793C10.0543 8.27793 9.42129 7.80649 9.25365 7.15586C8.21602 3.13899 10.0615 1.96591 14.8436 0.0677595C15.215 -0.0797369 15.6673 0.019513 15.9448 0.307613C16.1298 0.499221 16.2237 0.754238 16.2035 1.00926C15.7916 5.93453 15.1948 7.97053 10.8679 8.2738C10.8318 8.27655 10.7942 8.27793 10.7581 8.27793ZM14.9548 1.28633C10.5904 3.03836 9.65251 3.83099 10.4387 6.87878C10.4719 7.00836 10.615 7.1145 10.7581 7.1145H10.7783C14.0603 6.8843 14.5589 5.78841 14.9548 1.28771V1.28633Z" fill="#000"/>
<path d="M32.9588 26.3406C32.2406 26.3406 31.4356 26.1724 30.4269 25.8126C29.7303 25.5631 29.3098 24.8504 29.45 24.1529C30.1783 20.5372 32.0484 19.9017 35.7076 19.9017C36.2336 19.9017 36.8464 19.9141 37.634 19.9417C37.9736 19.9541 38.2785 20.1333 38.449 20.4242C38.6196 20.7137 38.6225 21.0555 38.4563 21.3395C36.6281 24.4507 35.3463 26.3406 32.9574 26.3406H32.9588ZM35.7076 21.0665C32.1351 21.0665 31.19 21.6841 30.648 24.3735C30.6206 24.5127 30.7145 24.6726 30.8533 24.7222C31.7088 25.0283 32.3981 25.1758 32.9574 25.1758C34.4705 25.1758 35.4156 24.0992 37.2004 21.0927C36.6108 21.0748 36.1296 21.0665 35.7076 21.0665Z" fill="#000"/>
<path d="M25.2654 30.3867C23.9749 30.3867 22.865 29.7747 21.5557 28.3383C21.0672 27.8035 21.0542 26.9846 21.5268 26.436C22.8245 24.9266 23.9474 24.2828 25.2828 24.2828C26.7092 24.2828 28.2685 25.0148 30.825 26.4553C31.1184 26.6207 31.2961 26.9171 31.3005 27.2493C31.3062 27.5815 31.1372 27.8834 30.8496 28.0571C28.2844 29.6024 26.7164 30.3867 25.264 30.3867H25.2654ZM25.2842 25.4463C24.3405 25.4463 23.5269 25.9467 22.4719 27.1735C22.378 27.2838 22.3809 27.4671 22.4777 27.5732C23.5457 28.7436 24.3535 29.2219 25.2669 29.2219C26.358 29.2219 27.7439 28.5382 29.8712 27.2686C27.7482 26.0845 26.3667 25.4463 25.2842 25.4463Z" fill="#000"/>
<path d="M33.8391 19.6841C33.1729 19.6841 32.5659 19.265 32.3622 18.664C31.0254 14.7285 32.7769 13.4327 37.4044 11.212C37.7714 11.0355 38.2513 11.1155 38.5475 11.3994C38.7325 11.5773 38.8337 11.8116 38.8322 12.0584C38.7917 16.9988 38.3495 19.072 34.0574 19.6703C33.9851 19.6799 33.9128 19.6854 33.8406 19.6854L33.8391 19.6841ZM37.6067 12.4195C33.3854 14.4665 32.5096 15.3198 33.5241 18.3056C33.5689 18.4393 33.7279 18.5358 33.8796 18.5165C37.1356 18.063 37.5503 16.9354 37.6067 12.4181V12.4195Z" fill="#000"/>
<path d="M32.0104 13.503C31.5913 13.503 31.1867 13.3417 30.8991 13.0618C27.8714 10.0995 28.8383 8.19722 31.9526 4.24928C32.1361 4.01494 32.4223 3.88123 32.7359 3.88123C33.1203 3.88123 33.4614 4.0811 33.6247 4.40367C35.8864 8.84923 36.4529 10.8935 32.8847 13.2452C32.6289 13.4134 32.3269 13.503 32.0104 13.503ZM32.6969 5.24591C29.8644 8.86578 29.477 10.0016 31.7748 12.2485C31.8327 12.3051 31.9194 12.3381 32.0119 12.3381C32.0596 12.3381 32.1289 12.3299 32.1925 12.2871C34.8993 10.5034 34.7476 9.31654 32.6983 5.24591H32.6969Z" fill="#000"/>
<path d="M28.0703 8.27732C28.0342 8.27732 27.9966 8.27732 27.9605 8.27319C23.6351 7.96992 23.0368 5.93392 22.6249 1.00864C22.6032 0.753628 22.6971 0.497232 22.8836 0.307003C23.161 0.0189026 23.6134 -0.0789688 23.9848 0.0671491C28.7683 1.9653 30.6124 3.13838 29.5747 7.15525C29.4071 7.80588 28.7741 8.27732 28.0703 8.27732ZM23.8735 1.28572C24.2681 5.78643 24.7681 6.88231 28.0501 7.11251H28.0703C28.2134 7.11251 28.3564 7.00775 28.3897 6.8768C29.1759 3.829 28.2394 3.03775 23.8735 1.28434V1.28572Z" fill="#000"/>
</svg>
