<svg width="213" height="105" viewBox="0 0 213 105" fill="none" xmlns="http://www.w3.org/2000/svg">
<path d="M211.56 16.0861V12.0274C205.511 12.0274 200.605 7.31884 200.605 1.5127H160.361C160.306 2.79281 159.205 3.8158 157.857 3.8158C156.509 3.8158 155.409 2.79281 155.354 1.5127H12.1593C12.1593 7.31884 7.25363 12.0274 1.20436 12.0274V16.0861C3.77098 16.0861 5.85077 18.0823 5.85077 20.5458C5.85077 23.0093 3.77098 25.0055 1.20436 25.0055V28.9177C3.77098 28.9177 5.85077 30.9139 5.85077 33.3774C5.85077 35.8409 3.77098 37.8371 1.20436 37.8371V41.7493C3.77098 41.7493 5.85077 43.7455 5.85077 46.209C5.85077 48.6724 3.77098 50.6687 1.20436 50.6687V54.5809C3.77098 54.5809 5.85077 56.5771 5.85077 59.0406C5.85077 61.504 3.77098 63.5002 1.20436 63.5002V67.4125C3.77098 67.4125 5.85077 69.4087 5.85077 71.8722C5.85077 74.3356 3.77098 76.3318 1.20436 76.3318V80.2441C3.77098 80.2441 5.85077 82.2403 5.85077 84.7038C5.85077 87.1672 3.77098 89.1634 1.20436 89.1634V93.2222C7.25363 93.2222 12.1593 97.928 12.1593 103.737H155.357C155.412 102.454 156.512 101.431 157.86 101.431C159.208 101.431 160.309 102.454 160.363 103.737H200.608C200.608 97.9307 205.514 93.2222 211.563 93.2222V89.1634C208.997 89.1634 206.917 87.1672 206.917 84.7038C206.917 82.2403 208.997 80.2441 211.563 80.2441V76.3318C208.997 76.3318 206.917 74.3356 206.917 71.8722C206.917 69.4087 208.997 67.4125 211.563 67.4125V63.5002C208.997 63.5002 206.917 61.504 206.917 59.0406C206.917 56.5771 208.997 54.5809 211.563 54.5809V50.6687C208.997 50.6687 206.917 48.6724 206.917 46.209C206.917 43.7455 208.997 41.7493 211.563 41.7493V37.8371C208.997 37.8371 206.917 35.8409 206.917 33.3774C206.917 30.9139 208.997 28.9177 211.563 28.9177V25.0055C208.997 25.0055 206.917 23.0093 206.917 20.5458C206.917 18.0823 208.997 16.0861 211.563 16.0861M157.857 97.7012C156.475 97.7012 155.351 96.6257 155.351 95.2958C155.351 93.9659 156.472 92.8904 157.857 92.8904C159.243 92.8904 160.363 93.9659 160.363 95.2958C160.363 96.6257 159.243 97.7012 157.857 97.7012ZM157.857 89.1662C156.475 89.1662 155.351 88.0907 155.351 86.7608C155.351 85.4309 156.472 84.3554 157.857 84.3554C159.243 84.3554 160.363 85.4309 160.363 86.7608C160.363 88.0907 159.243 89.1662 157.857 89.1662ZM157.857 80.6312C156.475 80.6312 155.351 79.5556 155.351 78.2258C155.351 76.8959 156.472 75.8203 157.857 75.8203C159.243 75.8203 160.363 76.8959 160.363 78.2258C160.363 79.5556 159.243 80.6312 157.857 80.6312ZM157.857 72.0989C156.475 72.0989 155.351 71.0234 155.351 69.6935C155.351 68.3636 156.472 67.2881 157.857 67.2881C159.243 67.2881 160.363 68.3636 160.363 69.6935C160.363 71.0234 159.243 72.0989 157.857 72.0989ZM157.857 63.5638C156.475 63.5638 155.351 62.4883 155.351 61.1584C155.351 59.8286 156.472 58.753 157.857 58.753C159.243 58.753 160.363 59.8286 160.363 61.1584C160.363 62.4883 159.243 63.5638 157.857 63.5638ZM157.857 55.0288C156.475 55.0288 155.351 53.9533 155.351 52.6234C155.351 51.2935 156.472 50.218 157.857 50.218C159.243 50.218 160.363 51.2935 160.363 52.6234C160.363 53.9533 159.243 55.0288 157.857 55.0288ZM157.857 46.4938C156.475 46.4938 155.351 45.4182 155.351 44.0884C155.351 42.7585 156.472 41.683 157.857 41.683C159.243 41.683 160.363 42.7585 160.363 44.0884C160.363 45.4182 159.243 46.4938 157.857 46.4938ZM157.857 37.9587C156.475 37.9587 155.351 36.8832 155.351 35.5533C155.351 34.2234 156.472 33.1479 157.857 33.1479C159.243 33.1479 160.363 34.2234 160.363 35.5533C160.363 36.8832 159.243 37.9587 157.857 37.9587ZM157.857 29.4237C156.475 29.4237 155.351 28.3482 155.351 27.0183C155.351 25.6884 156.472 24.6129 157.857 24.6129C159.243 24.6129 160.363 25.6884 160.363 27.0183C160.363 28.3482 159.243 29.4237 157.857 29.4237ZM157.857 20.8886C156.475 20.8886 155.351 19.8131 155.351 18.4832C155.351 17.1534 156.472 16.0778 157.857 16.0778C159.243 16.0778 160.363 17.1534 160.363 18.4832C160.363 19.8131 159.243 20.8886 157.857 20.8886ZM157.857 12.3536C156.475 12.3536 155.351 11.2781 155.351 9.9482C155.351 8.61832 156.472 7.5428 157.857 7.5428C159.243 7.5428 160.363 8.61832 160.363 9.9482C160.363 11.2781 159.243 12.3536 157.857 12.3536Z" fill="#131313"/>
<path d="M211.56 16.0861V12.0274C205.511 12.0274 200.605 7.31884 200.605 1.5127H160.361C160.306 2.79281 159.205 3.8158 157.857 3.8158C156.509 3.8158 155.409 2.79281 155.354 1.5127H12.1593C12.1593 7.31884 7.25363 12.0274 1.20436 12.0274V16.0861C3.77098 16.0861 5.85077 18.0823 5.85077 20.5458C5.85077 23.0093 3.77098 25.0055 1.20436 25.0055V28.9177C3.77098 28.9177 5.85077 30.9139 5.85077 33.3774C5.85077 35.8409 3.77098 37.8371 1.20436 37.8371V41.7493C3.77098 41.7493 5.85077 43.7455 5.85077 46.209C5.85077 48.6724 3.77098 50.6687 1.20436 50.6687V54.5809C3.77098 54.5809 5.85077 56.5771 5.85077 59.0406C5.85077 61.504 3.77098 63.5002 1.20436 63.5002V67.4125C3.77098 67.4125 5.85077 69.4087 5.85077 71.8722C5.85077 74.3356 3.77098 76.3318 1.20436 76.3318V80.2441C3.77098 80.2441 5.85077 82.2403 5.85077 84.7038C5.85077 87.1672 3.77098 89.1634 1.20436 89.1634V93.2222C7.25363 93.2222 12.1593 97.928 12.1593 103.737H155.357C155.412 102.454 156.512 101.431 157.86 101.431C159.208 101.431 160.309 102.454 160.363 103.737H200.608C200.608 97.9307 205.514 93.2222 211.563 93.2222V89.1634C208.997 89.1634 206.917 87.1672 206.917 84.7038C206.917 82.2403 208.997 80.2441 211.563 80.2441V76.3318C208.997 76.3318 206.917 74.3356 206.917 71.8722C206.917 69.4087 208.997 67.4125 211.563 67.4125V63.5002C208.997 63.5002 206.917 61.504 206.917 59.0406C206.917 56.5771 208.997 54.5809 211.563 54.5809V50.6687C208.997 50.6687 206.917 48.6724 206.917 46.209C206.917 43.7455 208.997 41.7493 211.563 41.7493V37.8371C208.997 37.8371 206.917 35.8409 206.917 33.3774C206.917 30.9139 208.997 28.9177 211.563 28.9177V25.0055C208.997 25.0055 206.917 23.0093 206.917 20.5458C206.917 18.0823 208.997 16.0861 211.563 16.0861M157.857 97.7012C156.475 97.7012 155.351 96.6257 155.351 95.2958C155.351 93.9659 156.472 92.8904 157.857 92.8904C159.243 92.8904 160.363 93.9659 160.363 95.2958C160.363 96.6257 159.243 97.7012 157.857 97.7012ZM157.857 89.1662C156.475 89.1662 155.351 88.0907 155.351 86.7608C155.351 85.4309 156.472 84.3554 157.857 84.3554C159.243 84.3554 160.363 85.4309 160.363 86.7608C160.363 88.0907 159.243 89.1662 157.857 89.1662ZM157.857 80.6312C156.475 80.6312 155.351 79.5556 155.351 78.2258C155.351 76.8959 156.472 75.8203 157.857 75.8203C159.243 75.8203 160.363 76.8959 160.363 78.2258C160.363 79.5556 159.243 80.6312 157.857 80.6312ZM157.857 72.0989C156.475 72.0989 155.351 71.0234 155.351 69.6935C155.351 68.3636 156.472 67.2881 157.857 67.2881C159.243 67.2881 160.363 68.3636 160.363 69.6935C160.363 71.0234 159.243 72.0989 157.857 72.0989ZM157.857 63.5638C156.475 63.5638 155.351 62.4883 155.351 61.1584C155.351 59.8286 156.472 58.753 157.857 58.753C159.243 58.753 160.363 59.8286 160.363 61.1584C160.363 62.4883 159.243 63.5638 157.857 63.5638ZM157.857 55.0288C156.475 55.0288 155.351 53.9533 155.351 52.6234C155.351 51.2935 156.472 50.218 157.857 50.218C159.243 50.218 160.363 51.2935 160.363 52.6234C160.363 53.9533 159.243 55.0288 157.857 55.0288ZM157.857 46.4938C156.475 46.4938 155.351 45.4182 155.351 44.0884C155.351 42.7585 156.472 41.683 157.857 41.683C159.243 41.683 160.363 42.7585 160.363 44.0884C160.363 45.4182 159.243 46.4938 157.857 46.4938ZM157.857 37.9587C156.475 37.9587 155.351 36.8832 155.351 35.5533C155.351 34.2234 156.472 33.1479 157.857 33.1479C159.243 33.1479 160.363 34.2234 160.363 35.5533C160.363 36.8832 159.243 37.9587 157.857 37.9587ZM157.857 29.4237C156.475 29.4237 155.351 28.3482 155.351 27.0183C155.351 25.6884 156.472 24.6129 157.857 24.6129C159.243 24.6129 160.363 25.6884 160.363 27.0183C160.363 28.3482 159.243 29.4237 157.857 29.4237ZM157.857 20.8886C156.475 20.8886 155.351 19.8131 155.351 18.4832C155.351 17.1534 156.472 16.0778 157.857 16.0778C159.243 16.0778 160.363 17.1534 160.363 18.4832C160.363 19.8131 159.243 20.8886 157.857 20.8886ZM157.857 12.3536C156.475 12.3536 155.351 11.2781 155.351 9.9482C155.351 8.61832 156.472 7.5428 157.857 7.5428C159.243 7.5428 160.363 8.61832 160.363 9.9482C160.363 11.2781 159.243 12.3536 157.857 12.3536Z" fill="#1A1A1A"/>
<path d="M211.56 16.0861V12.0274C205.511 12.0274 200.605 7.32161 200.605 1.5127H160.361C160.306 2.79558 159.205 3.81857 157.857 3.81857V7.54556C159.24 7.54556 160.363 8.62108 160.363 9.95097C160.363 11.2808 159.243 12.3564 157.857 12.3564V16.0834C159.24 16.0834 160.363 17.1589 160.363 18.4888C160.363 19.8187 159.243 20.8942 157.857 20.8942V24.6212C159.24 24.6212 160.363 25.6967 160.363 27.0266C160.363 28.3565 159.243 29.432 157.857 29.432V33.159C159.24 33.159 160.363 34.2345 160.363 35.5644C160.363 36.8943 159.243 37.9698 157.857 37.9698V41.6968C159.24 41.6968 160.363 42.7723 160.363 44.1022C160.363 45.4321 159.243 46.5076 157.857 46.5076V50.2346C159.24 50.2346 160.363 51.3101 160.363 52.64C160.363 53.9699 159.243 55.0454 157.857 55.0454V58.7724C159.24 58.7724 160.363 59.8479 160.363 61.1778C160.363 62.5077 159.243 63.5832 157.857 63.5832V67.3102C159.24 67.3102 160.363 68.3857 160.363 69.7156C160.363 71.0455 159.243 72.121 157.857 72.121V75.848C159.24 75.848 160.363 76.9235 160.363 78.2534C160.363 79.5833 159.243 80.6588 157.857 80.6588V84.3858C159.24 84.3858 160.363 85.4613 160.363 86.7912C160.363 88.1211 159.243 89.1966 157.857 89.1966V92.9236C159.24 92.9236 160.363 93.9991 160.363 95.329C160.363 96.6589 159.243 97.7344 157.857 97.7344V101.461C159.205 101.461 160.306 102.484 160.361 103.767H200.605C200.605 97.9611 205.511 93.2526 211.56 93.2526V89.1938C208.994 89.1938 206.914 87.1976 206.914 84.7342C206.914 82.2707 208.994 80.2745 211.56 80.2745V76.3623C208.994 76.3623 206.914 74.366 206.914 71.9026C206.914 69.4391 208.994 67.4429 211.56 67.4429V63.5307C208.994 63.5307 206.914 61.5345 206.914 59.071C206.914 56.6075 208.994 54.6113 211.56 54.6113V50.6991C208.994 50.6991 206.914 48.7029 206.914 46.2394C206.914 43.7759 208.994 41.7797 211.56 41.7797V37.8675C208.994 37.8675 206.914 35.8713 206.914 33.4078C206.914 30.9443 208.994 28.9481 211.56 28.9481V25.0359C208.994 25.0359 206.914 23.0397 206.914 20.5762C206.914 18.1128 208.994 16.1165 211.56 16.1165" fill="#E5EE00"/>
<path d="M211.56 16.0861V12.0274C205.511 12.0274 200.605 7.31884 200.605 1.5127H160.361C160.306 2.79281 159.205 3.8158 157.857 3.8158C156.509 3.8158 155.409 2.79281 155.354 1.5127H12.1593C12.1593 7.31884 7.25363 12.0274 1.20436 12.0274V16.0861C3.77098 16.0861 5.85077 18.0823 5.85077 20.5458C5.85077 23.0093 3.77098 25.0055 1.20436 25.0055V28.9177C3.77098 28.9177 5.85077 30.9139 5.85077 33.3774C5.85077 35.8409 3.77098 37.8371 1.20436 37.8371V41.7493C3.77098 41.7493 5.85077 43.7455 5.85077 46.209C5.85077 48.6724 3.77098 50.6687 1.20436 50.6687V54.5809C3.77098 54.5809 5.85077 56.5771 5.85077 59.0406C5.85077 61.504 3.77098 63.5002 1.20436 63.5002V67.4125C3.77098 67.4125 5.85077 69.4087 5.85077 71.8722C5.85077 74.3356 3.77098 76.3318 1.20436 76.3318V80.2441C3.77098 80.2441 5.85077 82.2403 5.85077 84.7038C5.85077 87.1672 3.77098 89.1634 1.20436 89.1634V93.2222C7.25363 93.2222 12.1593 97.928 12.1593 103.737H155.357C155.412 102.454 156.512 101.431 157.86 101.431C159.208 101.431 160.309 102.454 160.363 103.737H200.608C200.608 97.9307 205.514 93.2222 211.563 93.2222V89.1634C208.997 89.1634 206.917 87.1672 206.917 84.7038C206.917 82.2403 208.997 80.2441 211.563 80.2441V76.3318C208.997 76.3318 206.917 74.3356 206.917 71.8722C206.917 69.4087 208.997 67.4125 211.563 67.4125V63.5002C208.997 63.5002 206.917 61.504 206.917 59.0406C206.917 56.5771 208.997 54.5809 211.563 54.5809V50.6687C208.997 50.6687 206.917 48.6724 206.917 46.209C206.917 43.7455 208.997 41.7493 211.563 41.7493V37.8371C208.997 37.8371 206.917 35.8409 206.917 33.3774C206.917 30.9139 208.997 28.9177 211.563 28.9177V25.0055C208.997 25.0055 206.917 23.0093 206.917 20.5458C206.917 18.0823 208.997 16.0861 211.563 16.0861H211.56ZM157.857 97.7012C156.475 97.7012 155.351 96.6257 155.351 95.2958C155.351 93.9659 156.472 92.8904 157.857 92.8904C159.243 92.8904 160.363 93.9659 160.363 95.2958C160.363 96.6257 159.243 97.7012 157.857 97.7012ZM157.857 89.1662C156.475 89.1662 155.351 88.0907 155.351 86.7608C155.351 85.4309 156.472 84.3554 157.857 84.3554C159.243 84.3554 160.363 85.4309 160.363 86.7608C160.363 88.0907 159.243 89.1662 157.857 89.1662ZM157.857 80.6312C156.475 80.6312 155.351 79.5556 155.351 78.2258C155.351 76.8959 156.472 75.8203 157.857 75.8203C159.243 75.8203 160.363 76.8959 160.363 78.2258C160.363 79.5556 159.243 80.6312 157.857 80.6312ZM157.857 72.0989C156.475 72.0989 155.351 71.0234 155.351 69.6935C155.351 68.3636 156.472 67.2881 157.857 67.2881C159.243 67.2881 160.363 68.3636 160.363 69.6935C160.363 71.0234 159.243 72.0989 157.857 72.0989ZM157.857 63.5638C156.475 63.5638 155.351 62.4883 155.351 61.1584C155.351 59.8286 156.472 58.753 157.857 58.753C159.243 58.753 160.363 59.8286 160.363 61.1584C160.363 62.4883 159.243 63.5638 157.857 63.5638ZM157.857 55.0288C156.475 55.0288 155.351 53.9533 155.351 52.6234C155.351 51.2935 156.472 50.218 157.857 50.218C159.243 50.218 160.363 51.2935 160.363 52.6234C160.363 53.9533 159.243 55.0288 157.857 55.0288ZM157.857 46.4938C156.475 46.4938 155.351 45.4182 155.351 44.0884C155.351 42.7585 156.472 41.683 157.857 41.683C159.243 41.683 160.363 42.7585 160.363 44.0884C160.363 45.4182 159.243 46.4938 157.857 46.4938ZM157.857 37.9587C156.475 37.9587 155.351 36.8832 155.351 35.5533C155.351 34.2234 156.472 33.1479 157.857 33.1479C159.243 33.1479 160.363 34.2234 160.363 35.5533C160.363 36.8832 159.243 37.9587 157.857 37.9587ZM157.857 29.4237C156.475 29.4237 155.351 28.3482 155.351 27.0183C155.351 25.6884 156.472 24.6129 157.857 24.6129C159.243 24.6129 160.363 25.6884 160.363 27.0183C160.363 28.3482 159.243 29.4237 157.857 29.4237ZM157.857 20.8886C156.475 20.8886 155.351 19.8131 155.351 18.4832C155.351 17.1534 156.472 16.0778 157.857 16.0778C159.243 16.0778 160.363 17.1534 160.363 18.4832C160.363 19.8131 159.243 20.8886 157.857 20.8886ZM157.857 12.3536C156.475 12.3536 155.351 11.2781 155.351 9.9482C155.351 8.61832 156.472 7.5428 157.857 7.5428C159.243 7.5428 160.363 8.61832 160.363 9.9482C160.363 11.2781 159.243 12.3536 157.857 12.3536Z" stroke="white" stroke-width="1.6589" stroke-miterlimit="10"/>
<path d="M49.287 17.8987V22.9307H41.822V37.6396H35.4628V22.9307H27.9701V17.8987H49.287ZM67.7436 17.8987H74.1027V37.6396H67.7436V30.0364L57.6519 30.064V37.6396H51.2928V17.8987H57.6519V25.0597H67.7436V17.8987ZM83.3832 22.6266V25.4191H96.3227V29.7875H83.3832V32.9394H97.1798V37.6396H77.0241V17.8987H96.8756V22.6266H83.3832Z" fill="white"/>
<path d="M178.828 79.616L181.215 79.616L181.215 83.157L188.192 83.157L188.192 86.1734L181.215 86.1734L181.215 89.7275L178.828 89.7275L178.828 79.616ZM188.192 75.6482L188.192 78.6646L178.828 78.6646L178.828 75.6482L188.192 75.6482ZM182.474 66.2193C182.054 66.2455 181.696 66.451 181.399 66.8357C181.101 67.2204 180.953 67.7931 180.953 68.5537C180.953 69.1395 181.058 69.6335 181.267 70.0357C181.469 70.4379 181.761 70.7395 182.146 70.9406C182.522 71.1417 182.977 71.2422 183.51 71.2422C184.043 71.2422 184.502 71.1417 184.887 70.9406C185.263 70.7395 185.556 70.4379 185.766 70.0357C185.967 69.6335 186.067 69.1395 186.067 68.5537C186.067 67.7668 185.914 67.1942 185.608 66.8357C185.302 66.4772 184.878 66.2805 184.336 66.2455L184.336 62.639C185.228 62.6565 185.989 62.9057 186.618 63.3865C187.239 63.8674 187.711 64.545 188.035 65.4193C188.349 66.2936 188.507 67.3384 188.507 68.5537C188.507 69.7865 188.328 70.8532 187.969 71.7537C187.602 72.6455 187.047 73.3362 186.304 73.8258C185.552 74.3154 184.62 74.5602 183.51 74.5602C182.4 74.5602 181.473 74.3154 180.73 73.8258C179.978 73.3362 179.423 72.6455 179.064 71.7537C178.697 70.8532 178.513 69.7865 178.513 68.5537C178.513 67.3472 178.671 66.3067 178.986 65.4324C179.292 64.5581 179.742 63.8849 180.336 63.4128C180.931 62.9319 181.643 62.6827 182.474 62.6652L182.474 66.2193ZM182.133 54.5115L188.192 50.1837L188.192 53.8427L184.061 56.7017L185.7 58.5377L188.192 58.5377L188.192 61.5541L178.828 61.5541L178.828 58.5377L182.579 58.5377L178.828 54.4984L178.828 50.8001L182.133 54.5115ZM181.071 46.5117L182.395 46.5117L182.395 40.374L184.467 40.374L184.467 46.5117L185.963 46.5117L185.963 39.9674L188.192 39.9674L188.192 49.528L178.828 49.528L178.828 40.1117L181.071 40.1117L181.071 46.5117ZM178.828 29.0913L181.215 29.0913L181.215 32.6323L188.192 32.6323L188.192 35.6486L181.215 35.6486L181.215 39.2027L178.828 39.2027L178.828 29.0913ZM181.635 21.4077C181.259 21.4427 180.992 21.6307 180.835 21.9717C180.669 22.3127 180.586 22.7935 180.586 23.4143C180.586 24.0176 180.655 24.4547 180.795 24.7257C180.926 24.9968 181.114 25.1323 181.359 25.1323C181.578 25.1323 181.74 25.0492 181.845 24.8831C181.949 24.7083 182.024 24.4329 182.067 24.0569L182.448 20.7913C182.561 19.7422 182.85 18.9553 183.313 18.4307C183.768 17.8974 184.441 17.6307 185.333 17.6307C186.172 17.6307 186.824 17.8537 187.287 18.2996C187.75 18.7367 188.07 19.3619 188.244 20.175C188.419 20.9881 188.507 22.0241 188.507 23.2831C188.507 24.4809 188.411 25.4733 188.218 26.2602C188.035 27.047 187.694 27.6634 187.195 28.1093C186.688 28.5552 185.98 28.7957 185.071 28.8306L185.071 25.3684C185.587 25.3334 185.936 25.1367 186.12 24.7782C186.295 24.411 186.382 23.8733 186.382 23.1651C186.382 22.4919 186.312 21.9979 186.172 21.6831C186.032 21.3684 185.823 21.211 185.543 21.211C185.281 21.211 185.088 21.3203 184.966 21.5389C184.843 21.7487 184.756 22.0591 184.704 22.47L184.336 25.3946C184.214 26.4525 183.934 27.2525 183.497 27.7946C183.06 28.3279 182.408 28.5946 181.543 28.5946C180.424 28.6033 179.641 28.1487 179.195 27.2306C178.741 26.3039 178.513 25.0012 178.513 23.3225C178.513 21.6525 178.745 20.3542 179.208 19.4274C179.663 18.5007 180.472 18.011 181.635 17.9586L181.635 21.4077Z" fill="#280508"/>
<path d="M43.4806 43.6976C45.3607 43.6976 46.8722 43.9464 48.015 44.4441C49.1578 44.9233 49.9872 45.6606 50.5033 46.6559C51.0194 47.6328 51.2775 48.877 51.2775 50.3885C51.2775 51.8999 51.0102 53.1533 50.4757 54.1486C49.9596 55.1255 49.1301 55.8628 47.9873 56.3605C46.8445 56.8397 45.3423 57.0794 43.4806 57.0794H35.2414V63.4385H28.8823V43.6976H43.4806ZM41.9323 52.6003C42.7618 52.6003 43.3608 52.4344 43.7295 52.1027C44.0981 51.7709 44.2824 51.264 44.2824 50.582C44.2824 49.9 44.0981 49.3931 43.7295 49.0613C43.3608 48.7296 42.7618 48.5637 41.9323 48.5637H35.2414V52.6003H41.9323ZM71.8709 55.9458L76.6265 63.4385H69.3826L65.5948 57.0794H59.6227V63.4385H53.2636V43.6976H68.332C71.0784 43.6976 73.0598 44.2413 74.2764 45.3288C75.4929 46.3979 76.1011 48.0199 76.1011 50.1949C76.1011 51.8538 75.7325 53.1072 74.9952 53.9551C74.2764 54.7845 73.2349 55.3744 71.8709 55.7246V55.9458ZM66.8113 52.5727C67.5855 52.5727 68.1476 52.416 68.4979 52.1027C68.8481 51.7893 69.0232 51.3101 69.0232 50.6649C69.0232 50.0198 68.8481 49.5406 68.4979 49.2272C68.1476 48.9139 67.5855 48.7572 66.8113 48.7572H59.6227V52.5727H66.8113ZM84.787 63.4385H78.4279V43.6976H84.787V63.4385ZM109.172 48.7296L97.5318 58.1853H109.172V63.4385H87.0531V58.4065L98.6931 48.9507H87.689V43.6976H109.172V48.7296ZM118.051 48.4254V51.2179H130.991V55.5863H118.051V58.7383H131.848V63.4385H111.692V43.6976H131.544V48.4254H118.051Z" fill="white"/>
<path d="M28.8823 88.7891V82.9829H35.6838V88.7891H28.8823ZM44.9616 88.7891H38.6024V69.0482H44.9616V88.7891ZM60.25 68.3846C62.9411 68.3846 65.2544 68.7717 67.1897 69.5458C69.1251 70.3015 70.6089 71.4628 71.6411 73.0295C72.6918 74.5963 73.2171 76.5593 73.2171 78.9186C73.2171 81.2779 72.6918 83.241 71.6411 84.8077C70.6089 86.3744 69.1251 87.5449 67.1897 88.319C65.2544 89.0748 62.9411 89.4526 60.25 89.4526C57.5405 89.4526 55.218 89.0748 53.2826 88.319C51.3472 87.5449 49.8542 86.3744 48.8036 84.8077C47.7714 83.241 47.2553 81.2779 47.2553 78.9186C47.2553 76.5593 47.7714 74.5963 48.8036 73.0295C49.8542 71.4628 51.3472 70.3015 53.2826 69.5458C55.218 68.7717 57.5405 68.3846 60.25 68.3846ZM60.25 84.31C62.2407 84.31 63.7337 83.84 64.729 82.9C65.7428 81.9599 66.2497 80.6328 66.2497 78.9186C66.2497 77.2044 65.7428 75.8773 64.729 74.9372C63.7337 73.9972 62.2407 73.5272 60.25 73.5272C58.2409 73.5272 56.7387 73.9972 55.7433 74.9372C54.748 75.8773 54.2503 77.2044 54.2503 78.9186C54.2503 80.6328 54.748 81.9599 55.7433 82.9C56.7387 83.84 58.2409 84.31 60.25 84.31Z" fill="#E5EE00"/>
<path d="M136.523 68.8965H80.9331V89.9728H136.523V68.8965Z" fill="#EF008F"/>
<path d="M136.52 17.2852H105.772V38.3617H136.52V17.2852Z" fill="#EF008F"/>
</svg>
