<svg width="29" height="30" viewBox="0 0 29 30" fill="none" xmlns="http://www.w3.org/2000/svg">
<path d="M26.5502 5.66569H22.6079C22.7316 5.49757 22.8266 5.32534 22.8985 5.15995C23.5373 3.69603 22.8582 1.73046 22.2899 1.19055C21.4583 0.400493 20.5648 0 19.6324 0C17.0512 0 15.0427 3.0577 14.0902 4.84147C13.1377 3.0577 11.1291 0 8.5479 0C7.61556 0 6.72207 0.400493 5.89044 1.19055C5.32212 1.73046 4.64301 3.69603 5.28183 5.15995C5.35377 5.32534 5.45018 5.49757 5.57247 5.66569H1.63016C0.730905 5.66569 0 6.36006 0 7.21436V12.9921C0 13.8464 0.730905 14.5408 1.63016 14.5408H1.99274V28.2943C1.99274 29.1609 2.73516 29.8648 3.64592 29.8648H24.6035C25.5157 29.8648 26.2567 29.1595 26.2567 28.2943V14.5408H26.5487C27.448 14.5408 28.1789 13.8464 28.1789 12.9921V7.21436C28.1789 6.36006 27.448 5.66569 26.5487 5.66569H26.5502ZM19.6324 1.19055C20.2195 1.19055 20.8151 1.47349 21.4022 2.03118C21.6223 2.25534 22.1892 3.72063 21.7288 4.72938C21.441 5.35951 20.7892 5.66569 19.7375 5.66569H15.0628C15.9563 3.93113 17.7634 1.19191 19.6339 1.19191L19.6324 1.19055ZM6.45158 4.72938C5.99116 3.72063 6.55805 2.25534 6.77675 2.03254C7.36378 1.47486 7.95943 1.19191 8.5479 1.19191C10.414 1.19191 12.224 3.9325 13.119 5.66569H8.44431C7.39255 5.66569 6.74078 5.35951 6.45302 4.72938H6.45158ZM1.25463 12.9908V7.213C1.25463 7.01617 1.42297 6.85624 1.63016 6.85624H13.4629V13.3475H1.63016C1.42297 13.3475 1.25463 13.1876 1.25463 12.9908ZM3.24737 28.2929V14.5394H13.4629V28.6715H3.64736C3.42722 28.6715 3.24737 28.5007 3.24737 28.2916V28.2929ZM25.0035 28.2929C25.0035 28.5021 24.8251 28.6729 24.6035 28.6729H14.716V14.5408H25.002V28.2943L25.0035 28.2929ZM26.9257 12.9908C26.9257 13.1876 26.7574 13.3475 26.5502 13.3475H14.7175V6.85624H26.5502C26.7574 6.85624 26.9257 7.01617 26.9257 7.213V12.9908Z" fill="#EF008F"/>
</svg>
