<svg width="34" height="29" viewBox="0 0 34 29" fill="none" xmlns="http://www.w3.org/2000/svg">
<path d="M8.60166 28.446H0.606974C0.271694 28.446 0 28.1868 0 27.867V20.3888C0 20.069 0.271694 19.8099 0.606974 19.8099H8.60166C8.93694 19.8099 9.20864 20.069 9.20864 20.3888V27.867C9.20864 28.1868 8.93694 28.446 8.60166 28.446ZM1.21395 27.2881H7.99469V20.9692H1.21395V27.2881Z" fill="#EF008F"/>
<path d="M16.5958 28.4444H8.60111C8.26583 28.4444 7.99414 28.1853 7.99414 27.8655V15.0346C7.99414 14.7148 8.26583 14.4557 8.60111 14.4557H16.5958C16.9311 14.4557 17.2028 14.7148 17.2028 15.0346V27.8655C17.2028 28.1853 16.9311 28.4444 16.5958 28.4444ZM9.20809 27.2865H15.9888V15.6136H9.20809V27.2865Z" fill="#EF008F"/>
<path d="M32.5858 28.4464H24.5911C24.2558 28.4464 23.9841 28.1872 23.9841 27.8674V10.6172C23.9841 10.2974 24.2558 10.0383 24.5911 10.0383H32.5858C32.9211 10.0383 33.1928 10.2974 33.1928 10.6172V27.8674C33.1928 28.1872 32.9211 28.4464 32.5858 28.4464ZM25.1981 27.2885H31.9788V11.1976H25.1981V27.2885Z" fill="#EF008F"/>
<path d="M24.5917 28.4458H16.597C16.2617 28.4458 15.99 28.1866 15.99 27.8668V17.9239C15.99 17.6041 16.2617 17.345 16.597 17.345H24.5917C24.9269 17.345 25.1986 17.6041 25.1986 17.9239V27.8668C25.1986 28.1866 24.9269 28.4458 24.5917 28.4458ZM17.2025 27.2879H23.9832V18.5043H17.2025V27.2879Z" fill="#EF008F"/>
<path d="M29.1925 1.17348C29.1911 1.11283 29.1795 1.05355 29.1578 0.995655C29.1535 0.986006 29.1506 0.976357 29.1463 0.966707C29.1246 0.917082 29.0986 0.868836 29.061 0.824725C29.0581 0.820589 29.0538 0.817832 29.0509 0.815075C29.0451 0.808183 29.0393 0.804048 29.0336 0.797155C28.9887 0.751666 28.9396 0.71169 28.8847 0.682742C28.8832 0.682742 28.8804 0.679985 28.8789 0.678607C28.8182 0.646902 28.7517 0.627603 28.6838 0.616576C28.6795 0.616576 28.6766 0.613819 28.6723 0.61244L24.0853 0.00591313C23.7529 -0.0395764 23.4465 0.182357 23.4003 0.500784C23.354 0.817832 23.5867 1.11007 23.9191 1.15418L27.1158 1.57737L18.8379 7.94453L11.4155 4.55762C11.2334 4.47492 11.0224 4.48319 10.849 4.5783L2.13024 9.39744C1.83976 9.55734 1.74149 9.9116 1.90913 10.1887C2.02186 10.3734 2.22562 10.4782 2.43517 10.4782C2.53778 10.4782 2.64328 10.4533 2.73866 10.3996L11.1799 5.73484L18.6587 9.14655C18.8697 9.24305 19.1197 9.21548 19.3018 9.07487L27.9829 2.39894V5.74035C27.9829 6.06016 28.2546 6.31931 28.5899 6.31931C28.9252 6.31931 29.1969 6.06016 29.1969 5.74035V1.18726C29.1969 1.18726 29.194 1.17899 29.194 1.17348H29.1925Z" fill="#EF008F"/>
</svg>
