<svg width="54" height="32" viewBox="0 0 54 32" fill="none" xmlns="http://www.w3.org/2000/svg">
<g clip-path="url(#clip0_14_24209)">
<path d="M53.6878 14.6813L49.4254 18.9443L45.1624 14.6813" stroke="white" stroke-width="0.671858" stroke-miterlimit="10"/>
</g>
<rect x="0.424805" y="0.222244" width="31.3615" height="30.9488" rx="7.46702" fill="#393939"/>
<path d="M11.0115 12.7659C11.4537 12.7659 11.8624 12.8998 12.2147 13.1156L17.0719 9.3729C16.9365 9.07548 16.853 8.7463 16.853 8.39863C16.853 7.11328 17.8911 6.07109 19.171 6.07109C20.4508 6.07109 21.4845 7.11328 21.4845 8.39863C21.4845 9.68399 20.4484 10.7286 19.171 10.7286C18.6633 10.7286 18.1983 10.5606 17.8144 10.2812L13.0275 13.9693C13.2149 14.3053 13.3279 14.6867 13.3279 15.0979C13.3279 15.5091 13.2057 15.911 13.0119 16.2514L17.8348 20.0351C18.2139 19.7647 18.6721 19.6083 19.171 19.6083C20.4484 19.6083 21.4845 20.6481 21.4845 21.9338C21.4845 23.2196 20.4484 24.2662 19.171 24.2662C17.8935 24.2662 16.853 23.2216 16.853 21.9338C16.853 21.5769 16.9389 21.2409 17.0831 20.9391L12.1811 17.0943C11.8404 17.3009 11.4409 17.4259 11.0119 17.4259C9.73452 17.4259 8.69836 16.3833 8.69836 15.0979C8.69836 13.8126 9.73452 12.7655 11.0119 12.7655L11.0115 12.7659Z" fill="#DDE404"/>
<defs>
<clipPath id="clip0_14_24209">
<rect width="8.73415" height="4.57616" fill="white" transform="translate(45.0574 14.5772)"/>
</clipPath>
</defs>
</svg>
