<svg width="51" height="51" viewBox="0 0 51 51" fill="none" xmlns="http://www.w3.org/2000/svg">
<rect x="0.782593" y="0.467773" width="49.5541" height="49.5541" rx="9.52964" fill="#383838"/>
<path d="M36.2302 41.3279H14.8891C11.9369 41.3279 9.53259 38.9152 9.53259 35.9528V14.5377C9.53259 11.5752 11.9369 9.1626 14.8891 9.1626H36.2302C39.1824 9.1626 41.5867 11.5752 41.5867 14.5377V35.9528C41.5867 38.9152 39.1824 41.3279 36.2302 41.3279ZM14.8891 10.9164C12.9005 10.9164 11.285 12.5374 11.285 14.533V35.948C11.285 37.9435 12.9005 39.5646 14.8891 39.5646H36.2302C38.2188 39.5646 39.8342 37.9435 39.8342 35.948V14.533C39.8342 12.5374 38.2188 10.9164 36.2302 10.9164H14.8891Z" fill="#8E8E8E"/>
<path d="M25.5595 33.4972C23.3631 33.4972 21.2989 32.6392 19.7448 31.0798C18.1908 29.5203 17.3358 27.449 17.3358 25.2449C17.3358 23.0408 18.1908 20.9695 19.7448 19.41C21.2989 17.8506 23.3631 16.9927 25.5595 16.9927C27.756 16.9927 29.8202 17.8506 31.3742 19.41C32.9283 20.9695 33.7833 23.0408 33.7833 25.2449C33.7833 27.449 32.9283 29.5203 31.3742 31.0798C29.8202 32.6392 27.756 33.4972 25.5595 33.4972ZM25.5595 18.7512C21.9932 18.7512 19.0883 21.6663 19.0883 25.2449C19.0883 28.8236 21.9932 31.7386 25.5595 31.7386C29.1258 31.7386 32.0308 28.8236 32.0308 25.2449C32.0308 21.6663 29.1258 18.7512 25.5595 18.7512Z" fill="#8E8E8E"/>
<path d="M37.298 13.9883C37.4981 13.1373 36.9729 12.2847 36.1249 12.0838C35.2769 11.883 34.4272 12.41 34.227 13.2609C34.0269 14.1119 34.5521 14.9646 35.4001 15.1654C36.2481 15.3663 37.0978 14.8392 37.298 13.9883Z" fill="#8E8E8E"/>
</svg>
