<svg fill="none" xmlns="http://www.w3.org/2000/svg" viewBox="18.46 19.14 307.45 45.09"> <g filter="url(#filter0_d_14_22840)"> <path d="M325.906 64.2354L18.46 64.2353L18.46 36.8804C18.46 27.0844 26.4012 19.1431 36.1973 19.1431L308.169 19.1432C317.965 19.1432 325.906 27.0844 325.906 36.8805L325.906 64.2354Z" fill="#EF008F"></path> </g> <path d="M81.7395 34.2429V49.7085H75.2414V34.2429H81.7395ZM97.2943 42.3439V34.2429H103.402V49.7085H96.0163L89.4965 41.5209H89.3665V49.7085H83.2583V34.2429H90.7311L97.1643 42.3439H97.2943ZM117.525 38.8783C117.482 38.4595 117.222 38.1346 116.745 37.9036C116.283 37.6725 115.597 37.557 114.688 37.557C113.706 37.557 113.027 37.6364 112.652 37.7953C112.29 37.9397 112.11 38.1563 112.11 38.4451C112.11 38.7339 112.24 38.9505 112.5 39.0949C112.76 39.2248 113.258 39.3187 113.994 39.3765L119.366 39.8747C121.316 40.0624 122.817 40.5534 123.872 41.3476C124.926 42.1273 125.453 43.297 125.453 44.8566C125.453 46.3439 125.063 47.4847 124.283 48.2789C123.503 49.0587 122.363 49.5858 120.861 49.8601C119.373 50.1489 117.395 50.2933 114.926 50.2933C112.529 50.2933 110.587 50.1345 109.099 49.8168C107.612 49.4991 106.464 48.9287 105.655 48.1056C104.861 47.2825 104.435 46.1201 104.377 44.6183H111.742C111.8 45.2681 112.081 45.7085 112.587 45.9396C113.106 46.1562 113.915 46.2645 115.012 46.2645C116.096 46.2645 116.839 46.1923 117.244 46.0479C117.648 45.9035 117.85 45.6797 117.85 45.3764C117.85 45.0587 117.713 44.8205 117.438 44.6616C117.164 44.4883 116.644 44.3584 115.879 44.2717L110.854 43.7086C108.919 43.492 107.417 43.0371 106.348 42.3439C105.294 41.6364 104.767 40.4811 104.767 38.8783C104.767 36.9288 105.626 35.5715 107.345 34.8061C109.078 34.0408 111.554 33.6581 114.774 33.6581C117.951 33.6581 120.384 34.0408 122.074 34.8061C123.778 35.557 124.673 36.9144 124.76 38.8783H117.525ZM125.448 34.2429H144.033V38.8783H137.99V49.7085H131.492V38.8783H125.448V34.2429ZM164.692 49.7085H157.739L156.851 47.7591H149.097L148.208 49.7085H141.255L148.707 34.2429H157.241L164.692 49.7085ZM152.909 39.2682L150.894 43.7302H155.053L153.039 39.2682H152.909ZM179.177 42.3439V34.2429H185.285V49.7085H177.899L171.379 41.5209H171.249V49.7085H165.141V34.2429H172.614L179.047 42.3439H179.177ZM186.39 34.2429H204.974V38.8783H198.931V49.7085H192.433V38.8783H186.39V34.2429ZM240.895 34.2429L236.606 49.7085H228.873L226.729 40.4378H226.599L224.455 49.7085H216.592L212.433 34.2429H218.996L220.967 43.6219H221.097L223.263 34.2429H230.065L232.252 43.6219H232.382L234.375 34.2429H240.895ZM247.789 34.2429V49.7085H241.291V34.2429H247.789ZM263.344 42.3439V34.2429H269.452V49.7085H262.066L255.546 41.5209H255.416V49.7085H249.308V34.2429H256.78L263.214 42.3439H263.344Z" fill="white"></path> <path d="M40.7618 35.8993C41.166 35.8993 41.5462 36.0561 41.8303 36.3391C42.0423 36.5503 42.1843 36.8159 42.2389 37.1033C42.3001 37.3972 42.4444 37.6628 42.6563 37.874L43.5413 38.7557C43.7882 38.6686 44.0483 38.6251 44.3127 38.6251C44.5771 38.6251 44.8458 38.6708 45.0971 38.7601L45.9865 37.874C46.1963 37.665 46.3405 37.3994 46.4017 37.1076C46.4039 37.0946 46.4061 37.0793 46.4104 37.0663L46.4104 37.0554L46.417 37.0314C46.4847 36.7658 46.6158 36.5329 46.8103 36.3391C47.0944 36.0561 47.4746 35.8993 47.8789 35.8993C48.2831 35.8993 48.6611 36.0561 48.9474 36.3391C49.2337 36.6243 49.391 37.0031 49.3888 37.4059C49.3888 37.8087 49.2315 38.1853 48.9474 38.4683C48.7376 38.6795 48.4732 38.8189 48.1804 38.8755C47.8854 38.9364 47.6188 39.0801 47.4069 39.2891L46.5088 40.1839C46.6792 40.6781 46.6792 41.2115 46.5044 41.7057L47.4069 42.6049C47.6144 42.8117 47.8789 42.9554 48.1717 43.0185C48.1913 43.0229 48.2088 43.0251 48.2197 43.0294L48.2285 43.0294L48.2503 43.036C48.5169 43.1013 48.7507 43.2341 48.9474 43.4278C49.5374 44.0157 49.5374 44.9714 48.9474 45.5571C48.6611 45.8423 48.2831 45.9968 47.8788 45.9968C47.4746 45.9968 47.0944 45.8401 46.8103 45.5571C46.5984 45.3459 46.4585 45.0825 46.4017 44.7951C46.3405 44.5012 46.1963 44.2334 45.9843 44.0244L45.0797 43.123C44.8327 43.2079 44.5727 43.2537 44.3105 43.2537C44.0483 43.2537 43.797 43.2101 43.5544 43.1274L42.6563 44.0222C42.4465 44.2312 42.3045 44.4946 42.2411 44.7864C42.2389 44.8038 42.2346 44.819 42.2324 44.8277L42.2324 44.8408L42.2237 44.8647C42.1581 45.1282 42.0248 45.3611 41.8303 45.5571C41.5441 45.8423 41.1638 45.999 40.7618 45.999C40.3597 45.999 39.9773 45.8423 39.6932 45.5592C39.1032 44.9714 39.1032 44.0157 39.6932 43.43C39.9052 43.2188 40.1696 43.0795 40.4602 43.0229C40.7552 42.9619 41.0218 42.8182 41.2338 42.6071L42.1231 41.721C41.9418 41.2202 41.9396 40.6738 42.1188 40.1709L41.236 39.2891C41.0262 39.0823 40.7618 38.9386 40.4711 38.8755C40.4515 38.8711 40.434 38.8689 40.4231 38.8646L40.4143 38.8646L40.3925 38.8581C40.1259 38.7927 39.8921 38.6599 39.6976 38.4662C39.4135 38.1831 39.2562 37.8043 39.2562 37.4037C39.2562 37.001 39.4135 36.6221 39.6998 36.3369C39.9839 36.0539 40.3641 35.8972 40.7683 35.8972L40.7618 35.8993Z" stroke="white" stroke-width="0.197915" stroke-miterlimit="10"></path> <path d="M41.321 45.0557C41.0139 45.3632 40.5094 45.365 40.198 45.0547C39.8877 44.7453 39.8907 44.2437 40.198 43.9375C40.3117 43.8243 40.4498 43.7544 40.5945 43.7275L40.5994 43.7266C41.0287 43.6376 41.423 43.4282 41.7371 43.1152L42.8709 41.9853L42.9871 41.8691L42.906 41.7266C42.6328 41.2432 42.6306 40.6523 42.9001 40.167L42.9792 40.0254L42.864 39.9102L41.7371 38.7871C41.4246 38.4735 41.028 38.2646 40.5994 38.1758L40.5779 38.1709L40.572 38.1709C40.5709 38.1706 40.5693 38.1702 40.5681 38.1699C40.5653 38.1693 40.5619 38.1697 40.5584 38.1689C40.4579 38.143 40.3644 38.099 40.28 38.0352L40.198 37.9639C39.8915 37.6581 39.8905 37.1589 40.2009 36.8496C40.5122 36.5395 41.0143 36.5411 41.324 36.8496L41.325 36.8496C41.4392 36.9658 41.5083 37.1012 41.5349 37.2432L41.5359 37.248L41.575 37.4072C41.6794 37.7734 41.8754 38.1081 42.1501 38.3818L43.2771 39.5049L43.3914 39.6191L43.533 39.541C44.0207 39.2722 44.6147 39.2743 45.1003 39.5469L45.2419 39.627L45.3572 39.5117L46.4919 38.3818C46.802 38.0728 47.0111 37.681 47.1013 37.2568C47.1014 37.2564 47.1071 37.2349 47.1121 37.21C47.1466 37.0759 47.2127 36.9538 47.3171 36.8496C47.6249 36.5429 48.1302 36.5398 48.4412 36.8496C48.7512 37.1589 48.7481 37.6597 48.4412 37.9658C48.3275 38.0791 48.1894 38.1498 48.0447 38.1768L48.0408 38.1777C47.6105 38.2645 47.2138 38.4765 46.9021 38.7871L45.7615 39.9238L45.6482 40.0371L45.7244 40.1777C45.9849 40.6604 45.9845 41.24 45.7195 41.7168L45.6404 41.8594L45.7556 41.9746L46.9031 43.1172C47.2152 43.4302 47.6088 43.6397 48.0398 43.7285L48.0613 43.7324L48.0652 43.7324C48.0667 43.7328 48.0683 43.733 48.0701 43.7334C48.0736 43.7342 48.0781 43.7354 48.0828 43.7363C48.2151 43.7688 48.337 43.8337 48.4412 43.9375C48.7503 44.2455 48.7517 44.745 48.4412 45.0547C48.1305 45.3642 47.6289 45.3635 47.3191 45.0566L47.3191 45.0557C47.2036 44.9389 47.1329 44.8031 47.1062 44.6602L47.1052 44.6562C47.0161 44.2292 46.8061 43.8346 46.4919 43.5234L46.4919 43.5225L45.3445 42.3789L45.2302 42.2656L45.0896 42.3428C44.607 42.6063 44.0238 42.608 43.5417 42.3486L43.4011 42.2734L43.2878 42.3857L42.1472 43.5225L42.1482 43.5234C41.8339 43.8345 41.6231 44.2263 41.5339 44.6562L41.532 44.665L41.531 44.6728C41.5312 44.6712 41.5317 44.6709 41.53 44.6787C41.5293 44.682 41.5284 44.6875 41.5271 44.6943C41.4926 44.8285 41.4257 44.9504 41.321 45.0547L41.321 45.0557Z" fill="white" stroke="white" stroke-width="0.430249"></path> <path d="M56.4443 35.9247C56.8857 36.9763 57.185 38.0909 57.3358 39.2339L57.4014 39.7303L53.6844 40.2158L53.6188 39.7194C53.5096 38.9008 53.2954 38.1062 52.9808 37.3573L52.7863 36.8935L56.252 35.461L56.4443 35.9225L56.4443 35.9247Z" stroke="white" stroke-width="0.197915" stroke-miterlimit="10"></path> <path d="M54.2972 39.4175C54.1831 38.6775 53.9899 37.9631 53.722 37.2847L55.8636 36.4009C56.2067 37.2626 56.4533 38.1732 56.5941 39.1177L54.2972 39.4175Z" fill="white" stroke="white" stroke-width="0.430249"></path> <path d="M52.299 30.5671C53.2102 31.2638 54.0274 32.078 54.7289 32.9859L55.037 33.3843L52.0608 35.6572L51.7549 35.261C51.2545 34.6122 50.6688 34.0309 50.0177 33.5324L49.62 33.2276L51.9013 30.2623L52.3012 30.5671L52.299 30.5671Z" stroke="white" stroke-width="0.197915" stroke-miterlimit="10"></path> <path d="M52.1903 34.6567C51.7262 34.0818 51.2019 33.5593 50.6249 33.0981L52.0321 31.2681C52.7692 31.8527 53.4387 32.5199 54.0272 33.2544L52.1903 34.6567Z" fill="white" stroke="white" stroke-width="0.430249"></path> <path d="M46.0249 27.9806C47.1721 28.1286 48.2887 28.4269 49.3463 28.8645L49.8096 29.0561L48.3739 32.5068L47.9085 32.3152C47.1546 32.0039 46.357 31.7906 45.5376 31.6839L45.0394 31.6186L45.5267 27.9131L46.0249 27.9784L46.0249 27.9806Z" stroke="white" stroke-width="0.197915" stroke-miterlimit="10"></path> <path d="M47.9834 31.5771C47.3024 31.3118 46.5857 31.1204 45.8447 31.0068L46.1445 28.7207C47.0926 28.8609 48.0045 29.1057 48.8691 29.4473L47.9834 31.5771Z" fill="white" stroke="white" stroke-width="0.430249"></path> <path d="M43.6014 31.6186L43.1032 31.6839C42.2838 31.7906 41.4884 32.0017 40.7323 32.3152L40.2669 32.5068L38.8312 29.0561L39.2945 28.8645C40.3499 28.4269 41.4687 28.1286 42.6159 27.9806L43.1141 27.9153L43.6014 31.6207L43.6014 31.6186Z" stroke="white" stroke-width="0.197915" stroke-miterlimit="10"></path> <path d="M39.7709 29.4463C40.6361 29.106 41.5486 28.8613 42.4965 28.7227L42.7963 31.0098C42.0548 31.122 41.3381 31.3135 40.6576 31.5771L39.7709 29.4463Z" fill="white" stroke="white" stroke-width="0.430249"></path> <path d="M39.0207 33.2266L38.6229 33.5314C37.9718 34.0299 37.3861 34.6112 36.8836 35.26L36.5776 35.6562L33.6036 33.3833L33.9117 32.9849C34.6132 32.0771 35.4304 31.265 36.3438 30.5661L36.7437 30.2613L39.025 33.2266L39.0207 33.2266Z" stroke="white" stroke-width="0.197915" stroke-miterlimit="10"></path> <path d="M34.6143 33.2515C35.2029 32.5171 35.8727 31.8514 36.6104 31.2651L38.0166 33.0952C37.4394 33.5562 36.9138 34.0788 36.4492 34.6538L34.6143 33.2515Z" fill="white" stroke="white" stroke-width="0.430249"></path> <path d="M35.8532 36.8935L35.6587 37.3573C35.344 38.1084 35.1299 38.903 35.0206 39.7194L34.955 40.2158L31.2359 39.7303L31.3014 39.2339C31.4522 38.0888 31.7538 36.9741 32.1952 35.9225L32.3875 35.461L35.851 36.8935L35.8532 36.8935Z" stroke="white" stroke-width="0.197915" stroke-miterlimit="10"></path> <path d="M32.0443 39.1162C32.1869 38.1716 32.4337 37.2611 32.7767 36.3994L34.9164 37.2822C34.6483 37.9611 34.4544 38.6756 34.3402 39.416L32.0443 39.1162Z" fill="white" stroke="white" stroke-width="0.430249"></path> <path d="M35.0163 42.1525C35.1212 42.9711 35.3353 43.7679 35.6478 44.519L35.8401 44.9805L32.3766 46.4131L32.1843 45.9515C31.7451 44.8978 31.4479 43.7831 31.2971 42.6358L31.2338 42.1394L34.9529 41.6539L35.0163 42.1525Z" stroke="white" stroke-width="0.197915" stroke-miterlimit="10"></path> <path d="M32.7722 45.478C32.4307 44.6145 32.1839 43.7041 32.0447 42.7583L34.3386 42.4595C34.4511 43.2011 34.6438 43.9153 34.9099 44.5952L32.7722 45.478Z" fill="white" stroke="white" stroke-width="0.430249"></path> <path d="M36.8713 46.6237C37.3717 47.2747 37.9574 47.8581 38.6107 48.3589L39.0084 48.6637L36.7271 51.6289L36.3272 51.3219C35.4138 50.6209 34.5966 49.8045 33.8951 48.8966L33.5892 48.4982L36.5632 46.2253L36.8692 46.6215L36.8713 46.6237Z" stroke="white" stroke-width="0.197915" stroke-miterlimit="10"></path> <path d="M36.5973 50.6221C35.8581 50.0355 35.1883 49.3665 34.6012 48.6299L36.4362 47.2285C36.9003 47.8051 37.4249 48.3291 38.0035 48.792L36.5973 50.6221Z" fill="white" stroke="white" stroke-width="0.430249"></path> <path d="M40.7221 49.5825C41.476 49.896 42.2757 50.1094 43.0996 50.216L43.5978 50.2813L43.1105 53.9868L42.6123 53.9215C41.4629 53.7713 40.3419 53.473 39.2843 53.0332L38.821 52.8416L40.2588 49.3909L40.7243 49.5847L40.7221 49.5825Z" stroke="white" stroke-width="0.197915" stroke-miterlimit="10"></path> <path d="M42.4965 53.1836C41.5453 53.0432 40.6298 52.7966 39.7601 52.4541L40.6478 50.3252C41.3312 50.5925 42.0507 50.7861 42.7963 50.8984L42.4965 53.1836Z" fill="white" stroke="white" stroke-width="0.430249"></path> <path d="M49.8208 52.8392L49.3575 53.0308C48.2999 53.4706 47.1789 53.7688 46.0295 53.9191L45.5313 53.9844L45.044 50.2789L45.5423 50.2136C46.3639 50.1069 47.1636 49.8936 47.9197 49.5801L48.3851 49.3863L49.8208 52.837L49.8208 52.8392Z" stroke="white" stroke-width="0.197915" stroke-miterlimit="10"></path> <path d="M45.8507 50.894C46.5955 50.7813 47.3141 50.5873 47.9962 50.3218L48.882 52.4497C48.015 52.7917 47.1005 53.0378 46.1505 53.1782L45.8507 50.894Z" fill="white" stroke="white" stroke-width="0.430249"></path> <path d="M55.0477 48.4982L54.7418 48.8966C54.0425 49.8067 53.2231 50.6231 52.3097 51.3219L51.9098 51.6289L49.6285 48.6637L50.0262 48.3589C50.6796 47.8581 51.2652 47.2747 51.7634 46.6237L52.0694 46.2253L55.0455 48.4982L55.0477 48.4982Z" stroke="white" stroke-width="0.197915" stroke-miterlimit="10"></path> <path d="M50.6377 48.792C51.2151 48.329 51.7414 47.8046 52.2061 47.2275L54.04 48.6299C53.453 49.3665 52.7831 50.0355 52.0439 50.6221L50.6377 48.792Z" fill="white" stroke="white" stroke-width="0.430249"></path> <path d="M57.4032 42.1416L57.3398 42.638C57.1912 43.7831 56.894 44.8978 56.4548 45.9515L56.2625 46.4131L52.7991 44.9805L52.9914 44.519C53.3038 43.7657 53.518 42.9711 53.6229 42.1525L53.6862 41.6539L57.4032 42.1394L57.4032 42.1416Z" stroke="white" stroke-width="0.197915" stroke-miterlimit="10"></path> <path d="M53.7327 44.5918C53.9984 43.9124 54.1896 43.1984 54.302 42.459L56.5959 42.7578C56.457 43.7038 56.212 44.6142 55.8694 45.4756L53.7327 44.5918Z" fill="white" stroke="white" stroke-width="0.430249"></path> <path d="M296.966 35.8993C297.371 35.8993 297.751 36.0561 298.035 36.3391C298.247 36.5503 298.389 36.8159 298.443 37.1033C298.505 37.3972 298.649 37.6628 298.861 37.874L299.746 38.7557C299.993 38.6686 300.253 38.6251 300.517 38.6251C300.782 38.6251 301.05 38.6708 301.302 38.7601L302.191 37.874C302.401 37.665 302.545 37.3994 302.606 37.1076C302.608 37.0946 302.611 37.0793 302.615 37.0663L302.615 37.0554L302.621 37.0314C302.689 36.7658 302.82 36.5329 303.015 36.3391C303.299 36.0561 303.679 35.8993 304.083 35.8993C304.488 35.8993 304.866 36.0561 305.152 36.3391C305.438 36.6243 305.595 37.0031 305.593 37.4059C305.593 37.8087 305.436 38.1853 305.152 38.4683C304.942 38.6795 304.678 38.8189 304.385 38.8755C304.09 38.9364 303.823 39.0801 303.611 39.2891L302.713 40.1839C302.884 40.6781 302.884 41.2115 302.709 41.7057L303.611 42.6049C303.819 42.8117 304.083 42.9554 304.376 43.0185C304.396 43.0229 304.413 43.0251 304.424 43.0294L304.433 43.0294L304.455 43.036C304.721 43.1013 304.955 43.2341 305.152 43.4278C305.742 44.0157 305.742 44.9714 305.152 45.5571C304.866 45.8423 304.488 45.9968 304.083 45.9968C303.679 45.9968 303.299 45.8401 303.015 45.5571C302.803 45.3459 302.663 45.0825 302.606 44.7951C302.545 44.5012 302.401 44.2334 302.189 44.0244L301.284 43.123C301.037 43.2079 300.777 43.2537 300.515 43.2537C300.253 43.2537 300.001 43.2101 299.759 43.1274L298.861 44.0222C298.651 44.2312 298.509 44.4946 298.446 44.7864C298.443 44.8038 298.439 44.819 298.437 44.8277L298.437 44.8408L298.428 44.8647C298.363 45.1282 298.229 45.3611 298.035 45.5571C297.749 45.8423 297.368 45.999 296.966 45.999C296.564 45.999 296.182 45.8423 295.898 45.5592C295.308 44.9714 295.308 44.0157 295.898 43.43C296.11 43.2188 296.374 43.0795 296.665 43.0229C296.96 42.9619 297.226 42.8182 297.438 42.6071L298.328 41.721C298.146 41.2202 298.144 40.6738 298.323 40.1709L297.44 39.2891C297.231 39.0823 296.966 38.9386 296.676 38.8755C296.656 38.8711 296.638 38.8689 296.628 38.8646L296.619 38.8646L296.597 38.8581C296.33 38.7927 296.097 38.6599 295.902 38.4662C295.618 38.1831 295.461 37.8043 295.461 37.4037C295.461 37.001 295.618 36.6221 295.904 36.3369C296.188 36.0539 296.569 35.8972 296.973 35.8972L296.966 35.8993Z" stroke="white" stroke-width="0.197915" stroke-miterlimit="10"></path> <path d="M297.526 45.0557C297.218 45.3632 296.714 45.365 296.402 45.0547C296.092 44.7453 296.095 44.2437 296.402 43.9375C296.516 43.8243 296.654 43.7544 296.799 43.7275L296.804 43.7266C297.233 43.6376 297.627 43.4282 297.942 43.1152L299.075 41.9853L299.192 41.8691L299.11 41.7266C298.837 41.2432 298.835 40.6523 299.105 40.167L299.184 40.0254L299.068 39.9102L297.942 38.7871C297.629 38.4735 297.233 38.2646 296.804 38.1758L296.782 38.1709L296.776 38.1709C296.775 38.1706 296.774 38.1702 296.773 38.1699C296.77 38.1693 296.766 38.1697 296.763 38.1689C296.662 38.143 296.569 38.099 296.484 38.0352L296.402 37.9639C296.096 37.6581 296.095 37.1589 296.405 36.8496C296.717 36.5395 297.219 36.5411 297.528 36.8496L297.529 36.8496C297.644 36.9658 297.713 37.1012 297.739 37.2432L297.74 37.248L297.779 37.4072C297.884 37.7734 298.08 38.1081 298.355 38.3818L299.482 39.5049L299.596 39.6191L299.737 39.541C300.225 39.2722 300.819 39.2743 301.305 39.5469L301.446 39.627L301.562 39.5117L302.696 38.3818C303.006 38.0728 303.216 37.681 303.306 37.2568C303.306 37.2564 303.312 37.2349 303.317 37.21C303.351 37.0759 303.417 36.9538 303.522 36.8496C303.829 36.5429 304.335 36.5398 304.646 36.8496C304.956 37.1589 304.953 37.6597 304.646 37.9658C304.532 38.0791 304.394 38.1498 304.249 38.1768L304.245 38.1777C303.815 38.2645 303.418 38.4765 303.107 38.7871L301.966 39.9238L301.853 40.0371L301.929 40.1777C302.189 40.6604 302.189 41.24 301.924 41.7168L301.845 41.8594L301.96 41.9746L303.108 43.1172C303.42 43.4302 303.813 43.6397 304.244 43.7285L304.266 43.7324L304.27 43.7324C304.271 43.7328 304.273 43.733 304.275 43.7334C304.278 43.7342 304.283 43.7354 304.287 43.7363C304.42 43.7688 304.541 43.8337 304.646 43.9375C304.955 44.2455 304.956 44.745 304.646 45.0547C304.335 45.3642 303.833 45.3635 303.524 45.0566L303.524 45.0557C303.408 44.9389 303.337 44.8031 303.311 44.6602L303.31 44.6562C303.221 44.2292 303.011 43.8346 302.696 43.5234L302.696 43.5225L301.549 42.3789L301.435 42.2656L301.294 42.3428C300.811 42.6063 300.228 42.608 299.746 42.3486L299.606 42.2734L299.492 42.3857L298.352 43.5225L298.353 43.5234C298.038 43.8345 297.828 44.2263 297.738 44.6562L297.736 44.665L297.735 44.6728C297.736 44.6712 297.736 44.6709 297.734 44.6787C297.734 44.682 297.733 44.6875 297.732 44.6943C297.697 44.8285 297.63 44.9504 297.526 45.0547L297.526 45.0557Z" fill="white" stroke="white" stroke-width="0.430249"></path> <path d="M312.649 35.9247C313.09 36.9763 313.39 38.0909 313.541 39.2339L313.606 39.7303L309.889 40.2158L309.824 39.7194C309.714 38.9008 309.5 38.1062 309.185 37.3573L308.991 36.8935L312.457 35.461L312.649 35.9225L312.649 35.9247Z" stroke="white" stroke-width="0.197915" stroke-miterlimit="10"></path> <path d="M310.502 39.4175C310.388 38.6775 310.194 37.9631 309.927 37.2847L312.068 36.4009C312.411 37.2626 312.658 38.1732 312.799 39.1177L310.502 39.4175Z" fill="white" stroke="white" stroke-width="0.430249"></path> <path d="M308.503 30.5671C309.414 31.2638 310.232 32.078 310.933 32.9859L311.241 33.3843L308.265 35.6572L307.959 35.261C307.459 34.6122 306.873 34.0309 306.222 33.5324L305.824 33.2276L308.106 30.2623L308.505 30.5671L308.503 30.5671Z" stroke="white" stroke-width="0.197915" stroke-miterlimit="10"></path> <path d="M308.395 34.6567C307.931 34.0818 307.406 33.5593 306.829 33.0981L308.237 31.2681C308.974 31.8527 309.643 32.5199 310.232 33.2544L308.395 34.6567Z" fill="white" stroke="white" stroke-width="0.430249"></path> <path d="M302.229 27.9806C303.377 28.1286 304.493 28.4269 305.551 28.8645L306.014 29.0561L304.578 32.5068L304.113 32.3152C303.359 32.0039 302.561 31.7906 301.742 31.6839L301.244 31.6186L301.731 27.9131L302.229 27.9784L302.229 27.9806Z" stroke="white" stroke-width="0.197915" stroke-miterlimit="10"></path> <path d="M304.188 31.5771C303.507 31.3118 302.79 31.1204 302.049 31.0068L302.349 28.7207C303.297 28.8609 304.209 29.1057 305.074 29.4473L304.188 31.5771Z" fill="white" stroke="white" stroke-width="0.430249"></path> <path d="M299.806 31.6186L299.308 31.6839C298.488 31.7906 297.693 32.0017 296.937 32.3152L296.471 32.5068L295.036 29.0561L295.499 28.8645C296.555 28.4269 297.673 28.1286 298.821 27.9806L299.319 27.9153L299.806 31.6207L299.806 31.6186Z" stroke="white" stroke-width="0.197915" stroke-miterlimit="10"></path> <path d="M295.975 29.4463C296.841 29.106 297.753 28.8613 298.701 28.7227L299.001 31.0098C298.259 31.122 297.543 31.3135 296.862 31.5771L295.975 29.4463Z" fill="white" stroke="white" stroke-width="0.430249"></path> <path d="M295.225 33.2266L294.828 33.5314C294.176 34.0299 293.591 34.6112 293.088 35.26L292.782 35.6562L289.808 33.3833L290.116 32.9849C290.818 32.0771 291.635 31.265 292.548 30.5661L292.948 30.2613L295.23 33.2266L295.225 33.2266Z" stroke="white" stroke-width="0.197915" stroke-miterlimit="10"></path> <path d="M290.819 33.2515C291.407 32.5171 292.077 31.8514 292.815 31.2651L294.221 33.0952C293.644 33.5562 293.118 34.0788 292.654 34.6538L290.819 33.2515Z" fill="white" stroke="white" stroke-width="0.430249"></path> <path d="M292.057 36.8935L291.863 37.3573C291.548 38.1084 291.334 38.903 291.225 39.7194L291.159 40.2158L287.44 39.7303L287.506 39.2339C287.657 38.0888 287.958 36.9741 288.4 35.9225L288.592 35.461L292.055 36.8935L292.057 36.8935Z" stroke="white" stroke-width="0.197915" stroke-miterlimit="10"></path> <path d="M288.249 39.1162C288.391 38.1716 288.638 37.2611 288.981 36.3994L291.121 37.2822C290.853 37.9611 290.659 38.6756 290.545 39.416L288.249 39.1162Z" fill="white" stroke="white" stroke-width="0.430249"></path> <path d="M291.221 42.1525C291.326 42.9711 291.54 43.7679 291.852 44.519L292.045 44.9805L288.581 46.4131L288.389 45.9515C287.95 44.8978 287.652 43.7831 287.502 42.6358L287.438 42.1394L291.157 41.6539L291.221 42.1525Z" stroke="white" stroke-width="0.197915" stroke-miterlimit="10"></path> <path d="M288.977 45.478C288.635 44.6145 288.388 43.7041 288.249 42.7583L290.543 42.4595C290.656 43.2011 290.848 43.9153 291.114 44.5952L288.977 45.478Z" fill="white" stroke="white" stroke-width="0.430249"></path> <path d="M293.076 46.6237C293.576 47.2747 294.162 47.8581 294.815 48.3589L295.213 48.6637L292.932 51.6289L292.532 51.3219C291.618 50.6209 290.801 49.8045 290.1 48.8966L289.794 48.4982L292.768 46.2253L293.074 46.6215L293.076 46.6237Z" stroke="white" stroke-width="0.197915" stroke-miterlimit="10"></path> <path d="M292.802 50.6221C292.063 50.0355 291.393 49.3665 290.806 48.6299L292.641 47.2285C293.105 47.8051 293.63 48.3291 294.208 48.792L292.802 50.6221Z" fill="white" stroke="white" stroke-width="0.430249"></path> <path d="M296.927 49.5825C297.68 49.896 298.48 50.1094 299.304 50.216L299.802 50.2813L299.315 53.9868L298.817 53.9215C297.667 53.7713 296.546 53.473 295.489 53.0332L295.025 52.8416L296.463 49.3909L296.929 49.5847L296.927 49.5825Z" stroke="white" stroke-width="0.197915" stroke-miterlimit="10"></path> <path d="M298.701 53.1836C297.75 53.0432 296.834 52.7966 295.965 52.4541L296.852 50.3252C297.536 50.5925 298.255 50.7861 299.001 50.8984L298.701 53.1836Z" fill="white" stroke="white" stroke-width="0.430249"></path> <path d="M306.025 52.8392L305.562 53.0308C304.504 53.4706 303.383 53.7688 302.234 53.9191L301.736 53.9844L301.249 50.2789L301.747 50.2136C302.568 50.1069 303.368 49.8936 304.124 49.5801L304.59 49.3863L306.025 52.837L306.025 52.8392Z" stroke="white" stroke-width="0.197915" stroke-miterlimit="10"></path> <path d="M302.055 50.894C302.8 50.7813 303.519 50.5873 304.201 50.3218L305.087 52.4497C304.22 52.7917 303.305 53.0378 302.355 53.1782L302.055 50.894Z" fill="white" stroke="white" stroke-width="0.430249"></path> <path d="M311.252 48.4982L310.946 48.8966C310.247 49.8067 309.428 50.6231 308.514 51.3219L308.114 51.6289L305.833 48.6637L306.231 48.3589C306.884 47.8581 307.47 47.2747 307.968 46.6237L308.274 46.2253L311.25 48.4982L311.252 48.4982Z" stroke="white" stroke-width="0.197915" stroke-miterlimit="10"></path> <path d="M306.842 48.792C307.42 48.329 307.946 47.8046 308.411 47.2275L310.245 48.6299C309.658 49.3665 308.988 50.0355 308.249 50.6221L306.842 48.792Z" fill="white" stroke="white" stroke-width="0.430249"></path> <path d="M313.608 42.1416L313.544 42.638C313.396 43.7831 313.099 44.8978 312.659 45.9515L312.467 46.4131L309.004 44.9805L309.196 44.519C309.508 43.7657 309.722 42.9711 309.827 42.1525L309.891 41.6539L313.608 42.1394L313.608 42.1416Z" stroke="white" stroke-width="0.197915" stroke-miterlimit="10"></path> <path d="M309.937 44.5918C310.203 43.9124 310.394 43.1984 310.507 42.459L312.801 42.7578C312.662 43.7038 312.417 44.6142 312.074 45.4756L309.937 44.5918Z" fill="white" stroke="white" stroke-width="0.430249"></path> <defs> <filter id="filter0_d_14_22840" x="3.14713e-05" y="-7.82013e-05" width="363.496" height="101.142" filterUnits="userSpaceOnUse" color-interpolation-filters="sRGB"> <feFlood flood-opacity="0" result="BackgroundImageFix"></feFlood> <feColorMatrix in="SourceAlpha" type="matrix" values="0 0 0 0 0 0 0 0 0 0 0 0 0 0 0 0 0 0 127 0" result="hardAlpha"></feColorMatrix> <feOffset dx="9.565" dy="8.88179"></feOffset> <feGaussianBlur stdDeviation="14.0125"></feGaussianBlur> <feComposite in2="hardAlpha" operator="out"></feComposite> <feColorMatrix type="matrix" values="0 0 0 0 0 0 0 0 0 0 0 0 0 0 0 0 0 0 0.35 0"></feColorMatrix> <feBlend mode="normal" in2="BackgroundImageFix" result="effect1_dropShadow_14_22840"></feBlend> <feBlend mode="normal" in="SourceGraphic" in2="effect1_dropShadow_14_22840" result="shape"></feBlend> </filter> </defs> </svg>