<svg width="140" height="72" viewBox="0 0 140 72" fill="none" xmlns="http://www.w3.org/2000/svg">
<path d="M139.743 10.5405V7.73767C135.734 7.73767 132.482 4.48618 132.482 0.4767H105.808C105.772 1.36069 105.042 2.06713 104.149 2.06713C103.255 2.06713 102.526 1.36069 102.49 0.4767H7.57964C7.57964 4.48618 4.32814 7.73767 0.318665 7.73767V10.5405C2.01983 10.5405 3.39832 11.919 3.39832 13.6201C3.39832 15.3213 2.01983 16.6998 0.318665 16.6998V19.4014C2.01983 19.4014 3.39832 20.7799 3.39832 22.4811C3.39832 24.1823 2.01983 25.5607 0.318665 25.5607V28.2624C2.01983 28.2624 3.39832 29.6409 3.39832 31.342C3.39832 33.0432 2.01983 34.4217 0.318665 34.4217V37.1233C2.01983 37.1233 3.39832 38.5018 3.39832 40.203C3.39832 41.9041 2.01983 43.2826 0.318665 43.2826V45.9843C2.01983 45.9843 3.39832 47.3628 3.39832 49.0639C3.39832 50.7651 2.01983 52.1436 0.318665 52.1436V54.8452C2.01983 54.8452 3.39832 56.2237 3.39832 57.9249C3.39832 59.626 2.01983 61.0045 0.318665 61.0045V63.8073C4.32814 63.8073 7.57964 67.0569 7.57964 71.0683H102.492C102.528 70.1824 103.257 69.476 104.151 69.476C105.044 69.476 105.774 70.1824 105.81 71.0683H132.484C132.484 67.0588 135.736 63.8073 139.745 63.8073V61.0045C138.044 61.0045 136.666 59.626 136.666 57.9249C136.666 56.2237 138.044 54.8452 139.745 54.8452V52.1436C138.044 52.1436 136.666 50.7651 136.666 49.0639C136.666 47.3628 138.044 45.9843 139.745 45.9843V43.2826C138.044 43.2826 136.666 41.9041 136.666 40.203C136.666 38.5018 138.044 37.1233 139.745 37.1233V34.4217C138.044 34.4217 136.666 33.0432 136.666 31.342C136.666 29.6409 138.044 28.2624 139.745 28.2624V25.5607C138.044 25.5607 136.666 24.1823 136.666 22.4811C136.666 20.7799 138.044 19.4014 139.745 19.4014V16.6998C138.044 16.6998 136.666 15.3213 136.666 13.6201C136.666 11.919 138.044 10.5405 139.745 10.5405M104.149 66.9004C103.232 66.9004 102.488 66.1577 102.488 65.2393C102.488 64.3209 103.23 63.5782 104.149 63.5782C105.067 63.5782 105.81 64.3209 105.81 65.2393C105.81 66.1577 105.067 66.9004 104.149 66.9004ZM104.149 61.0064C103.232 61.0064 102.488 60.2637 102.488 59.3454C102.488 58.427 103.23 57.6843 104.149 57.6843C105.067 57.6843 105.81 58.427 105.81 59.3454C105.81 60.2637 105.067 61.0064 104.149 61.0064ZM104.149 55.1125C103.232 55.1125 102.488 54.3698 102.488 53.4514C102.488 52.5331 103.23 51.7904 104.149 51.7904C105.067 51.7904 105.81 52.5331 105.81 53.4514C105.81 54.3698 105.067 55.1125 104.149 55.1125ZM104.149 49.2205C103.232 49.2205 102.488 48.4778 102.488 47.5594C102.488 46.641 103.23 45.8983 104.149 45.8983C105.067 45.8983 105.81 46.641 105.81 47.5594C105.81 48.4778 105.067 49.2205 104.149 49.2205ZM104.149 43.3265C103.232 43.3265 102.488 42.5838 102.488 41.6655C102.488 40.7471 103.23 40.0044 104.149 40.0044C105.067 40.0044 105.81 40.7471 105.81 41.6655C105.81 42.5838 105.067 43.3265 104.149 43.3265ZM104.149 37.4326C103.232 37.4326 102.488 36.6899 102.488 35.7715C102.488 34.8532 103.23 34.1105 104.149 34.1105C105.067 34.1105 105.81 34.8532 105.81 35.7715C105.81 36.6899 105.067 37.4326 104.149 37.4326ZM104.149 31.5387C103.232 31.5387 102.488 30.796 102.488 29.8776C102.488 28.9593 103.23 28.2165 104.149 28.2165C105.067 28.2165 105.81 28.9593 105.81 29.8776C105.81 30.796 105.067 31.5387 104.149 31.5387ZM104.149 25.6448C103.232 25.6448 102.488 24.9021 102.488 23.9837C102.488 23.0653 103.23 22.3226 104.149 22.3226C105.067 22.3226 105.81 23.0653 105.81 23.9837C105.81 24.9021 105.067 25.6448 104.149 25.6448ZM104.149 19.7508C103.232 19.7508 102.488 19.0081 102.488 18.0898C102.488 17.1714 103.23 16.4287 104.149 16.4287C105.067 16.4287 105.81 17.1714 105.81 18.0898C105.81 19.0081 105.067 19.7508 104.149 19.7508ZM104.149 13.8569C103.232 13.8569 102.488 13.1142 102.488 12.1958C102.488 11.2775 103.23 10.5348 104.149 10.5348C105.067 10.5348 105.81 11.2775 105.81 12.1958C105.81 13.1142 105.067 13.8569 104.149 13.8569ZM104.149 7.96297C103.232 7.96297 102.488 7.22026 102.488 6.3019C102.488 5.38354 103.23 4.64083 104.149 4.64083C105.067 4.64083 105.81 5.38354 105.81 6.3019C105.81 7.22026 105.067 7.96297 104.149 7.96297Z" fill="#131313"/>
<path d="M139.743 10.5405V7.73767C135.734 7.73767 132.482 4.48618 132.482 0.4767H105.808C105.772 1.36069 105.042 2.06713 104.149 2.06713C103.255 2.06713 102.526 1.36069 102.49 0.4767H7.57964C7.57964 4.48618 4.32814 7.73767 0.318665 7.73767V10.5405C2.01983 10.5405 3.39832 11.919 3.39832 13.6201C3.39832 15.3213 2.01983 16.6998 0.318665 16.6998V19.4014C2.01983 19.4014 3.39832 20.7799 3.39832 22.4811C3.39832 24.1823 2.01983 25.5607 0.318665 25.5607V28.2624C2.01983 28.2624 3.39832 29.6409 3.39832 31.342C3.39832 33.0432 2.01983 34.4217 0.318665 34.4217V37.1233C2.01983 37.1233 3.39832 38.5018 3.39832 40.203C3.39832 41.9041 2.01983 43.2826 0.318665 43.2826V45.9843C2.01983 45.9843 3.39832 47.3628 3.39832 49.0639C3.39832 50.7651 2.01983 52.1436 0.318665 52.1436V54.8452C2.01983 54.8452 3.39832 56.2237 3.39832 57.9249C3.39832 59.626 2.01983 61.0045 0.318665 61.0045V63.8073C4.32814 63.8073 7.57964 67.0569 7.57964 71.0683H102.492C102.528 70.1824 103.257 69.476 104.151 69.476C105.044 69.476 105.774 70.1824 105.81 71.0683H132.484C132.484 67.0588 135.736 63.8073 139.745 63.8073V61.0045C138.044 61.0045 136.666 59.626 136.666 57.9249C136.666 56.2237 138.044 54.8452 139.745 54.8452V52.1436C138.044 52.1436 136.666 50.7651 136.666 49.0639C136.666 47.3628 138.044 45.9843 139.745 45.9843V43.2826C138.044 43.2826 136.666 41.9041 136.666 40.203C136.666 38.5018 138.044 37.1233 139.745 37.1233V34.4217C138.044 34.4217 136.666 33.0432 136.666 31.342C136.666 29.6409 138.044 28.2624 139.745 28.2624V25.5607C138.044 25.5607 136.666 24.1823 136.666 22.4811C136.666 20.7799 138.044 19.4014 139.745 19.4014V16.6998C138.044 16.6998 136.666 15.3213 136.666 13.6201C136.666 11.919 138.044 10.5405 139.745 10.5405M104.149 66.9004C103.232 66.9004 102.488 66.1577 102.488 65.2393C102.488 64.3209 103.23 63.5782 104.149 63.5782C105.067 63.5782 105.81 64.3209 105.81 65.2393C105.81 66.1577 105.067 66.9004 104.149 66.9004ZM104.149 61.0064C103.232 61.0064 102.488 60.2637 102.488 59.3454C102.488 58.427 103.23 57.6843 104.149 57.6843C105.067 57.6843 105.81 58.427 105.81 59.3454C105.81 60.2637 105.067 61.0064 104.149 61.0064ZM104.149 55.1125C103.232 55.1125 102.488 54.3698 102.488 53.4514C102.488 52.5331 103.23 51.7904 104.149 51.7904C105.067 51.7904 105.81 52.5331 105.81 53.4514C105.81 54.3698 105.067 55.1125 104.149 55.1125ZM104.149 49.2205C103.232 49.2205 102.488 48.4778 102.488 47.5594C102.488 46.641 103.23 45.8983 104.149 45.8983C105.067 45.8983 105.81 46.641 105.81 47.5594C105.81 48.4778 105.067 49.2205 104.149 49.2205ZM104.149 43.3265C103.232 43.3265 102.488 42.5838 102.488 41.6655C102.488 40.7471 103.23 40.0044 104.149 40.0044C105.067 40.0044 105.81 40.7471 105.81 41.6655C105.81 42.5838 105.067 43.3265 104.149 43.3265ZM104.149 37.4326C103.232 37.4326 102.488 36.6899 102.488 35.7715C102.488 34.8532 103.23 34.1105 104.149 34.1105C105.067 34.1105 105.81 34.8532 105.81 35.7715C105.81 36.6899 105.067 37.4326 104.149 37.4326ZM104.149 31.5387C103.232 31.5387 102.488 30.796 102.488 29.8776C102.488 28.9593 103.23 28.2165 104.149 28.2165C105.067 28.2165 105.81 28.9593 105.81 29.8776C105.81 30.796 105.067 31.5387 104.149 31.5387ZM104.149 25.6448C103.232 25.6448 102.488 24.9021 102.488 23.9837C102.488 23.0653 103.23 22.3226 104.149 22.3226C105.067 22.3226 105.81 23.0653 105.81 23.9837C105.81 24.9021 105.067 25.6448 104.149 25.6448ZM104.149 19.7508C103.232 19.7508 102.488 19.0081 102.488 18.0898C102.488 17.1714 103.23 16.4287 104.149 16.4287C105.067 16.4287 105.81 17.1714 105.81 18.0898C105.81 19.0081 105.067 19.7508 104.149 19.7508ZM104.149 13.8569C103.232 13.8569 102.488 13.1142 102.488 12.1958C102.488 11.2775 103.23 10.5348 104.149 10.5348C105.067 10.5348 105.81 11.2775 105.81 12.1958C105.81 13.1142 105.067 13.8569 104.149 13.8569ZM104.149 7.96297C103.232 7.96297 102.488 7.22026 102.488 6.3019C102.488 5.38354 103.23 4.64083 104.149 4.64083C105.067 4.64083 105.81 5.38354 105.81 6.3019C105.81 7.22026 105.067 7.96297 104.149 7.96297Z" fill="#1A1A1A"/>
<path d="M139.744 10.5405V7.73767C135.734 7.73767 132.483 4.48809 132.483 0.4767H105.808C105.772 1.3626 105.043 2.06903 104.149 2.06903V4.64274C105.066 4.64274 105.81 5.38544 105.81 6.30381C105.81 7.22217 105.068 7.96487 104.149 7.96487V10.5386C105.066 10.5386 105.81 11.2813 105.81 12.1996C105.81 13.118 105.068 13.8607 104.149 13.8607V16.4344C105.066 16.4344 105.81 17.1771 105.81 18.0955C105.81 19.0138 105.068 19.7566 104.149 19.7566V22.3303C105.066 22.3303 105.81 23.073 105.81 23.9913C105.81 24.9097 105.068 25.6524 104.149 25.6524V28.2261C105.066 28.2261 105.81 28.9688 105.81 29.8872C105.81 30.8055 105.068 31.5482 104.149 31.5482V34.1219C105.066 34.1219 105.81 34.8646 105.81 35.783C105.81 36.7014 105.068 37.4441 104.149 37.4441V40.0178C105.066 40.0178 105.81 40.7605 105.81 41.6788C105.81 42.5972 105.068 43.3399 104.149 43.3399V45.9136C105.066 45.9136 105.81 46.6563 105.81 47.5747C105.81 48.493 105.068 49.2358 104.149 49.2358V51.8095C105.066 51.8095 105.81 52.5522 105.81 53.4705C105.81 54.3889 105.068 55.1316 104.149 55.1316V57.7053C105.066 57.7053 105.81 58.448 105.81 59.3664C105.81 60.2847 105.068 61.0274 104.149 61.0274V63.6011C105.066 63.6011 105.81 64.3438 105.81 65.2622C105.81 66.1806 105.068 66.9233 104.149 66.9233V69.497C105.043 69.497 105.772 70.2034 105.808 71.0893H132.483C132.483 67.0798 135.734 63.8283 139.744 63.8283V61.0255C138.043 61.0255 136.664 59.647 136.664 57.9459C136.664 56.2447 138.043 54.8662 139.744 54.8662V52.1646C138.043 52.1646 136.664 50.7861 136.664 49.0849C136.664 47.3838 138.043 46.0053 139.744 46.0053V43.3036C138.043 43.3036 136.664 41.9251 136.664 40.224C136.664 38.5228 138.043 37.1443 139.744 37.1443V34.4427C138.043 34.4427 136.664 33.0642 136.664 31.363C136.664 29.6619 138.043 28.2834 139.744 28.2834V25.5817C138.043 25.5817 136.664 24.2033 136.664 22.5021C136.664 20.8009 138.043 19.4224 139.744 19.4224V16.7208C138.043 16.7208 136.664 15.3423 136.664 13.6411C136.664 11.94 138.043 10.5615 139.744 10.5615" fill="#E5EE00"/>
<path d="M32.7956 11.1477V14.6226H27.6405V24.78H23.2492V14.6226H18.0751V11.1477H32.7956ZM45.5409 11.1477H49.9322V24.78H45.5409V19.5295L38.572 19.5486V24.78H34.1807V11.1477H38.572V16.0928H45.5409V11.1477ZM56.341 14.4126V16.341H65.2764V19.3576H56.341V21.5342H65.8682V24.78H51.9496V11.1477H65.6582V14.4126H56.341Z" fill="white"/>
<path d="M118.173 54.4128L119.821 54.4128L119.821 56.858L124.639 56.858L124.639 58.941L119.821 58.941L119.821 61.3953L118.173 61.3953L118.173 54.4128ZM124.639 51.6728L124.639 53.7558L118.173 53.7558L118.173 51.6728L124.639 51.6728ZM120.69 45.1616C120.401 45.1797 120.153 45.3216 119.948 45.5872C119.742 45.8529 119.64 46.2483 119.64 46.7736C119.64 47.1781 119.712 47.5193 119.857 47.797C119.996 48.0747 120.198 48.283 120.464 48.4219C120.724 48.5607 121.038 48.6302 121.406 48.6302C121.774 48.6302 122.091 48.5607 122.357 48.4219C122.616 48.283 122.819 48.0747 122.964 47.797C123.102 47.5193 123.172 47.1781 123.172 46.7736C123.172 46.2302 123.066 45.8348 122.855 45.5872C122.644 45.3397 122.351 45.2038 121.976 45.1797L121.976 42.6892C122.592 42.7012 123.117 42.8733 123.552 43.2054C123.981 43.5374 124.307 44.0054 124.53 44.6091C124.748 45.2129 124.856 45.9344 124.856 46.7736C124.856 47.6249 124.733 48.3615 124.485 48.9834C124.231 49.5992 123.848 50.0762 123.335 50.4143C122.816 50.7524 122.173 50.9214 121.406 50.9214C120.639 50.9214 119.999 50.7524 119.486 50.4143C118.967 50.0762 118.583 49.5992 118.336 48.9834C118.082 48.3615 117.955 47.6249 117.955 46.7736C117.955 45.9404 118.064 45.2219 118.281 44.6182C118.493 44.0144 118.804 43.5495 119.214 43.2235C119.625 42.8914 120.117 42.7194 120.69 42.7073L120.69 45.1616ZM120.455 37.0767L124.639 34.088L124.639 36.6148L121.786 38.5891L122.918 39.857L124.639 39.857L124.639 41.94L118.173 41.94L118.173 39.857L120.763 39.857L118.173 37.0676L118.173 34.5137L120.455 37.0767ZM119.721 31.5523L120.636 31.5523L120.636 27.3139L122.067 27.3139L122.067 31.5523L123.099 31.5523L123.099 27.0332L124.639 27.0332L124.639 33.6353L118.173 33.6353L118.173 27.1328L119.721 27.1328L119.721 31.5523ZM118.173 19.5226L119.821 19.5226L119.821 21.9678L124.639 21.9678L124.639 24.0508L119.821 24.0508L119.821 26.5051L118.173 26.5051L118.173 19.5226ZM120.111 14.2166C119.851 14.2408 119.667 14.3706 119.558 14.6061C119.444 14.8415 119.386 15.1736 119.386 15.6023C119.386 16.0189 119.435 16.3207 119.531 16.5079C119.622 16.6951 119.751 16.7886 119.921 16.7886C120.071 16.7886 120.183 16.7313 120.256 16.6166C120.328 16.4958 120.379 16.3056 120.41 16.046L120.672 13.791C120.751 13.0665 120.95 12.5231 121.27 12.1608C121.584 11.7925 122.049 11.6084 122.665 11.6084C123.244 11.6084 123.694 11.7623 124.014 12.0703C124.334 12.3721 124.554 12.8038 124.675 13.3653C124.796 13.9268 124.856 14.6423 124.856 15.5117C124.856 16.3388 124.79 17.0241 124.657 17.5675C124.53 18.1109 124.295 18.5365 123.951 18.8445C123.6 19.1524 123.111 19.3184 122.484 19.3426L122.484 16.9517C122.84 16.9275 123.081 16.7917 123.208 16.5441C123.329 16.2905 123.389 15.9192 123.389 15.4302C123.389 14.9653 123.341 14.6242 123.244 14.4068C123.148 14.1895 123.003 14.0808 122.81 14.0808C122.628 14.0808 122.496 14.1562 122.411 14.3072C122.327 14.4521 122.266 14.6664 122.23 14.9502L121.976 16.9698C121.892 17.7003 121.699 18.2528 121.397 18.6271C121.095 18.9954 120.645 19.1795 120.047 19.1795C119.275 19.1856 118.734 18.8716 118.426 18.2377C118.112 17.5977 117.955 16.6981 117.955 15.5389C117.955 14.3857 118.115 13.4891 118.435 12.8491C118.749 12.2091 119.308 11.871 120.111 11.8348L120.111 14.2166Z" fill="#280508"/>
<path d="M28.7862 28.9624C30.0845 28.9624 31.1282 29.1342 31.9174 29.4779C32.7065 29.8088 33.2793 30.318 33.6357 31.0053C33.9921 31.6799 34.1703 32.5391 34.1703 33.5828C34.1703 34.6265 33.9857 35.4921 33.6166 36.1794C33.2602 36.854 32.6874 37.3632 31.8983 37.7068C31.1091 38.0378 30.0717 38.2033 28.7862 38.2033H23.0965V42.5946H18.7052V28.9624H28.7862ZM27.717 35.1102C28.2897 35.1102 28.7034 34.9957 28.958 34.7666C29.2126 34.5374 29.3398 34.1874 29.3398 33.7165C29.3398 33.2455 29.2126 32.8955 28.958 32.6664C28.7034 32.4372 28.2897 32.3227 27.717 32.3227H23.0965V35.1102H27.717ZM48.3913 37.4205L51.6752 42.5946H46.6729L44.0572 38.2033H39.9332V42.5946H35.5419V28.9624H45.9474C47.8439 28.9624 49.2123 29.3379 50.0523 30.0888C50.8924 30.8271 51.3125 31.9472 51.3125 33.4492C51.3125 34.5947 51.0579 35.4603 50.5488 36.0458C50.0523 36.6186 49.3332 37.0259 48.3913 37.2677V37.4205ZM44.8973 35.0911C45.4319 35.0911 45.8201 34.9829 46.062 34.7666C46.3038 34.5502 46.4247 34.2192 46.4247 33.7737C46.4247 33.3282 46.3038 32.9973 46.062 32.7809C45.8201 32.5645 45.4319 32.4563 44.8973 32.4563H39.9332V35.0911H44.8973ZM57.3106 42.5946H52.9192V28.9624H57.3106V42.5946ZM74.1496 32.4372L66.1116 38.967H74.1496V42.5946H58.8754V39.1197L66.9135 32.59H59.3146V28.9624H74.1496V32.4372ZM80.2815 32.2272V34.1556H89.2169V37.1722H80.2815V39.3488H89.8088V42.5946H75.8902V28.9624H89.5988V32.2272H80.2815Z" fill="white"/>
<path d="M18.7052 60.1017V56.0923H23.402V60.1017H18.7052ZM29.8088 60.1017H25.4175V46.4695H29.8088V60.1017ZM40.3664 46.0113C42.2247 46.0113 43.8221 46.2786 45.1586 46.8132C46.4951 47.3351 47.5198 48.137 48.2326 49.2189C48.9581 50.3008 49.3209 51.6564 49.3209 53.2856C49.3209 54.9149 48.9581 56.2705 48.2326 57.3524C47.5198 58.4343 46.4951 59.2426 45.1586 59.7772C43.8221 60.299 42.2247 60.56 40.3664 60.56C38.4953 60.56 36.8915 60.299 35.555 59.7772C34.2185 59.2426 33.1875 58.4343 32.462 57.3524C31.7492 56.2705 31.3928 54.9149 31.3928 53.2856C31.3928 51.6564 31.7492 50.3008 32.462 49.2189C33.1875 48.137 34.2185 47.3351 35.555 46.8132C36.8915 46.2786 38.4953 46.0113 40.3664 46.0113ZM40.3664 57.0087C41.741 57.0087 42.772 56.6841 43.4594 56.035C44.1594 55.3858 44.5095 54.4694 44.5095 53.2856C44.5095 52.1019 44.1594 51.1854 43.4594 50.5363C42.772 49.8871 41.741 49.5625 40.3664 49.5625C38.9789 49.5625 37.9416 49.8871 37.2542 50.5363C36.5669 51.1854 36.2232 52.1019 36.2232 53.2856C36.2232 54.4694 36.5669 55.3858 37.2542 56.035C37.9416 56.6841 38.9789 57.0087 40.3664 57.0087Z" fill="#E5EE00"/>
<path d="M90.0088 47.0095H53.1636V61.5639H90.0088V47.0095Z" fill="#EF008F"/>
<path d="M90.0062 11.37H69.6266V25.9244H90.0062V11.37Z" fill="#EF008F"/>
</svg>
