<svg width="202" height="20" viewBox="0 0 202 20" fill="none" xmlns="http://www.w3.org/2000/svg">
<path d="M19.341 0.602062V5.1677H12.5678V18.5134H6.79806V5.1677H-0.000234187V0.602062H19.341ZM36.0871 0.602062H41.8568V18.5134H36.0871V11.6148L26.9307 11.6399V18.5134H21.1609V0.602062H26.9307V7.09932H36.0871V0.602062ZM50.2773 4.89176V7.42544H62.0175V11.389H50.2773V14.2488H62.7952V18.5134H44.5075V0.602062H62.5192V4.89176H50.2773ZM78.3312 0.602062C80.0371 0.602062 81.4084 0.827835 82.4453 1.27938C83.4822 1.71421 84.2348 2.38316 84.7031 3.28626C85.1713 4.17263 85.4055 5.3015 85.4055 6.67286C85.4055 8.04423 85.163 9.18146 84.678 10.0845C84.2097 10.9709 83.4571 11.6399 82.4202 12.0914C81.3833 12.5262 80.0203 12.7437 78.3312 12.7437H70.8556V18.5134H65.0858V0.602062H78.3312ZM76.9264 8.67974C77.679 8.67974 78.2225 8.52922 78.557 8.22819C78.8915 7.92716 79.0587 7.46725 79.0587 6.84846C79.0587 6.22968 78.8915 5.76977 78.557 5.46874C78.2225 5.1677 77.679 5.01719 76.9264 5.01719H70.8556V8.67974H76.9264ZM104.09 11.7151L108.405 18.5134H101.833L98.3959 12.7437H92.9773V18.5134H87.2075V0.602062H100.879C103.371 0.602062 105.169 1.09542 106.273 2.08213C107.377 3.05212 107.929 4.52383 107.929 6.49726C107.929 8.00242 107.594 9.13965 106.925 9.90895C106.273 10.6615 105.328 11.1967 104.09 11.5144V11.7151ZM99.4996 8.65465C100.202 8.65465 100.712 8.5125 101.03 8.22819C101.348 7.94388 101.507 7.50906 101.507 6.92372C101.507 6.33838 101.348 5.90356 101.03 5.61925C100.712 5.33494 100.202 5.19279 99.4996 5.19279H92.9773V8.65465H99.4996ZM115.809 18.5134H110.04V0.602062H115.809V18.5134ZM137.934 5.1677L127.373 13.7471H137.934V18.5134H117.865V13.9478L128.427 5.36839H118.442V0.602062H137.934V5.1677ZM145.991 4.89176V7.42544H157.731V11.389H145.991V14.2488H158.509V18.5134H140.221V0.602062H158.233V4.89176H145.991ZM160.799 18.5134V13.2454H166.971V18.5134H160.799Z" fill="white"/>
<path d="M175.389 18.5134H169.619V0.602062H175.389V18.5134ZM189.26 -6.563e-07C191.702 -6.563e-07 193.801 0.351203 195.557 1.05361C197.313 1.73929 198.659 2.7929 199.596 4.21444C200.549 5.63598 201.025 7.41708 201.025 9.55774C201.025 11.6984 200.549 13.4795 199.596 14.9011C198.659 16.3226 197.313 17.3846 195.557 18.087C193.801 18.7726 191.702 19.1155 189.26 19.1155C186.802 19.1155 184.694 18.7726 182.938 18.087C181.182 17.3846 179.828 16.3226 178.875 14.9011C177.938 13.4795 177.47 11.6984 177.47 9.55774C177.47 7.41708 177.938 5.63598 178.875 4.21444C179.828 2.7929 181.182 1.73929 182.938 1.05361C184.694 0.351203 186.802 -6.563e-07 189.26 -6.563e-07ZM189.26 14.4495C191.066 14.4495 192.421 14.023 193.324 13.1701C194.244 12.3172 194.704 11.1131 194.704 9.55774C194.704 8.00242 194.244 6.79829 193.324 5.94537C192.421 5.09245 191.066 4.66598 189.26 4.66598C187.437 4.66598 186.074 5.09245 185.171 5.94537C184.268 6.79829 183.816 8.00242 183.816 9.55774C183.816 11.1131 184.268 12.3172 185.171 13.1701C186.074 14.023 187.437 14.4495 189.26 14.4495Z" fill="#E5EE00"/>
</svg>
