<svg width="37" height="28" viewBox="0 0 37 28" fill="none" xmlns="http://www.w3.org/2000/svg">
<path d="M18.3564 6.38658C19.9836 6.38658 21.4115 4.76687 21.4115 2.91972C21.4115 1.22834 20.1267 0.00012207 18.3564 0.00012207C16.586 0.00012207 15.3013 1.22834 15.3013 2.91972C15.3013 4.76549 16.7291 6.38658 18.3564 6.38658ZM18.3564 1.16631C19.2697 1.16631 20.1903 1.70943 20.1903 2.9211C20.1903 4.13278 19.2986 5.22315 18.3564 5.22315C17.4141 5.22315 16.5224 4.10383 16.5224 2.9211C16.5224 1.73837 17.443 1.16631 18.3564 1.16631Z" fill="#EF008F"/>
<path d="M27.2867 4.37098L27.2679 4.34893C26.5381 3.49014 25.2042 3.34678 24.2851 4.03739L20.8716 6.69509H15.8438L12.4216 4.0305C11.5097 3.34678 10.1759 3.49014 9.44459 4.35169L9.42725 4.37236C9.06741 4.79555 8.9041 5.32626 8.9648 5.868C9.02549 6.40974 9.30441 6.89496 9.74808 7.23406L15.0157 11.3116V14.9246C15.0157 14.9645 15.0099 15.0142 14.9984 15.0776C14.9969 15.0886 14.9984 15.0996 14.9969 15.1106C14.9941 15.1327 14.9897 15.1548 14.9897 15.1782V16.0632C14.9897 16.1224 15.0013 16.179 15.0201 16.2341L15.0605 25.8338C14.8568 26.6898 15.39 27.5596 16.2571 27.794C16.2658 27.7967 16.2961 27.8064 16.3048 27.8091C16.7369 27.9277 17.2312 27.8863 17.6604 27.6961C17.9191 27.5817 18.1387 27.4204 18.3049 27.226C18.6185 27.6327 19.1605 27.878 19.8021 27.878C19.9987 27.878 20.1938 27.8532 20.3845 27.8022C21.2762 27.5582 21.8066 26.6898 21.6057 25.8365L21.7054 16.6297V15.1892C21.7054 15.1437 21.6982 15.101 21.6881 15.0583C21.6982 15.0155 21.7054 14.9714 21.7054 14.9259V11.3102L26.9673 7.23682C27.4124 6.89634 27.6913 6.40974 27.752 5.868C27.8127 5.32626 27.648 4.79555 27.2881 4.37098H27.2867ZM26.5366 5.74256C26.5106 5.97415 26.3921 6.18229 26.1985 6.32979L20.7083 10.5796C20.701 10.5851 20.6952 10.5934 20.6866 10.6003C20.6707 10.6141 20.6548 10.6279 20.6403 10.6444C20.6273 10.6582 20.6158 10.672 20.6042 10.6871C20.5926 10.7023 20.5811 10.7188 20.571 10.734C20.5609 10.7505 20.5507 10.7657 20.5435 10.7836C20.5348 10.8002 20.5276 10.8181 20.5204 10.836C20.5132 10.8539 20.5074 10.8719 20.503 10.8898C20.4987 10.9077 20.4944 10.9256 20.4915 10.9435C20.4886 10.9642 20.4857 10.9835 20.4857 11.0042C20.4857 11.0138 20.4828 11.0235 20.4828 11.0331V14.9259C20.4828 14.9714 20.49 15.0142 20.5002 15.0569C20.49 15.0996 20.4828 15.1437 20.4828 15.1892V16.6228L20.3831 25.8986C20.3831 25.9537 20.3903 26.0102 20.4062 26.064C20.4843 26.3286 20.3238 26.6057 20.0507 26.6815C19.9698 26.7036 19.8874 26.7132 19.8007 26.7132C19.5882 26.7132 19.3512 26.6429 19.2703 26.5092L18.9856 17.2666C18.9755 16.9523 18.7067 16.7028 18.3786 16.7014H18.3758C18.0477 16.7014 17.7774 16.9495 17.7659 17.2611L17.4046 26.4224C17.3598 26.5078 17.2687 26.585 17.1459 26.6402C16.984 26.7119 16.789 26.7298 16.6661 26.6967C16.6574 26.6939 16.6257 26.6843 16.617 26.6815C16.341 26.6071 16.1791 26.33 16.2586 26.064C16.2745 26.0116 16.2817 25.9565 16.2817 25.9027L16.2369 16.6297V14.9273V11.1475C16.2369 11.1269 16.2326 11.1089 16.2311 11.0883C16.2499 10.9008 16.1733 10.7092 16.0086 10.581L10.5169 6.32979C10.3261 6.18367 10.2076 5.9769 10.1816 5.74532C10.1556 5.51374 10.2264 5.28767 10.3811 5.10433L10.3984 5.08365C10.7106 4.71698 11.28 4.65633 11.66 4.94029L15.1241 7.63658C15.2354 7.77167 15.4074 7.85989 15.6025 7.85989H21.097C21.11 7.85989 21.123 7.85713 21.136 7.85576C21.1461 7.85576 21.1577 7.85438 21.1678 7.853C21.1982 7.85024 21.2285 7.84473 21.2589 7.83646C21.2647 7.83508 21.2719 7.83232 21.2777 7.83095C21.3109 7.8213 21.3427 7.80889 21.373 7.79372C21.3774 7.79235 21.3803 7.78959 21.3846 7.78821C21.4178 7.77167 21.4482 7.75237 21.4771 7.73031C21.4785 7.73031 21.48 7.72894 21.4829 7.72756L25.0553 4.94718C25.4455 4.65495 26.0149 4.7156 26.3271 5.08365L26.3459 5.10571C26.4991 5.28629 26.5699 5.51373 26.5439 5.74394L26.5366 5.74256Z" fill="#EF008F"/>
<path d="M31.6028 8.86067C33.1318 8.86067 34.4729 7.34297 34.4729 5.61299C34.4729 4.02362 33.2662 2.87122 31.6028 2.87122C29.9394 2.87122 28.7327 4.02362 28.7327 5.61299C28.7327 7.34297 30.0738 8.86067 31.6028 8.86067ZM31.6028 4.03602C32.4236 4.03602 33.2517 4.524 33.2517 5.61299C33.2517 6.70198 32.4511 7.69586 31.6028 7.69586C30.7545 7.69586 29.9538 6.68406 29.9538 5.61299C29.9538 4.54192 30.7819 4.03602 31.6028 4.03602Z" fill="#EF008F"/>
<path d="M33.9172 8.95441H29.2912C27.7463 8.95441 26.4905 10.1537 26.4905 11.6259V15.9308C26.4905 16.7193 27.057 17.4072 27.8374 17.5657C27.9559 17.5891 28.0758 17.6016 28.1958 17.6016C28.3707 17.6016 28.5426 17.5685 28.7088 17.5202L28.7421 25.1501C28.6597 25.5071 28.7146 25.8751 28.9025 26.1963C29.1048 26.5451 29.4386 26.7973 29.8158 26.8993C29.8245 26.9021 29.8519 26.9104 29.8606 26.9131C30.2465 27.0179 30.6873 26.982 31.0688 26.8139C31.2624 26.7284 31.4315 26.6126 31.5703 26.4748C31.8607 26.7863 32.316 26.9752 32.8319 26.9752C33.0053 26.9752 33.1773 26.9531 33.3493 26.9076C34.1456 26.6898 34.621 25.9165 34.4476 25.1542L34.53 17.5299C34.6875 17.574 34.8494 17.6043 35.0141 17.6043C35.1326 17.6043 35.254 17.5919 35.3725 17.5685C36.1529 17.4099 36.7194 16.7221 36.7194 15.9336V11.6286C36.7194 10.1592 35.465 8.9613 33.9216 8.95717L33.9172 8.95441ZM35.4939 15.9308C35.4939 16.1693 35.3306 16.383 35.1153 16.4271C34.9447 16.4602 34.7756 16.4133 34.647 16.2948C34.582 16.2355 34.5386 16.1611 34.517 16.0797C34.5242 16.0453 34.5285 16.0108 34.5285 15.975V12.0698C34.5285 11.7486 34.2539 11.488 33.9172 11.488C33.5805 11.488 33.3074 11.7486 33.3074 12.0698V15.975C33.3074 16.0122 33.3131 16.0494 33.3204 16.0839C33.3204 16.0839 33.3204 16.0839 33.3204 16.0852C33.316 16.1073 33.3146 16.1307 33.3131 16.1542C33.3131 16.1679 33.3088 16.1817 33.3088 16.1969V17.4031L33.2235 25.2135C33.2235 25.27 33.2308 25.3251 33.2467 25.3789C33.2987 25.5526 33.1917 25.7359 33.0154 25.7842C32.8102 25.8379 32.5559 25.7869 32.4793 25.6987L32.2408 17.942C32.2307 17.6277 31.9619 17.3782 31.6338 17.3769C31.3 17.3769 31.0341 17.6236 31.0211 17.9379L30.7176 25.6298C30.6873 25.6766 30.6294 25.7207 30.5543 25.7538C30.4372 25.8048 30.2985 25.82 30.2205 25.7979C30.2118 25.7952 30.1843 25.7869 30.1757 25.7842C30.0875 25.7607 30.0138 25.7056 29.969 25.6284C29.9242 25.5512 29.9141 25.463 29.9401 25.3775C29.956 25.3251 29.9632 25.27 29.9632 25.2162L29.9257 17.4086V15.975V12.0698C29.9257 11.7486 29.6511 11.488 29.3143 11.488C28.9776 11.488 28.7045 11.7486 28.7045 12.0698V15.975C28.7045 16.008 28.6987 16.0398 28.6944 16.0701C28.6727 16.1555 28.6279 16.2327 28.56 16.2948C28.4313 16.4119 28.2623 16.4588 28.0932 16.4257C27.8764 16.3816 27.7131 16.1679 27.7131 15.9295V11.6245C27.7131 10.7933 28.4212 10.1165 29.2941 10.1165H33.9187C34.7887 10.1192 35.4968 10.7947 35.4968 11.6245V15.9295L35.4939 15.9308Z" fill="#EF008F"/>
<path d="M5.11035 8.86036C6.63934 8.86036 7.98045 7.34267 7.98045 5.61269C7.98045 4.02331 6.77374 2.87091 5.11035 2.87091C3.44695 2.87091 2.24023 4.02331 2.24023 5.61269C2.24023 7.34267 3.58136 8.86036 5.11035 8.86036ZM5.11035 4.03572C5.9312 4.03572 6.75928 4.5237 6.75928 5.61269C6.75928 6.70168 5.95866 7.69556 5.11035 7.69556C4.26203 7.69556 3.4614 6.68376 3.4614 5.61269C3.4614 4.54162 4.28949 4.03572 5.11035 4.03572Z" fill="#EF008F"/>
<path d="M7.42385 8.95465H2.79785C2.79785 8.95465 2.79785 8.95465 2.79641 8.95465C1.25441 8.95879 0 10.1567 0 11.6261V15.9311C0 16.7196 0.566508 17.4074 1.3469 17.566C1.4654 17.5894 1.58535 17.6018 1.7053 17.6018C1.87005 17.6018 2.03191 17.5715 2.18943 17.5287L2.27181 25.1531C2.09839 25.914 2.5753 26.6873 3.37592 26.9079C3.54212 26.952 3.71409 26.974 3.88751 26.974C4.40344 26.974 4.85866 26.7852 5.14914 26.4723C5.56246 26.8844 6.2388 27.0802 6.87612 26.9065C7.67386 26.6901 8.15221 25.9154 7.9759 25.1517L8.01202 17.5219C8.17677 17.5701 8.34731 17.6032 8.52073 17.6032C8.64068 17.6032 8.76062 17.5908 8.87913 17.5673C9.65952 17.4088 10.226 16.721 10.226 15.9325V11.6275C10.226 10.1539 8.96873 8.95603 7.42529 8.95603L7.42385 8.95465ZM9.00487 15.9311C9.00487 16.1696 8.84155 16.3832 8.62622 16.4273C8.45714 16.4604 8.28805 16.4136 8.15799 16.2964C8.09151 16.2344 8.04527 16.1572 8.02359 16.0717C8.01781 16.04 8.01202 16.0083 8.01202 15.9766V12.0714C8.01202 11.7502 7.74034 11.4897 7.40217 11.4897C7.064 11.4897 6.7923 11.7502 6.7923 12.0714V15.9766L6.75473 25.2192C6.75473 25.2744 6.76196 25.3281 6.77785 25.3805C6.83132 25.5583 6.72727 25.7375 6.52205 25.7941C6.32262 25.8492 6.07694 25.7513 6.00035 25.6328L5.69687 17.9409C5.68386 17.6266 5.41506 17.3812 5.08412 17.3799C4.75462 17.3799 4.48581 17.6308 4.47714 17.945L4.23869 25.7017C4.16209 25.7899 3.89474 25.8382 3.70831 25.7885C3.52622 25.7389 3.41927 25.5556 3.4713 25.3819C3.4872 25.3281 3.49443 25.273 3.49443 25.2165L3.40916 17.4116V16.1985C3.40916 16.1834 3.40627 16.1709 3.40483 16.1558C3.40338 16.1324 3.40193 16.1103 3.39759 16.0869C3.39759 16.0869 3.39759 16.0869 3.39759 16.0855C3.40482 16.0496 3.40916 16.0138 3.40916 15.9766V12.0714C3.40916 11.7502 3.13602 11.4897 2.7993 11.4897C2.46257 11.4897 2.18943 11.7502 2.18943 12.0714V15.9766C2.18943 16.0124 2.19377 16.0469 2.19955 16.0813C2.17787 16.1627 2.13452 16.2371 2.06804 16.2978C1.94086 16.4149 1.77033 16.4618 1.60125 16.4287C1.38447 16.3846 1.22117 16.171 1.22117 15.9325V11.6275C1.22117 10.799 1.9293 10.1222 2.79785 10.1195H7.42385C8.29529 10.1195 9.00487 10.7963 9.00487 11.6275V15.9325V15.9311Z" fill="#EF008F"/>
</svg>
