<svg width="48" height="41" viewBox="0 0 48 41" fill="none" xmlns="http://www.w3.org/2000/svg">
<path d="M38.4388 27.8532C38.3219 27.8474 38.205 27.8356 38.0881 27.8356C28.5775 27.8393 19.068 27.8439 9.55734 27.8495C9.42783 27.8495 9.29945 27.8614 9.20604 27.8659C9.20771 26.1907 9.20878 24.5447 9.21047 22.8369C9.43741 22.8427 9.72393 22.8604 10.0093 22.8563C11.4901 22.8348 12.5812 22.1262 12.9768 20.9344C13.4516 19.5038 12.2177 17.9288 10.4957 17.7812C10.0574 17.7434 9.61438 17.747 9.20693 17.7329C9.20744 16.0814 9.20852 14.4324 9.20908 12.701C9.28357 12.7138 9.40962 12.7542 9.53569 12.7541C19.0572 12.7529 28.5782 12.7483 38.0991 12.7427C38.216 12.7427 38.3324 12.7313 38.4487 12.7248C38.4642 12.7381 38.4791 12.7509 38.4945 12.7643C38.4865 12.855 38.4709 12.9463 38.4709 13.0371C38.4688 14.4937 38.4667 15.9503 38.4697 17.4074C38.4697 17.5081 38.5143 17.6087 38.5514 17.7631C38.195 17.7505 37.9492 17.7303 37.7045 17.7369C37.4254 17.7434 37.14 17.7465 36.8689 17.7985C35.4492 18.072 34.4456 19.1946 34.5354 20.3886C34.6365 21.7346 35.7362 22.716 37.2816 22.8263C37.665 22.8532 38.0518 22.8466 38.5378 22.8582C38.5108 22.9703 38.4666 23.0704 38.466 23.1716C38.4606 24.415 38.4597 25.6585 38.4612 26.9019C38.4616 27.2063 38.4757 27.5108 38.4835 27.8147L38.4388 27.8532ZM11.1312 16.1659C11.228 16.189 11.3512 16.2181 11.4744 16.2471C14.4756 16.9671 15.9361 19.9891 14.4091 22.3316C13.7334 23.3681 12.7237 24.0481 11.3934 24.3768C11.2788 24.4055 11.0954 24.4895 11.093 24.5526C11.0709 25.0875 11.0832 25.6234 11.0845 26.1291C19.5728 26.125 28.0348 26.1209 36.4646 26.1168C36.4667 25.5765 36.4688 25.0125 36.4714 24.4254C36.3746 24.4022 36.2514 24.3732 36.1282 24.3441C33.1275 23.6237 31.6665 20.6022 33.1935 18.2596C33.8693 17.2231 34.8783 16.5427 36.2086 16.2139C36.3232 16.1852 36.5067 16.1013 36.509 16.0381C36.5311 15.5032 36.5189 14.9674 36.5175 14.4616C28.0303 14.4667 19.5684 14.4708 11.1374 14.4749C11.1354 15.0152 11.1339 15.5787 11.1312 16.1659Z" fill="#1A1A1A"/>
<path d="M26.8574 19.496C27.4201 19.4957 28.0419 19.4959 28.6207 19.4956C28.6192 20.0049 28.6177 20.5476 28.6168 21.0475C28.0718 21.0482 27.4432 21.049 26.8598 21.0493C26.8595 20.582 26.8582 20.0398 26.858 19.4955L26.8574 19.496Z" fill="#1A1A1A"/>
<path d="M26.8214 17.7229C26.8211 17.2043 26.8209 16.661 26.8201 16.135C27.4287 16.1357 28.0614 16.1354 28.6591 16.1356C28.6599 16.6616 28.6601 17.2059 28.6609 17.721C28.0529 17.7218 27.4225 17.7221 26.8208 17.7224L26.8214 17.7229Z" fill="#1A1A1A"/>
<path d="M26.8145 22.8532C27.434 22.8534 28.0563 22.8531 28.6535 22.8528C28.6537 23.3774 28.6533 23.9221 28.6524 24.4476C28.0536 24.4484 27.4215 24.4482 26.814 24.4485C26.8138 23.9279 26.8136 23.3837 26.8134 22.8532L26.8145 22.8532Z" fill="#1A1A1A"/>
</svg>
