<svg width="53" height="56" viewBox="0 0 53 56" fill="none" xmlns="http://www.w3.org/2000/svg">
<path d="M52.8982 1.74058C52.8982 1.74058 52.8958 1.73304 52.8958 1.72802C52.8922 1.68783 52.8826 1.6489 52.8742 1.60996C52.8682 1.58108 52.8646 1.55094 52.8561 1.52331C52.8465 1.49191 52.8321 1.46177 52.8201 1.43163C52.8069 1.39897 52.7961 1.36506 52.7805 1.33492C52.7685 1.31232 52.7529 1.29222 52.7397 1.27087C52.7181 1.23571 52.6977 1.20054 52.6724 1.16914C52.658 1.15031 52.6388 1.13524 52.6232 1.1164C52.5956 1.08626 52.5692 1.05486 52.538 1.02848C52.5175 1.0109 52.4947 0.998343 52.4743 0.982016C52.4431 0.95941 52.4131 0.935548 52.3795 0.916709C52.3566 0.90415 52.3302 0.895359 52.3062 0.884056C52.2714 0.867729 52.2366 0.850147 52.2006 0.838844C52.1765 0.831308 52.1501 0.827541 52.1237 0.821261C52.0841 0.81247 52.0457 0.801167 52.0048 0.797399C52.0012 0.797399 51.9976 0.794887 51.9928 0.794887C51.9628 0.792376 51.934 0.794887 51.9052 0.794887C51.8752 0.794887 51.8463 0.79112 51.8163 0.794887L31.2396 2.71515C30.9754 2.74027 30.7317 2.87339 30.5624 3.08564C30.3919 3.29789 30.3114 3.57293 30.3354 3.84923C30.3486 3.99742 30.5252 5.82475 31.4449 8.39682L13.6406 27.0192C13.5866 27.0758 13.5386 27.1386 13.4977 27.2076C13.3777 27.4098 10.7409 32.0441 15.892 38.0272L10.3639 43.8093C9.97482 44.2162 9.97482 44.8768 10.3639 45.2837C10.5584 45.4872 10.8141 45.5889 11.0687 45.5889C11.3232 45.5889 11.579 45.4872 11.7735 45.2837L17.3016 39.5016C20.0945 42.1327 22.5812 42.8259 24.4159 42.8259C26.2506 42.8259 27.5462 42.0712 27.6458 42.0071C27.7107 41.9644 27.7719 41.9154 27.8259 41.8577L45.6302 23.2352C48.0893 24.1972 49.8363 24.3819 49.978 24.3957C50.0092 24.3982 50.0393 24.3994 50.0693 24.3994C50.301 24.3994 50.528 24.314 50.7081 24.1571C50.911 23.98 51.0395 23.725 51.0635 23.4487L52.8994 1.92645C52.9018 1.89505 52.8994 1.86491 52.8994 1.83351C52.8994 1.80212 52.903 1.77197 52.8994 1.74058H52.8982ZM30.2562 24.4572C32.9014 27.224 35.5502 28.4849 37.2468 29.0525L31.9288 34.6149C30.8433 34.3725 27.7755 33.4406 24.7209 30.2456C21.6939 27.0795 20.7933 23.9021 20.5508 22.7392L25.8712 17.1743C26.4187 18.9501 27.6242 21.7043 30.255 24.456L30.2562 24.4572ZM26.5159 40.2777C25.9204 40.593 22.5236 42.0548 17.9872 37.3101C13.4377 32.5515 14.8582 28.991 15.1487 28.3907L18.9262 24.4396C19.4737 26.2155 20.6804 28.9696 23.31 31.7213C25.9552 34.4881 28.604 35.749 30.3006 36.3166L26.5147 40.2765L26.5159 40.2777ZM38.8714 27.3546C37.7931 27.1197 34.7457 26.2054 31.6658 22.9828C28.6388 19.8167 27.7371 16.638 27.4957 15.4763L32.2878 10.4628C33.2832 12.6242 34.7769 15.0707 37.0126 17.4091C39.2484 19.7476 41.5874 21.3099 43.6538 22.3511L38.8714 27.3533V27.3546ZM49.1723 22.1439C47.196 21.7143 42.5948 20.2964 38.4235 15.9347C34.2726 11.5931 32.9062 6.7629 32.4895 4.69193L50.8065 2.98266L49.1723 22.1439Z" fill="#DDE404"/>
<path d="M23.0569 44.5739C22.519 44.4508 21.9871 44.8075 21.8694 45.3701C21.8586 45.4216 21.0037 49.497 20.3625 52.005C20.3181 51.9146 20.2736 51.8254 20.2328 51.74C19.2806 49.7972 18.2012 47.5956 16.591 47.5541C16.5634 47.5541 16.537 47.5541 16.5094 47.5541C14.7599 47.5541 13.1498 48.9833 12.2961 50.6901C10.214 49.1152 7.19299 50.0094 4.74953 51.1686C5.41113 49.6289 5.76053 48.3253 5.82778 47.1786C5.90942 45.7833 5.56602 44.6015 4.80476 43.6483C6.5386 42.6612 8.23882 40.7685 8.19199 38.7729C8.15357 37.0888 6.04751 35.9597 4.18999 34.9638C4.10954 34.9211 4.02429 34.8746 3.93784 34.8281C6.33328 34.1562 10.232 33.2633 10.2812 33.2507C10.8192 33.1277 11.1602 32.5713 11.0425 32.0087C10.9248 31.446 10.3953 31.0881 9.85499 31.2124C9.59443 31.2714 3.46596 32.678 1.77054 33.3311C0.990072 33.6313 0.872402 34.2416 0.857993 34.489C0.800358 35.4887 1.73332 35.9886 3.28105 36.8187C4.11074 37.2633 6.05231 38.3057 6.1988 38.8219C6.23002 40.1695 4.11435 42.0508 2.7107 42.2605C2.29165 42.3233 1.95545 42.6561 1.8738 43.0907C1.79095 43.5252 1.98187 43.9673 2.34689 44.1908C3.45275 44.8715 3.91263 45.7532 3.83698 47.0505C3.75173 48.5124 2.99768 50.4892 1.5316 53.0926C1.52679 53.1027 1.52319 53.1127 1.51839 53.1215C1.50158 53.1542 1.48717 53.1893 1.47276 53.2245C1.46075 53.2546 1.44875 53.2835 1.44034 53.3137C1.43074 53.3463 1.42473 53.379 1.41873 53.4116C1.41273 53.4443 1.40552 53.4782 1.40192 53.5108C1.39832 53.5448 1.39952 53.5774 1.39832 53.6113C1.39832 53.644 1.39712 53.6779 1.39952 53.7105C1.40192 53.7444 1.40912 53.7784 1.41513 53.8123C1.42113 53.8449 1.42593 53.8776 1.43434 53.909C1.44274 53.9404 1.45475 53.9705 1.46676 54.0006C1.47997 54.0346 1.49197 54.0685 1.50878 54.1011C1.51359 54.1112 1.51599 54.1225 1.52199 54.1313C1.5316 54.1488 1.54481 54.1639 1.55561 54.1815C1.57482 54.2129 1.59403 54.243 1.61685 54.2719C1.63726 54.2995 1.66007 54.3234 1.68289 54.3485C1.7045 54.3724 1.72611 54.395 1.75133 54.4163C1.78015 54.4415 1.81016 54.4641 1.84138 54.4854C1.85699 54.4955 1.869 54.5093 1.88581 54.5193C1.89301 54.5231 1.90022 54.5244 1.90742 54.5294C1.97827 54.5708 2.05151 54.6047 2.12956 54.6273C2.13676 54.6298 2.14517 54.6298 2.15237 54.6311C2.22081 54.6487 2.29165 54.6575 2.3625 54.66C2.3721 54.66 2.38171 54.6638 2.39011 54.6638C2.40212 54.6638 2.41413 54.6587 2.42613 54.6587C2.48497 54.6562 2.5438 54.6487 2.60264 54.6349C2.62185 54.6311 2.64106 54.6273 2.66027 54.6223C2.73112 54.601 2.80076 54.5733 2.868 54.5357C2.8716 54.5331 2.8764 54.5319 2.88001 54.5306C9.29546 50.7642 11.0053 51.7564 11.8302 53.2258C12.0439 53.6075 12.463 53.8072 12.8832 53.7206C13.2987 53.6352 13.6168 53.2835 13.6769 52.8452C13.8726 51.4173 15.239 49.6377 16.4842 49.6377C16.4938 49.6377 16.5046 49.6377 16.5142 49.6377C17.0353 49.7934 18.0307 51.8254 18.4558 52.6933C19.2254 54.2644 19.6997 55.2302 20.6002 55.2302C20.6279 55.2302 20.6543 55.2302 20.6831 55.2277C20.9196 55.2126 21.502 55.0895 21.7902 54.2732C22.4145 52.4998 23.7593 46.0885 23.8158 45.8172C23.9334 45.2546 23.5924 44.6982 23.0545 44.5751L23.0569 44.5739Z" fill="#DDE404"/>
</svg>
