<svg width="1382" height="1440" viewBox="0 0 1382 1440" fill="none" xmlns="http://www.w3.org/2000/svg">
<path d="M1450.98 154.034C1482.44 240.815 1507.1 328.614 1524.96 417.304C1524.96 417.559 1524.96 417.813 1524.96 418.068C1524.81 419.785 1522.95 421.121 1520.86 420.994L1517 420.74C1512.28 420.485 1508.34 417.686 1507.26 413.868L1438.76 160.332C1438.76 160.332 1438.76 160.078 1438.69 159.951C1437.37 156.133 1432.58 153.907 1427.94 154.988C1412.79 158.615 1398.95 163.895 1386.43 170.894C1318.09 208.94 1244.49 243.36 1165.56 274.026C1162.16 275.362 1160.3 277.589 1159.84 280.706C1152.57 337.33 1152.26 393.891 1158.75 450.261C1158.75 450.77 1158.75 451.279 1158.75 451.788C1158.14 455.669 1153.88 458.341 1149.17 457.832C1121.34 455.032 1093.58 456.177 1065.91 461.14C1063.2 461.649 1060.42 460.377 1059.57 458.213C1046.19 427.038 1030.73 397.136 1013.26 368.506C1013.03 368.124 1012.8 367.742 1012.49 367.424C1007.46 360.744 996.87 358.644 988.753 362.779C967.802 373.404 947.857 386.702 928.916 402.671C910.131 418.449 913.841 450.897 910.826 471.956C910.362 475.073 912.991 477.873 916.702 478.255C952.186 482.326 987.593 482.072 1022.92 477.364C1076.19 470.302 1102.94 466.803 1103.32 466.739C1239.08 455.287 1375.83 447.779 1510.97 431.874C1544.68 427.929 1580.78 424.621 1619.12 422.012C1630.57 421.249 1640.07 417.113 1647.57 409.669C1649.74 407.57 1649.51 405.661 1646.8 403.943C1644.94 402.798 1643.01 402.989 1641 404.516C1640.77 404.643 1640.62 404.834 1640.38 404.961C1637.45 406.679 1633.43 406.107 1631.26 403.689C1609.23 378.24 1587.81 353.109 1567.1 328.296C1558.82 318.371 1549.62 300.747 1539.57 275.489C1573.67 313.472 1605.67 352.409 1635.82 392.491C1636.6 393.636 1637.68 393.827 1639.07 393.191L1639.15 393.191C1640.46 392.555 1640.69 391.664 1640 390.519C1629.17 374.804 1617.42 359.535 1604.9 344.647C1576.22 310.673 1554.88 274.153 1525.27 240.433C1505.4 209.385 1482.98 179.292 1458.01 150.026C1456.08 147.799 1454.23 147.353 1452.37 148.817C1450.67 150.153 1450.05 152.189 1450.67 154.097L1450.98 154.034Z" fill="white" fill-opacity="0.1"/>
<path d="M989.525 631.331C981.408 616.634 967.57 610.399 948.088 612.626L909.975 616.888C890.339 619.115 885.546 627.195 895.441 641.319C905.955 656.207 918.557 674.721 933.245 696.862C939.894 706.851 949.557 711.495 962.313 710.795C997.024 708.823 1019.29 707.042 1053.07 716.394C1093.2 727.464 1133.78 737.071 1174.91 745.342C1186.51 747.633 1196.56 748.205 1204.91 747.06C1212.4 745.915 1217.74 740.507 1217.58 734.208C1216.81 709.205 1218.2 685.601 1221.76 663.333C1224 649.845 1223.61 635.339 1220.75 619.879C1220.06 616.189 1216.27 613.453 1211.71 613.453L1049.13 612.817C1047.74 612.817 1046.27 612.944 1044.88 613.198C1034.91 615.107 1028.64 623.314 1030.96 631.522C1037.3 653.98 1045.73 676.185 1056.24 698.198C1061.73 709.523 1058.25 711.813 1045.81 705.197C1026.17 694.635 998.88 648.445 989.448 631.458L989.525 631.331Z" fill="white" fill-opacity="0.1"/>
<path d="M780.871 859.99C785.973 921.131 792.777 978.9 810.325 1040.11C821.612 1079.68 836.146 1118.87 838.929 1158.63C840.708 1184.27 841.326 1209.91 840.785 1235.62C840.63 1249.17 847.201 1255.66 863.436 1259.16C963.396 1280.34 1059.03 1319.54 1148.63 1359.75C1162.31 1365.85 1176.46 1370.37 1191.07 1373.36C1207.23 1376.61 1222.15 1379.72 1235.67 1382.84C1245.03 1384.88 1248.2 1382.14 1245.26 1374.57C1228.18 1330.8 1211.4 1288.3 1194.93 1247.07C1182.87 1216.79 1173.67 1190.45 1167.26 1167.92C1154.27 1121.67 1154.81 1069.18 1115 1031.33C1085.7 1003.46 1058.02 976.101 1031.97 949.38C1031.19 948.552 1030.19 947.789 1029.18 947.216C1022.85 943.526 1014.11 944.672 1009.55 949.889C996.715 964.585 988.598 980.046 985.119 996.397C984.578 999.069 982.955 1001.17 980.326 1002.76C971.668 1008.17 964.942 1010.58 958.68 1018.41C936.647 1046.21 911.831 1074.97 884.232 1104.75C881.372 1107.8 879.825 1107.42 879.516 1103.6C878.898 1096.41 880.676 1089.6 884.773 1082.99C908.661 1045.39 930.462 1007.85 950.176 970.439C960.767 950.143 983.186 890.211 982.413 888.874L981.099 886.52C980.867 886.139 980.635 886.011 980.249 886.139C954.119 891.483 930.076 881.113 912.063 878.949C868.539 873.796 825.864 866.797 783.886 858.017C783.654 858.017 783.345 858.017 783.113 858.017C781.721 858.081 780.639 859.099 780.794 860.181L780.871 859.99Z" fill="white" fill-opacity="0.1"/>
<path d="M1245.49 1428.78C1246.34 1427.63 1246.81 1426.36 1246.96 1425.02C1247.58 1419.93 1243.1 1415.41 1236.91 1414.91L1208.38 1412.49C1204.36 1412.17 1202.66 1413.63 1203.28 1416.88C1206.14 1434.5 1229.18 1451.62 1245.49 1428.78Z" fill="white" fill-opacity="0.1"/>
<path d="M1173.52 892.374C1178.7 899.309 1186.58 906.626 1197.33 914.197C1234.21 940.218 1270.62 966.558 1306.49 993.216C1307.73 994.17 1309.5 994.679 1311.2 994.552C1314.68 994.361 1317.31 991.88 1317 989.017C1317 989.017 1314.07 916.169 1319.86 901.536C1319.86 901.409 1319.94 901.281 1320.02 901.154C1321.33 897.209 1318.47 893.074 1313.68 892.056L1219.59 871.57C1216.5 870.933 1213.49 871.124 1210.55 872.206C1197.87 877.105 1185.66 887.412 1180.86 885.503C1169.19 880.922 1166.72 883.212 1173.52 892.31L1173.52 892.374Z" fill="white" fill-opacity="0.1"/>
<path d="M1038.38 361.698L1081.29 427.865C1084.85 433.337 1092.96 435.5 1099.77 432.828C1107.96 429.583 1115.54 423.921 1122.42 415.84C1124.27 413.614 1125.2 411.196 1125.28 408.524L1125.51 296.993C1125.51 296.421 1125.36 295.912 1125.05 295.403C1123.96 293.812 1121.57 293.303 1119.64 294.13C1092.73 306.664 1067.68 320.788 1044.57 336.63C1034.29 343.629 1032.28 351.963 1038.62 361.698L1038.38 361.698Z" fill="white" fill-opacity="0.1"/>
<path d="M861.349 127.948C885.16 144.936 950.871 167.84 979.398 146.272C988.907 139.082 992.154 128.521 988.984 114.651C978.316 66.6161 940.899 28.7607 876.81 0.893987C872.558 -0.95106 870.007 0.0669145 869.079 3.88427C861.89 34.2959 857.174 65.3437 855.009 97.0913C854.236 108.034 849.83 119.805 861.271 128.012L861.349 127.948Z" fill="white" fill-opacity="0.1"/>
<path d="M752.499 307.3L756.983 393.954C756.983 394.972 757.37 395.927 758.065 396.817C760.153 399.744 764.791 400.698 768.27 398.98C786.901 389.819 799.116 370.541 809.321 360.807C827.643 343.311 845.81 325.751 863.9 308.191C896.215 276.634 917.63 247.813 937.962 212.439C941.827 205.631 940.977 200.669 935.256 197.678C931.545 195.706 926.597 196.279 923.582 199.015C885.779 234.007 851.995 270.526 822.154 308.573C813.882 319.07 812.954 335.04 806.383 342.611C797.725 352.536 793.782 351.327 794.632 338.857L795.946 317.48L795.483 304.819L895.056 190.871C897.22 188.326 897.143 185.781 894.824 183.363C871.863 159.123 829.266 153.015 787.52 149.898C765.564 148.244 754.509 151.807 745.851 168.221C721.653 214.22 735.028 261.301 756.365 305.264C762.008 304.056 767.652 304.246 773.295 305.837C783.577 309.527 780.021 310.736 762.627 309.591L752.499 307.427L752.499 307.3Z" fill="white" fill-opacity="0.1"/>
<path d="M15.7526 1044.24C-92.4787 1086.17 -193.443 1119.7 -301.211 1152.97C-301.984 1153.23 -302.834 1153.54 -303.607 1153.86C-312.42 1157.87 -315.59 1167.03 -310.72 1174.35C-289.305 1206.03 -267.35 1228.43 -231.633 1256.42C-202.411 1279.26 -176.203 1304.01 -152.856 1330.67C-152.624 1330.92 -152.315 1331.24 -152.006 1331.43C-149.455 1333.34 -145.435 1333.21 -143.038 1331.05C-92.3241 1284.48 -41.8419 1240.01 8.40838 1197.63C30.0547 1179.37 51.7009 1159.97 73.5018 1139.48C113.779 1101.5 156.763 1071.22 182.506 1023.44C182.738 1022.93 182.97 1022.48 183.202 1021.97C187.299 1012.17 181.037 1001.42 169.132 998.05C159.623 995.251 147.872 996.333 133.802 1001.17C93.9885 1014.85 54.6387 1029.16 15.6754 1044.18L15.7526 1044.24Z" fill="white" fill-opacity="0.1"/>
<path d="M804.141 663.269L807.543 661.042C812.877 657.543 813.882 651.244 809.862 646.727C801.358 637.183 795.869 626.495 793.241 614.661C792.468 611.035 789.916 608.871 785.51 608.108C776.929 606.708 768.734 606.517 760.926 607.535C760.076 607.662 759.302 607.981 758.684 608.426C756.751 609.826 756.597 612.243 758.297 613.77C772.367 626.686 782.649 641.828 789.066 659.324C791.772 666.768 796.797 668.104 804.141 663.205L804.141 663.269Z" fill="white" fill-opacity="0.1"/>
<path d="M1565.24 873.987C1623.45 829.324 1659.01 771.3 1694.5 713.212C1695.58 711.431 1694.96 709.204 1692.95 708.059C1674.24 696.861 1653.68 688.336 1631.26 682.419C1564.08 664.732 1497.75 645.263 1432.19 623.886C1406.45 615.552 1363.77 602.509 1353.34 627.576C1352.1 630.63 1352.26 633.62 1353.8 636.611C1383.49 691.263 1412.25 734.717 1440.15 766.973C1468.53 799.739 1506.1 835.368 1552.79 873.923C1556.19 876.722 1561.68 876.786 1565.24 874.05L1565.24 873.987Z" fill="white" fill-opacity="0.1"/>
<path d="M-261.861 586.731C-263.02 588.894 -262.634 591.375 -260.701 594.175C-249.801 601.173 -247.713 613.898 -254.285 632.348C-254.13 666.768 -258.073 701.76 -266.19 737.262C-268.818 748.714 -267.35 763.474 -261.706 781.607C-261.01 783.961 -258.305 785.488 -255.29 785.17C-199.705 779.953 -149.378 764.429 -96.3442 752.977C-1.40979 732.426 97.8539 712.131 201.524 692.09C209.873 690.499 215.362 684.01 214.28 676.948C210.028 648.254 181.656 638.265 150.037 631.585C96.2304 620.133 36.8578 605.881 -18.7267 604.8C-35.9665 604.418 -52.897 602.636 -69.5182 599.328C-126.726 588.003 -188.341 582.468 -254.362 582.722C-257.841 582.722 -260.237 584.059 -261.706 586.667L-261.861 586.731ZM-39.8318 617.906C-39.9864 619.178 -40.9141 620.26 -42.6149 621.214C-44.0065 622.041 -44.7023 621.723 -44.7023 620.323C-44.7023 618.351 -44.4704 617.079 -43.8519 616.506C-40.9142 613.834 -39.5999 614.279 -39.8318 617.842L-39.8318 617.906Z" fill="white" fill-opacity="0.1"/>
<path d="M683.308 585.585L704.414 543.594C705.882 540.731 705.96 537.486 704.723 534.56C701.94 527.943 693.127 524.444 685.086 526.734L656.251 534.942C654.009 535.578 651.999 536.659 650.298 538.059L614.736 568.089C612.34 570.125 610.793 572.797 610.407 575.66C609.557 582.659 615.741 588.83 624.168 589.593L667.306 593.347C674.109 593.92 680.603 590.802 683.231 585.585L683.308 585.585Z" fill="white" fill-opacity="0.1"/>
<path d="M567.733 1008.68C569.356 997.987 569.974 987.235 573.84 976.737C615.277 864.634 652.23 752.022 684.545 638.838C687.715 627.767 684.777 626.495 675.732 635.148C646.896 662.569 617.906 692.281 588.76 724.283C552.967 763.538 459.269 842.43 454.863 843.321C426.104 849.174 400.67 859.29 378.637 873.605C366.422 881.558 365.031 890.91 374.385 901.79C417.214 951.225 487.487 1004.35 560.388 1013.32C560.388 1013.32 560.466 1013.32 560.543 1013.32C564.099 1013.7 567.346 1011.6 567.81 1008.68L567.733 1008.68Z" fill="white" fill-opacity="0.1"/>
<path d="M569.433 353.236C568.196 354.381 567.114 355.654 566.264 356.99C561.548 364.815 565.413 374.359 574.922 378.24L627.183 399.617C632.208 401.716 638.16 401.844 643.34 399.998C653.081 396.563 657.642 387.274 653.467 379.194L636.769 347.255C634.218 342.293 628.729 338.794 622.312 337.903L602.057 335.04C595.718 334.149 589.147 335.93 584.74 339.811L569.433 353.236Z" fill="white" fill-opacity="0.1"/>
<path d="M541.757 732.109C564.872 715.312 585.204 697.244 602.676 677.902C620.611 658.179 637.774 637.947 654.395 617.079C654.936 616.379 655.245 615.552 655.323 614.725C655.477 612.053 653.003 609.763 649.756 609.635C618.679 608.172 591.234 610.017 559.229 617.652C508.437 629.613 458.573 639.283 409.637 646.727C401.52 647.936 395.258 653.344 394.33 660.152C389.615 692.854 400.979 720.466 400.36 749.16C400.051 763.984 400.36 778.044 401.211 791.341C401.52 795.986 404.535 798.213 410.179 798.149C436.695 797.513 450.07 795.413 471.561 781.098C495.372 765.256 518.796 748.969 541.834 732.236L541.757 732.109Z" fill="white" fill-opacity="0.1"/>
<path d="M520.497 342.547C523.744 342.738 526.604 341.911 529.001 340.002C550.261 323.779 574.69 311.372 602.289 302.847C605.382 301.893 607.314 300.047 608.01 297.375C609.943 289.932 608.396 282.233 603.294 274.28C588.528 250.867 574.226 230.063 560.466 211.739C544.927 191.126 534.645 170.321 522.353 148.88C520.884 146.272 518.719 145.826 515.859 147.608C513.23 149.198 511.22 151.234 509.751 153.843C508.36 156.26 506.35 158.169 503.721 159.696C476.973 175.284 448.137 187.372 417.136 195.834C411.415 197.424 406.777 199.269 403.298 201.369C400.36 203.15 397.655 202.959 395.026 200.86L392.552 198.951C389.305 196.406 389.615 194.18 393.557 192.334C428.346 175.411 467.541 150.471 482.771 118.023C484.008 115.478 484.008 112.615 482.771 110.007C475.968 95.31 466.768 83.2217 455.017 73.7419C452.389 71.5788 449.142 70.8152 445.431 71.3878C433.757 73.4238 422.084 75.3324 410.333 77.1775C386.909 80.804 363.871 89.7112 339.21 94.6101C311.379 100.082 288.496 112.615 259.505 118.087C258.655 118.278 257.881 118.532 257.108 118.85C252.779 120.886 251.233 125.403 253.707 128.966C265.612 146.399 280.301 162.814 297.618 178.21C313.853 192.589 335.653 199.078 357.3 206.331C373.457 211.803 384.435 221.728 393.866 232.162C435.536 278.416 464.99 310.1 482.152 327.278C491.429 336.503 504.185 341.593 520.42 342.484L520.497 342.547ZM552.348 297.312C545.777 285.096 540.752 272.054 537.118 258.184C536.5 255.703 537.273 255.384 539.438 257.102C551.034 266.582 561.161 276.698 569.742 287.387C573.453 291.967 572.448 295.785 566.805 298.711L564.099 300.111C558.842 302.911 554.899 301.956 552.348 297.248L552.348 297.312Z" fill="white" fill-opacity="0.1"/>
<path d="M453.008 1285.5C456.564 1265.07 462.053 1245.1 469.552 1225.57C472.567 1217.74 474.731 1209.21 476.045 1200.12C476.741 1194.96 478.674 1190.06 481.921 1185.61L543.458 1099.02C549.797 1090.05 546.937 1084.07 534.954 1081.08L480.761 1067.65C469.938 1064.92 458.342 1069.5 454.322 1078.22C426.027 1138.66 418.373 1204.19 408.71 1268.26C405.695 1288.36 405.85 1307.7 409.097 1326.28C409.406 1328.12 410.488 1329.84 412.112 1331.12C416.132 1334.17 422.394 1334.04 426.104 1330.73C441.179 1317.56 450.147 1302.48 453.085 1285.5L453.008 1285.5Z" fill="white" fill-opacity="0.1"/>
<path d="M513.462 521.454C517.56 503.067 510.911 490.979 493.439 485.189C490.424 484.171 488.569 484.934 487.873 487.607C485.399 497.468 475.659 503.958 463.289 501.922C442.493 498.55 420.924 493.969 398.66 488.116C393.635 486.843 388.223 487.861 384.358 490.788L331.943 530.679C327.459 534.115 328.232 536.023 334.262 536.405C389.615 539.777 444.426 538.632 498.696 532.969C507.046 532.079 511.993 528.198 513.462 521.39L513.462 521.454Z" fill="white" fill-opacity="0.1"/>
<path d="M364.567 482.898C365.108 482.644 365.572 482.326 366.036 482.008C368.046 480.226 367.968 477.427 365.804 475.773C332.175 450.514 298.7 424.684 265.303 398.28C257.959 392.554 249.223 383.138 239.25 370.095C237.086 367.36 237.936 363.733 241.106 361.761L243.116 360.552C244.43 359.725 246.363 359.916 247.445 360.997C284.553 399.171 330.242 431.555 384.667 458.149C414.198 472.528 446.049 470.301 477.127 479.399C488.26 482.644 489.265 481.181 480.22 474.946C395.722 416.54 310.683 359.916 225.18 305.137C215.439 298.902 206.24 295.911 197.658 296.293C186.062 296.739 176.244 300.301 168.049 307.045C110.764 354.508 61.1323 407.251 19.0767 465.275C18.3036 466.356 17.7624 467.502 17.4531 468.71C15.7524 475.073 20.6228 481.371 28.3536 482.771C67.3942 489.77 106.512 495.559 145.785 500.013C192.943 505.421 234.225 513.564 278.136 522.281C291.047 524.762 300.246 523.744 305.658 519.1C323.052 504.339 342.688 492.314 364.721 482.898L364.567 482.898Z" fill="white" fill-opacity="0.1"/>
<path d="M101.024 815.708C90.0458 817.426 73.1152 823.47 50.3093 834.031C36.4711 840.394 27.4262 848.601 23.0969 858.781C13.8199 880.476 13.5107 901.599 22.2465 922.276C23.7927 925.966 28.6631 928.002 33.2243 926.92C68.6314 918.395 102.956 907.515 136.199 894.282C143.156 891.483 146.867 885.057 145.012 878.822C139.909 861.516 185.057 844.402 210.414 840.266C224.871 837.912 236.776 833.204 246.131 826.206C271.024 807.437 249.919 785.233 221.547 789.368C208.327 791.277 194.875 793.44 181.115 795.794C155.758 800.057 129.473 811.509 101.024 815.835L101.024 815.708Z" fill="white" fill-opacity="0.1"/>
<path d="M431.206 64.1988C432.289 64.0716 432.83 63.5625 432.83 62.5446C432.753 61.5902 432.134 61.0813 431.052 61.0177C386.832 60.5087 340.06 44.094 297.927 36.9047C285.403 34.8051 273.498 37.1591 262.211 43.9668C246.285 53.7646 244.971 72.9787 237.781 88.5026C237.627 88.7571 237.627 89.0752 237.781 89.3933C238.013 90.1568 239.018 90.6657 239.946 90.4749C268.782 84.8125 298.082 80.9952 327.768 78.8956C363.407 76.3507 395.954 68.0798 431.361 64.1988L431.206 64.1988Z" fill="white" fill-opacity="0.1"/>
<path d="M211.265 1197.7L199.359 1209.34C199.359 1209.34 199.127 1209.6 198.973 1209.79C197.658 1211.5 198.277 1213.8 200.364 1214.94L247.831 1240.39C247.831 1240.39 248.527 1240.71 248.914 1240.83C251.31 1241.47 253.861 1240.39 254.635 1238.48L275.276 1185.67C275.585 1184.91 275.585 1184.15 275.276 1183.38C274.503 1181.41 271.951 1180.39 269.555 1181.03L213.352 1196.68C212.579 1196.87 211.806 1197.32 211.265 1197.83L211.265 1197.7Z" fill="white" fill-opacity="0.1"/>
<path d="M271.102 1237.65C270.329 1240.83 272.493 1244.02 276.127 1245.22L288.109 1249.04C290.97 1249.93 293.289 1251.52 294.912 1253.69C298.237 1258.08 302.643 1261 307.978 1262.47C312.771 1263.8 317.332 1263.23 321.738 1260.81C345.858 1247.51 363.253 1183 321.97 1180.46C307.436 1179.57 295.608 1183.13 286.563 1191.02C273.189 1202.6 274.58 1222.64 270.87 1237.59L271.102 1237.65Z" fill="white" fill-opacity="0.1"/>
</svg>
