<svg width="51" height="51" viewBox="0 0 51 51" fill="none" xmlns="http://www.w3.org/2000/svg">
<rect x="0.53479" y="0.467773" width="49.5541" height="49.5541" rx="9.52964" fill="#EF008F"/>
<path fill-rule="evenodd" clip-rule="evenodd" d="M40.067 14.7264L36.2914 36.1446C36.1115 37.167 34.6577 37.4969 33.6444 36.7546C30.5619 34.4981 27.6113 32.3381 24.7862 30.2698C23.5238 29.3455 23.329 27.783 24.334 26.7933C26.6905 24.4714 29.0602 22.1371 31.4414 19.7903C31.8556 19.3826 31.1757 18.8223 30.6543 19.1367C26.938 21.3807 23.2911 23.5828 19.7134 25.7444C18.9461 26.2081 17.9461 26.2719 17.0946 25.9202C15.0962 25.0939 13.1523 24.2893 11.2578 23.5065C10.2298 23.0817 10.3337 21.7511 11.4113 21.4259L37.8508 13.4191C38.9878 13.0752 40.2304 13.7989 40.067 14.7264Z" fill="white"/>
</svg>
