<svg width="60" height="56" viewBox="0 0 60 56" fill="none" xmlns="http://www.w3.org/2000/svg">
<path d="M52.5288 25.4365H36.6265C35.9727 25.4365 35.4414 24.921 35.4414 24.2836C35.4414 23.6461 35.9713 23.132 36.6265 23.132H52.5288C53.1826 23.132 53.7125 23.6475 53.7125 24.2836C53.7125 24.9197 53.1826 25.4365 52.5288 25.4365Z" fill="#DDE404"/>
<path d="M52.5287 45.5381H46.7707C46.1168 45.5381 45.5869 45.0226 45.5869 44.3865C45.5869 43.7504 46.1168 43.2349 46.7707 43.2349H52.5287C53.1825 43.2349 53.7124 43.7504 53.7124 44.3865C53.7124 45.0226 53.1825 45.5381 52.5287 45.5381Z" fill="#DDE404"/>
<path d="M52.3896 30.5H38.7854C38.1315 30.5 37.6003 29.9845 37.6003 29.3484C37.6003 28.7123 38.1302 28.1954 38.7854 28.1954H52.3896C53.0435 28.1954 53.5734 28.7109 53.5734 29.3484C53.5734 29.9858 53.0435 30.5 52.3896 30.5Z" fill="#DDE404"/>
<path d="M52.5288 35.4935H36.6265C35.9727 35.4935 35.4414 34.978 35.4414 34.3406C35.4414 33.7032 35.9713 33.189 36.6265 33.189H52.5288C53.1826 33.189 53.7125 33.7045 53.7125 34.3406C53.7125 34.9767 53.1826 35.4935 52.5288 35.4935Z" fill="#DDE404"/>
<path d="M59.2483 15.6369C59.2483 15.2618 59.0644 14.9279 58.7784 14.7185L44.854 1.17204C44.854 1.17204 44.8472 1.16806 44.8445 1.16541C44.7723 1.0965 44.6919 1.04217 44.6061 0.993133C44.5816 0.979881 44.5584 0.966629 44.5326 0.954702C44.4427 0.912295 44.35 0.876514 44.2506 0.856635C44.2465 0.856635 44.2424 0.856635 44.237 0.85531C44.1648 0.842058 44.0899 0.834106 44.0149 0.834106H16.752C16.0968 0.834106 15.5682 1.34829 15.5682 1.98573V13.6238C16.011 13.5854 16.4605 13.5629 16.9182 13.5629C17.2574 13.5629 17.5979 13.5708 17.9371 13.6013V3.13867H42.8325V15.6369C42.8325 16.273 43.3624 16.7898 44.0163 16.7898H56.8631V53.2388H17.9371V42.7761C17.5979 42.8066 17.2574 42.8145 16.9182 42.8145C16.4605 42.8145 16.0096 42.792 15.5682 42.7536V54.3917C15.5682 55.0291 16.0968 55.5446 16.752 55.5446H58.0482C58.7035 55.5446 59.232 55.0305 59.232 54.3917V15.7893C59.2388 15.7389 59.2483 15.6885 59.2483 15.6369ZM45.2014 14.4852V4.76737L55.189 14.4839H45.2014V14.4852Z" fill="#DDE404"/>
<path d="M14.9879 34.582C14.7005 34.582 14.4226 34.4813 14.2061 34.2958L8.96024 29.8126C8.46849 29.3925 8.41945 28.6649 8.85127 28.1865C9.28172 27.7081 10.0323 27.6604 10.5227 28.0805L14.8626 31.7885L23.1897 22.2164C23.6134 21.7314 24.3598 21.6704 24.8598 22.0812C25.3583 22.492 25.421 23.2196 24.9987 23.7059L15.8911 34.1739C15.6854 34.4098 15.3912 34.5555 15.0738 34.5781C15.0452 34.5794 15.0152 34.5807 14.9866 34.5807L14.9879 34.582Z" fill="#DDE404"/>
<path d="M16.9181 43.9666C16.4522 43.9666 15.9768 43.9454 15.4633 43.9004C7.04765 43.1768 0.699829 36.4221 0.699829 28.1885C0.699829 19.9549 7.04765 13.2002 15.4633 12.4767C16.3909 12.3972 17.2055 12.3786 18.0446 12.4541C26.4943 13.0015 33.135 19.9138 33.135 28.1898C33.135 36.4659 26.493 43.3782 18.0133 43.9269C17.6673 43.9587 17.2913 43.968 16.9154 43.968L16.9181 43.9666ZM16.9181 14.715C16.5231 14.715 16.1158 14.7335 15.6731 14.772C8.48749 15.3908 3.06868 21.1582 3.06868 28.1885C3.06868 35.2188 8.48749 40.9862 15.6731 41.6051C16.4577 41.6727 17.132 41.6912 17.8281 41.6289C25.0967 41.1572 30.7675 35.2546 30.7675 28.1885C30.7675 21.1224 25.0967 15.2199 17.858 14.7508C17.5243 14.7216 17.2219 14.715 16.9181 14.715Z" fill="#DDE404"/>
</svg>
