<svg width="163" height="72" viewBox="0 0 163 72" fill="none" xmlns="http://www.w3.org/2000/svg">
<path d="M108.579 27.4212V33.796C107.626 33.8297 106.716 33.8081 105.815 33.8138C105.743 33.4861 105.718 16.9409 105.778 16.3339C106.027 16.2489 107.838 16.2235 108.401 16.3044C108.435 16.8305 108.398 17.3687 108.423 17.9443C108.48 17.9024 108.526 17.885 108.544 17.8525C109.126 16.8173 110.071 16.3029 111.181 16.0686C112.549 15.7802 113.88 15.9102 115.161 16.5089C116.261 17.0229 117.021 17.8699 117.577 18.9175C118.134 19.9701 118.389 21.1081 118.445 22.291C118.503 23.5239 118.337 24.7276 117.921 25.8928C117.483 27.1215 116.731 28.097 115.611 28.7841C115.064 29.1197 114.473 29.3242 113.841 29.3952C112.777 29.515 111.731 29.4527 110.721 29.0528C109.991 28.7637 109.384 28.3075 108.862 27.7285C108.791 27.6491 108.718 27.5717 108.579 27.4209L108.579 27.4212ZM108.49 22.7064C108.49 22.9203 108.48 23.1346 108.492 23.3481C108.526 24.0084 108.663 24.6498 108.959 25.2413C109.496 26.3158 110.304 27.0648 111.548 27.1971C111.956 27.2406 112.375 27.1998 112.787 27.1658C113.183 27.1329 113.535 26.9636 113.863 26.7394C114.758 26.1264 115.23 25.2503 115.429 24.2106C115.493 23.878 115.532 23.5383 115.554 23.2C115.637 21.8987 115.422 20.6644 114.673 19.5649C114.14 18.7815 113.395 18.3294 112.451 18.2357C112.128 18.2036 111.797 18.2145 111.473 18.2455C110.453 18.3438 109.659 18.8253 109.156 19.7271C108.974 20.0536 108.831 20.4089 108.718 20.766C108.519 21.3946 108.466 22.0476 108.49 22.706V22.7064Z" fill="white"/>
<path d="M130.908 22.7156C130.898 21.9177 131.005 21.1607 131.219 20.418C131.875 18.1349 133.346 16.693 135.67 16.1711C137.203 15.8268 138.726 15.8967 140.194 16.4946C141.8 17.1485 142.894 18.3137 143.462 19.9486C144.072 21.7034 144.103 23.482 143.54 25.2531C142.847 27.4285 141.368 28.7763 139.141 29.2729C137.921 29.545 136.688 29.5416 135.475 29.2196C133.287 28.6383 131.871 27.2494 131.234 25.0751C131.007 24.298 130.893 23.5024 130.908 22.7156ZM141.105 22.6105C141.094 22.4491 141.084 22.2605 141.066 22.0727C140.977 21.1138 140.701 20.2219 140.093 19.4581C139.582 18.8144 138.928 18.3904 138.107 18.2562C137.683 18.187 137.255 18.1859 136.828 18.2464C136.36 18.3125 135.93 18.4694 135.537 18.74C134.685 19.3281 134.193 20.1565 133.941 21.1358C133.65 22.2669 133.63 23.4076 133.987 24.5263C134.445 25.9583 135.318 26.9655 136.891 27.2014C138.398 27.427 139.762 26.718 140.467 25.368C140.915 24.5081 141.073 23.5901 141.105 22.6101V22.6105Z" fill="white"/>
<path d="M83.9498 24.9171C84.9238 24.9383 85.8747 24.9587 86.8309 24.9791C86.8762 25.1684 86.9117 25.3268 86.9522 25.4836C87.1412 26.2206 87.5826 26.7309 88.306 26.9867C89.1741 27.2936 90.06 27.3042 90.9501 27.1186C91.2547 27.0551 91.5608 26.9599 91.842 26.828C92.706 26.4228 92.8655 25.0997 91.9558 24.5305C91.3991 24.182 90.7887 24.0014 90.1689 23.8388C89.6216 23.6952 89.0615 23.6 88.5138 23.4571C87.9178 23.3018 87.3263 23.1268 86.7394 22.9393C86.4896 22.8596 86.25 22.7394 86.0172 22.6154C84.9204 22.0315 84.3739 21.1025 84.302 19.8723C84.214 18.3602 84.9343 17.3265 86.2167 16.633C86.948 16.2376 87.75 16.0736 88.569 15.9886C89.6416 15.8771 90.7055 15.902 91.7528 16.1968C92.8284 16.4996 93.7427 17.0351 94.378 17.9845C94.7431 18.5302 94.9532 19.1266 94.9994 19.7801C94.7378 19.8682 92.7714 19.898 92.0431 19.8239C92.0042 19.7094 91.9622 19.5813 91.918 19.4543C91.7422 18.9501 91.421 18.5918 90.9077 18.4067C90.1662 18.1395 89.4107 18.0918 88.6389 18.2245C88.241 18.2929 87.8475 18.3685 87.5104 18.6187C87.1737 18.8685 87.0357 19.192 87.0924 19.6047C87.1249 19.8406 87.2406 20.0288 87.4102 20.1894C87.7277 20.4903 88.1094 20.6773 88.5176 20.8183C89.3888 21.1192 90.2962 21.273 91.1878 21.4937C91.8458 21.6566 92.4928 21.8701 93.1342 22.0912C93.5764 22.2439 93.9755 22.4922 94.3266 22.8059C95.1955 23.5818 95.4994 24.5717 95.3792 25.7029C95.2337 27.0687 94.4203 27.9686 93.2672 28.5975C92.4497 29.0435 91.5533 29.2589 90.6326 29.3496C89.5479 29.4566 88.4708 29.3893 87.4057 29.138C86.1725 28.847 85.1978 28.1886 84.4956 27.1315C84.1127 26.5551 83.8772 25.6352 83.9498 24.9167V24.9171Z" fill="white"/>
<path d="M56.4716 29.1128C56.1341 29.2046 53.7236 29.2072 53.3691 29.1165V14.102C52.8781 14.0529 52.4163 14.0831 51.9563 14.0778C51.4903 14.0725 51.0243 14.0767 50.5583 14.0767H47.8144C47.7177 13.78 47.701 11.871 47.7819 11.4666C48.0635 11.3921 61.6641 11.3816 62.0719 11.4624C62.0961 12.3279 62.0954 13.2006 62.0712 14.1186C60.1936 14.1209 58.3496 14.1182 56.472 14.1205V29.1131L56.4716 29.1128Z" fill="white"/>
<path d="M79.2268 16.3332H81.9884C82.0599 16.6189 82.0833 28.5718 82.0183 29.0654C81.7545 29.1406 79.7242 29.158 79.2487 29.0824C79.1943 28.5567 79.2514 28.0177 79.2136 27.4251C79.1308 27.5169 79.0737 27.5706 79.0284 27.6326C78.1549 28.8314 76.9754 29.4671 75.4954 29.5004C75.0086 29.5113 74.5142 29.452 74.032 29.3726C72.3577 29.0975 71.4007 28.0566 70.9975 26.4534C70.8398 25.8272 70.7907 25.185 70.7888 24.5425C70.7813 21.8977 70.7843 19.2528 70.785 16.6084C70.785 16.5101 70.8005 16.4122 70.8081 16.3204C71.1029 16.2505 73.1438 16.2357 73.6109 16.3022C73.6151 16.4406 73.6234 16.5872 73.6234 16.7338C73.6245 19.1772 73.62 21.6203 73.6287 24.0637C73.6302 24.4771 73.6608 24.8948 73.7247 25.3033C73.9443 26.71 75.012 27.1749 75.947 27.2286C76.3782 27.2531 76.8046 27.2055 77.2165 27.08C78.124 26.8034 78.7389 26.2206 79.0133 25.3022C79.1656 24.7923 79.2279 24.2693 79.2275 23.7364C79.2253 21.4317 79.2264 19.127 79.2264 16.8223V16.3332H79.2268Z" fill="white"/>
<path d="M146.789 18.4213H144.707C144.617 18.1348 144.623 17.1049 144.713 16.2886C145.048 16.2364 145.397 16.2712 145.743 16.2647C146.081 16.2587 146.42 16.2632 146.8 16.2632C146.813 16.106 146.831 15.9741 146.831 15.8422C146.834 14.8471 146.832 13.8516 146.834 12.8565C146.834 12.7208 146.844 12.5851 146.85 12.4275H149.659C149.684 12.8553 149.668 13.268 149.671 13.6796C149.674 14.1078 149.672 14.5364 149.672 14.9646C149.672 15.3928 149.672 15.7927 149.672 16.2511C150.514 16.2821 151.327 16.2455 152.131 16.2723C152.208 16.566 152.224 17.8899 152.156 18.3544C151.753 18.3952 151.34 18.3688 150.929 18.3733C150.529 18.3778 150.128 18.3744 149.707 18.3744C149.692 18.5067 149.673 18.6035 149.673 18.6998C149.672 20.955 149.67 23.2098 149.677 25.4646C149.678 25.7141 149.716 25.9677 149.771 26.2115C149.864 26.6215 150.126 26.8906 150.555 26.911C151.043 26.9345 151.533 26.9099 152.023 26.9039C152.084 26.9031 152.144 26.8899 152.248 26.877C152.263 27.608 152.255 28.32 152.255 29.0577C151.862 29.1099 151.504 29.1787 151.143 29.2002C150.464 29.2411 149.782 29.266 149.109 29.1417C148.85 29.0937 148.592 29.0279 148.342 28.9455C147.701 28.7342 147.277 28.2901 147.045 27.6647C146.887 27.2368 146.803 26.7905 146.798 26.3335C146.79 25.6408 146.79 24.948 146.789 24.2548C146.788 22.466 146.789 20.6772 146.789 18.8881C146.789 18.7516 146.789 18.6152 146.789 18.4205L146.789 18.4213Z" fill="white"/>
<path d="M98.259 18.4215H96.1747C96.0923 18.1505 96.1206 16.675 96.2132 16.2706H98.2711C98.284 16.1062 98.3025 15.9747 98.3029 15.8428C98.3055 14.8477 98.3036 13.8526 98.3051 12.8574C98.3051 12.7218 98.3153 12.5861 98.3218 12.4281H101.135C101.151 13.7003 101.132 14.9547 101.147 16.2525C101.986 16.2797 102.799 16.2472 103.602 16.2714C103.677 16.5704 103.692 17.8962 103.625 18.3648C103.221 18.3679 102.81 18.3724 102.398 18.3739C101.998 18.3754 101.598 18.3739 101.171 18.3739C101.159 18.5217 101.143 18.6305 101.143 18.7398C101.142 20.9568 101.14 23.1738 101.148 25.3908C101.148 25.6531 101.181 25.9192 101.234 26.1765C101.325 26.621 101.603 26.9011 102.065 26.9177C102.553 26.9355 103.043 26.9048 103.533 26.8946C103.581 26.8935 103.629 26.8886 103.726 26.8822C103.73 27.6093 103.729 28.321 103.726 29.0569C103.333 29.1094 102.974 29.1793 102.613 29.2005C101.935 29.2409 101.253 29.2659 100.579 29.1411C100.32 29.0931 100.062 29.0274 99.812 28.945C99.1706 28.7341 98.7318 28.2938 98.5221 27.6619C98.3966 27.2835 98.3274 26.8803 98.2828 26.4827C98.2409 26.1089 98.2605 25.7279 98.2602 25.35C98.2587 23.2086 98.2594 21.0671 98.2594 18.9253C98.2594 18.7764 98.2594 18.6279 98.2594 18.4204L98.259 18.4215Z" fill="white"/>
<path d="M128.655 29.1046H125.931C125.858 28.7637 125.856 11.7868 125.933 11.4157C126.836 11.4028 127.748 11.4085 128.651 11.4123C128.729 11.7736 128.729 28.7595 128.655 29.1046Z" fill="white"/>
<path d="M61.5075 16.2845H64.101C64.1543 16.6889 64.1195 17.0767 64.1259 17.4626C64.1323 17.8397 64.1274 18.2169 64.1274 18.6572C64.3531 18.4161 64.3977 18.1345 64.5583 17.9259C64.734 17.6969 64.8973 17.4546 65.0984 17.2494C65.2907 17.0529 65.5156 16.8847 65.742 16.7267C65.9684 16.5687 66.205 16.4198 66.4537 16.3019C66.702 16.184 66.965 16.0831 67.2326 16.0222C67.5123 15.9587 67.8044 15.936 68.0924 15.9258C68.3664 15.916 68.6416 15.9447 68.9027 15.9557C68.9999 16.2713 69.0108 18.2876 68.9228 18.6776C68.7304 18.6497 68.5346 18.6221 68.3389 18.593C67.9507 18.5355 67.5633 18.5185 67.1737 18.5892C66.2216 18.7623 65.5217 19.2933 65.0137 20.0995C64.4638 20.9725 64.3017 21.9461 64.2949 22.9541C64.2865 24.2637 64.2922 25.5728 64.2922 26.8824C64.2922 27.449 64.2934 28.0155 64.2915 28.582C64.2911 28.7052 64.2801 28.8281 64.2745 28.9441C63.9574 29.0235 61.8787 29.031 61.5208 28.9596C61.4569 28.6829 61.4391 16.7887 61.5075 16.2841V16.2845Z" fill="white"/>
<path d="M120.543 16.2719C121.495 16.2564 122.407 16.2632 123.343 16.2651V29.0554C123.079 29.1424 121.271 29.1711 120.578 29.0981C120.562 29.0248 120.534 28.9439 120.53 28.8619C120.523 28.6987 120.527 28.5346 120.527 28.371C120.527 24.5065 120.527 20.6424 120.528 16.7779C120.528 16.6177 120.537 16.4575 120.543 16.2715L120.543 16.2719Z" fill="white"/>
<path d="M123.352 14.0963H120.536C120.523 13.2013 120.52 12.3283 120.539 11.4136C121.492 11.4046 122.404 11.4076 123.35 11.4117C123.377 12.3298 123.375 13.2013 123.352 14.0963Z" fill="white"/>
<path d="M36.9705 30.8112C34.5774 29.0923 32.1827 27.3765 29.7919 25.6546C28.2441 24.5396 26.6615 24.5545 25.0442 25.6992C22.7077 27.3621 20.3815 29.039 18.0503 30.7099C17.8882 30.6241 17.7257 30.5383 17.5635 30.4526C18.1131 28.6876 18.6418 26.9158 19.2159 25.1591C20.485 21.2751 19.4391 18.1421 16.0782 15.76C14.5736 14.6916 13.1015 13.5774 11.6143 12.4844C11.6544 12.272 11.6948 12.0596 11.7349 11.8472C14.136 11.8472 16.5374 11.8695 18.9381 11.8426C24.2716 11.7833 23.2807 12.4579 25.0045 7.43354C25.7373 5.29779 26.4493 3.15485 27.1708 1.01531C27.3602 0.999814 27.5499 0.98394 27.7393 0.968445C28.6376 3.64428 29.5353 6.3205 30.4348 8.99596C31.0697 10.8852 32.3594 11.8348 34.3038 11.8449C37.2472 11.8536 40.191 11.8468 43.1344 11.8468C43.221 12.049 43.3071 12.2512 43.3937 12.4534C38.4615 16.0325 33.529 19.6113 28.5968 23.1904C28.6543 23.3363 28.7117 23.4821 28.7692 23.6277C30.1124 23.292 31.4673 22.9965 32.795 22.6091C34.0898 22.2312 34.8892 22.5384 35.2996 23.9073C35.9667 26.1312 36.7366 28.3247 37.463 30.5308C37.2986 30.6245 37.1346 30.7179 36.9702 30.8116L36.9705 30.8112Z" fill="#10B777"/>
<rect x="0.352722" y="41.2622" width="30.6419" height="30.6419" fill="#10B777"/>
<path d="M21.474 65.8397C20.0079 64.7828 18.5404 63.7274 17.0757 62.6684C16.1275 61.9828 15.1578 61.992 14.1667 62.6958C12.7351 63.7185 11.3098 64.75 9.88177 65.7773C9.7823 65.7245 9.68283 65.6717 9.58372 65.619C9.92049 64.5336 10.2441 63.4439 10.5962 62.3635C11.3737 59.975 10.7328 58.0482 8.67359 56.5832C7.75175 55.926 6.84979 55.2411 5.9386 54.5686C5.96311 54.4381 5.98798 54.3072 6.01249 54.1767C7.48354 54.1767 8.95495 54.1903 10.4256 54.1739C13.6935 54.1375 13.0864 54.5522 14.1422 51.4625C14.5912 50.1489 15.0274 48.8314 15.4697 47.5153C15.5859 47.5057 15.702 47.4961 15.8178 47.4865C16.3685 49.132 16.9184 50.7779 17.4693 52.4231C17.8585 53.5851 18.6486 54.1691 19.8399 54.1753C21.6434 54.1806 23.4466 54.1764 25.2502 54.1764C25.3031 54.3008 25.356 54.4252 25.409 54.5493C22.3869 56.7504 19.3653 58.9512 16.3432 61.1522C16.3784 61.2417 16.4136 61.3316 16.4491 61.4211C17.2718 61.2146 18.102 61.0331 18.9159 60.7946C19.7091 60.5621 20.199 60.7511 20.4505 61.593C20.8591 62.9608 21.3308 64.3093 21.7759 65.666C21.6754 65.7234 21.5745 65.7812 21.474 65.8386V65.8397Z" fill="#1A1A1A"/>
<rect x="33.3517" y="41.2625" width="30.6419" height="30.6419" fill="#10B777"/>
<path d="M54.4726 65.8399C53.0066 64.7831 51.5391 63.7276 50.0744 62.6686C49.1261 61.983 48.1565 61.9922 47.1653 62.6961C45.7337 63.7187 44.3085 64.7502 42.8804 65.7775C42.781 65.7247 42.6815 65.672 42.5824 65.6192C42.9191 64.5338 43.2428 63.4441 43.5948 62.3637C44.3723 59.9752 43.7315 58.0485 41.6723 56.5834C40.7504 55.9263 39.8484 55.2413 38.9373 54.5688C38.9618 54.4383 38.9866 54.3075 39.0111 54.177C40.4822 54.177 41.9536 54.1905 43.4243 54.1741C46.6922 54.1377 46.085 54.5524 47.1408 51.4628C47.5898 50.1492 48.0261 48.8317 48.4684 47.5156C48.5845 47.5059 48.7007 47.4963 48.8165 47.4867C49.3671 49.1323 49.917 50.7782 50.468 52.4234C50.8571 53.5853 51.6473 54.1694 52.8385 54.1755C54.6421 54.1809 56.4453 54.1766 58.2488 54.1766C58.3018 54.301 58.3547 54.4255 58.4076 54.5496C55.3856 56.7507 52.3639 58.9514 49.3419 61.1525C49.3771 61.242 49.4122 61.3318 49.4478 61.4213C50.2705 61.2149 51.1007 61.0334 51.9145 60.7948C52.7078 60.5624 53.1977 60.7513 53.4492 61.5932C53.8577 62.961 54.3295 64.3095 54.7746 65.6663C54.6741 65.7237 54.5732 65.7814 54.4726 65.8388V65.8399Z" fill="#1A1A1A"/>
<rect x="66.3506" y="41.2625" width="30.6419" height="30.6419" fill="#10B777"/>
<path d="M87.4718 65.8399C86.0058 64.7831 84.5383 63.7276 83.0736 62.6686C82.1254 61.983 81.1557 61.9922 80.1645 62.6961C78.7329 63.7187 77.3077 64.7502 75.8796 65.7775C75.7802 65.7247 75.6807 65.672 75.5816 65.6192C75.9184 64.5338 76.242 63.4441 76.594 62.3637C77.3715 59.9752 76.7307 58.0485 74.6715 56.5834C73.7496 55.9263 72.8477 55.2413 71.9365 54.5688C71.961 54.4383 71.9858 54.3075 72.0104 54.177C73.4814 54.177 74.9528 54.1905 76.4235 54.1741C79.6914 54.1377 79.0843 54.5524 80.14 51.4628C80.5891 50.1492 81.0253 48.8317 81.4676 47.5156C81.5837 47.5059 81.6999 47.4963 81.8157 47.4867C82.3663 49.1323 82.9162 50.7782 83.4672 52.4234C83.8563 53.5853 84.6465 54.1694 85.8377 54.1755C87.6413 54.1809 89.4445 54.1766 91.248 54.1766C91.301 54.301 91.3539 54.4255 91.4068 54.5496C88.3848 56.7507 85.3631 58.9514 82.3411 61.1525C82.3763 61.242 82.4114 61.3318 82.447 61.4213C83.2697 61.2149 84.0999 61.0334 84.9138 60.7948C85.707 60.5624 86.1969 60.7513 86.4484 61.5932C86.8569 62.961 87.3287 64.3095 87.7738 65.6663C87.6733 65.7237 87.5724 65.7814 87.4718 65.8388V65.8399Z" fill="#1A1A1A"/>
<rect x="99.3495" y="41.2625" width="30.6419" height="30.6419" fill="#10B777"/>
<path d="M120.471 65.8399C119.005 64.7831 117.537 63.7276 116.072 62.6686C115.124 61.983 114.154 61.9922 113.163 62.6961C111.732 63.7187 110.306 64.7502 108.878 65.7775C108.779 65.7247 108.679 65.672 108.58 65.6192C108.917 64.5338 109.241 63.4441 109.593 62.3637C110.37 59.9752 109.729 58.0485 107.67 56.5834C106.748 55.9263 105.846 55.2413 104.935 54.5688C104.96 54.4383 104.985 54.3075 105.009 54.177C106.48 54.177 107.952 54.1905 109.422 54.1741C112.69 54.1377 112.083 54.5524 113.139 51.4628C113.588 50.1492 114.024 48.8317 114.466 47.5156C114.583 47.5059 114.699 47.4963 114.814 47.4867C115.365 49.1323 115.915 50.7782 116.466 52.4234C116.855 53.5853 117.645 54.1694 118.837 54.1755C120.64 54.1809 122.443 54.1766 124.247 54.1766C124.3 54.301 124.353 54.4255 124.406 54.5496C121.384 56.7507 118.362 58.9514 115.34 61.1525C115.375 61.242 115.41 61.3318 115.446 61.4213C116.268 61.2149 117.099 61.0334 117.913 60.7948C118.706 60.5624 119.196 60.7513 119.447 61.5932C119.856 62.961 120.327 64.3095 120.773 65.6663C120.672 65.7237 120.571 65.7814 120.471 65.8388V65.8399Z" fill="#1A1A1A"/>
<rect x="132.348" y="41.2625" width="30.6419" height="30.6419" fill="#10B777"/>
<path d="M153.47 65.8399C152.004 64.7831 150.537 63.7276 149.072 62.6686C148.124 61.983 147.154 61.9922 146.163 62.6961C144.731 63.7187 143.306 64.7502 141.878 65.7775C141.779 65.7247 141.679 65.672 141.58 65.6192C141.917 64.5338 142.24 63.4441 142.592 62.3637C143.37 59.9752 142.729 58.0485 140.67 56.5834C139.748 55.9263 138.846 55.2413 137.935 54.5688C137.959 54.4383 137.984 54.3075 138.009 54.177C139.48 54.177 140.951 54.1905 142.422 54.1741C145.69 54.1377 145.083 54.5524 146.138 51.4628C146.587 50.1492 147.024 48.8317 147.466 47.5156C147.582 47.5059 147.698 47.4963 147.814 47.4867C148.365 49.1323 148.915 50.7782 149.466 52.4234C149.855 53.5853 150.645 54.1694 151.836 54.1755C153.64 54.1809 155.443 54.1766 157.246 54.1766C157.299 54.301 157.352 54.4255 157.405 54.5496C154.383 56.7507 151.362 58.9514 148.34 61.1525C148.375 61.242 148.41 61.3318 148.445 61.4213C149.268 61.2149 150.098 61.0334 150.912 60.7948C151.705 60.5624 152.195 60.7513 152.447 61.5932C152.855 62.961 153.327 64.3095 153.772 65.6663C153.672 65.7237 153.571 65.7814 153.47 65.8388V65.8399Z" fill="#1A1A1A"/>
</svg>
