<svg width="50" height="51" viewBox="0 0 50 51" fill="none" xmlns="http://www.w3.org/2000/svg">
<rect x="0.286987" y="0.467773" width="49.5541" height="49.5541" rx="9.52964" fill="#383838"/>
<path d="M37.6448 12.4395C37.5141 12.5886 37.4261 12.6925 37.3339 12.7924C36.5649 13.6215 35.7938 14.4492 35.0248 15.2783C34.2606 16.1019 33.4978 16.9275 32.7343 17.7517C31.9061 18.6453 31.0772 19.5389 30.2491 20.4325C29.4553 21.2886 28.6615 22.1448 27.8684 23.0016C27.8038 23.0709 27.7432 23.1444 27.6779 23.2123C27.5974 23.2962 27.6043 23.3787 27.671 23.4675C27.9744 23.8695 28.277 24.2716 28.5776 24.6751C28.8259 25.0085 29.0715 25.3433 29.3177 25.6782C29.6685 26.1544 30.0179 26.6314 30.3688 27.1076C30.8282 27.7301 31.2863 28.3541 31.7493 28.9745C32.2596 29.6594 32.7748 30.3395 33.2852 31.0244C33.7605 31.6622 34.2338 32.302 34.7056 32.9426C35.2126 33.6302 35.7147 34.3207 36.2223 35.007C36.635 35.5644 37.0526 36.1183 37.4687 36.6728C37.7576 37.0583 38.0486 37.4423 38.3375 37.8271C38.3588 37.8562 38.3774 37.8888 38.3897 37.9227C38.4269 38.024 38.3994 38.0808 38.2962 38.0988C38.2253 38.1113 38.1518 38.1092 38.0788 38.1092C35.723 38.1078 33.3671 38.103 31.0112 38.1085C30.7815 38.1085 30.6363 38.0302 30.5029 37.8458C30.0186 37.1775 29.5172 36.5224 29.0275 35.8583C28.2344 34.7831 27.4468 33.7037 26.6537 32.6285C26.1901 31.9998 25.7196 31.3772 25.2546 30.7492C24.8942 30.2625 24.5392 29.771 24.1788 29.2844C23.9222 28.9384 23.6602 28.5967 23.4002 28.2535C23.3782 28.2244 23.3534 28.1974 23.3286 28.171C23.2083 28.0428 23.1697 28.0421 23.0487 28.1717C22.2652 29.0175 21.4824 29.8646 20.6983 30.7097C20.093 31.362 19.4849 32.0129 18.8783 32.6639C18.2172 33.3744 17.5541 34.0829 16.8952 34.7956C16.0429 35.7169 15.1941 36.6416 14.3426 37.5643C14.214 37.7037 14.0798 37.8382 13.9512 37.9775C13.8776 38.0572 13.793 38.1009 13.6829 38.1009C13.0941 38.1016 12.5053 38.1051 11.9165 38.1065C11.8808 38.1065 11.8429 38.1044 11.8086 38.0954C11.7377 38.0766 11.7143 38.024 11.746 37.9609C11.7721 37.9096 11.8113 37.8645 11.8505 37.8222C12.6952 36.9141 13.5406 36.0066 14.3859 35.0992C14.8984 34.5495 15.4115 33.9997 15.9226 33.4493C16.6029 32.7166 17.2818 31.9838 17.9607 31.2504C18.6052 30.5544 19.249 29.8577 19.8935 29.1617C20.3248 28.6958 20.7547 28.2293 21.1867 27.7648C21.3855 27.5513 21.5898 27.3426 21.7899 27.1298C21.8848 27.0293 21.9756 26.9246 22.0678 26.8213C22.1792 26.6951 22.1834 26.6494 22.0857 26.517C21.8092 26.1399 21.532 25.7641 21.2541 25.3884C20.6378 24.5551 20.0221 23.7226 19.4051 22.8907C18.9746 22.3104 18.5412 21.7323 18.1113 21.1514C17.3024 20.0602 16.4956 18.9684 15.6866 17.8779C15.1735 17.1861 14.6569 16.497 14.1438 15.8052C13.5873 15.0544 13.0336 14.3015 12.4771 13.5508C12.2488 13.2416 12.0135 12.9338 11.7845 12.6218C11.7501 12.574 11.7081 12.4901 11.7274 12.4541C11.7501 12.4118 11.8354 12.3861 11.8938 12.3847C12.1552 12.3785 12.4173 12.3847 12.6787 12.3847C14.8234 12.3847 16.9688 12.3868 19.1135 12.3799C19.3467 12.3792 19.5042 12.4485 19.6438 12.644C20.0951 13.2728 20.5662 13.887 21.0271 14.5088C21.6138 15.3005 22.1964 16.0956 22.7839 16.8866C23.3672 17.672 23.9559 18.4533 24.5392 19.2387C25.1397 20.047 25.7382 20.8574 26.3359 21.6685C26.5471 21.9555 26.5815 21.9583 26.8229 21.6997C27.3704 21.1125 27.9221 20.5295 28.4675 19.941C28.7895 19.593 29.0997 19.2346 29.4209 18.8859C29.8061 18.4679 30.1989 18.0561 30.5868 17.6401C30.9596 17.2401 31.3283 16.836 31.7011 16.436C32.2232 15.8759 32.7494 15.3192 33.2701 14.757C33.7069 14.2863 34.1368 13.81 34.5715 13.3379C34.8288 13.0593 35.0908 12.7847 35.3488 12.5067C35.4299 12.4194 35.529 12.3875 35.6425 12.3868C36.2244 12.3854 36.8056 12.3827 37.3876 12.3847C37.455 12.3847 37.5224 12.4118 37.6448 12.4381V12.4395ZM16.8635 14.0735V14.0721C16.3257 14.0721 15.7878 14.0707 15.2499 14.0741C15.19 14.0741 15.1033 14.0915 15.0793 14.131C15.0573 14.1684 15.0868 14.2579 15.1205 14.3043C15.329 14.5948 15.5443 14.8804 15.7589 15.1667C16.1922 15.7448 16.6283 16.3209 17.0589 16.9005C17.4379 17.41 17.8087 17.9257 18.187 18.4353C18.6306 19.0328 19.0784 19.6269 19.5235 20.2231C19.8591 20.6737 20.192 21.1264 20.5277 21.577C20.8414 21.9985 21.1585 22.4172 21.4721 22.8394C21.933 23.4605 22.3911 24.0837 22.8513 24.7056C23.1464 25.1042 23.4435 25.5021 23.74 25.9007C24.2448 26.5801 24.7483 27.2601 25.2546 27.9381C25.591 28.388 25.9342 28.8331 26.2699 29.2837C26.6833 29.8396 27.0898 30.4012 27.5025 30.9578C27.9372 31.5443 28.3774 32.1259 28.8122 32.7124C29.6561 33.8493 30.4994 34.9855 31.3393 36.1259C31.4755 36.311 31.6316 36.399 31.871 36.3969C32.8883 36.3865 33.9064 36.3949 34.9237 36.3956C34.967 36.3956 35.0117 36.3969 35.0544 36.39C35.1851 36.3678 35.216 36.2999 35.1465 36.1924C35.1349 36.1744 35.117 36.1599 35.1039 36.1425C34.6726 35.563 34.242 34.9834 33.8114 34.4032C33.4421 33.9055 33.0741 33.4056 32.7033 32.9086C32.2418 32.2881 31.7782 31.6691 31.3159 31.0486C30.9933 30.6154 30.6728 30.1814 30.3502 29.7481C29.9361 29.1922 29.5206 28.6369 29.1079 28.0802C28.795 27.658 28.4861 27.2324 28.1725 26.8109C27.5582 25.9846 26.9419 25.161 26.3276 24.3347C25.9094 23.7725 25.496 23.2068 25.0765 22.646C24.4079 21.7517 23.7338 20.8609 23.0659 19.9659C22.6291 19.3815 22.2012 18.7902 21.7658 18.2051C21.1736 17.4086 20.5766 16.6162 19.9836 15.8204C19.6088 15.3171 19.2318 14.8159 18.8686 14.3043C18.7441 14.1282 18.5983 14.0658 18.3899 14.07C17.8816 14.0804 17.3726 14.0735 16.8635 14.0735Z" fill="#8E8E8E"/>
</svg>
